<?xml version="1.0" encoding="UTF-8"?>
<!DOCTYPE svg PUBLIC "-//W3C//DTD SVG 1.1//EN" "http://www.w3.org/Graphics/SVG/1.1/DTD/svg11.dtd">
<svg xmlns="http://www.w3.org/2000/svg" version="1.1" width="500px" height="500px" style="shape-rendering:geometricPrecision; text-rendering:geometricPrecision; image-rendering:optimizeQuality; fill-rule:evenodd; clip-rule:evenodd" xmlns:xlink="http://www.w3.org/1999/xlink">
<g><path style="opacity:1" fill="#fed826" d="M 239.5,-0.5 C 247.5,-0.5 255.5,-0.5 263.5,-0.5C 265.277,0.600473 267.277,1.43381 269.5,2C 283.79,3.4449 298.123,5.27824 312.5,7.5C 313.167,7.5 313.833,7.5 314.5,7.5C 316.242,8.95731 318.242,10.124 320.5,11C 328.231,13.0789 335.898,15.2455 343.5,17.5C 349.804,19.6557 355.804,22.3224 361.5,25.5C 361.721,26.7348 362.388,27.7348 363.5,28.5C 367.516,30.1763 371.516,31.8429 375.5,33.5C 394.16,43.4872 410.827,56.1538 425.5,71.5C 426.008,73.8654 426.675,76.1987 427.5,78.5C 428.698,78.9396 429.865,79.273 431,79.5C 431.054,82.8612 432.054,85.8612 434,88.5C 434.667,87.1667 435.333,85.8333 436,84.5C 437.704,86.3734 439.537,88.0401 441.5,89.5C 442.379,91.228 443.046,93.0614 443.5,95C 443.415,96.1074 443.081,97.1074 442.5,98C 445.147,99.8682 447.98,101.368 451,102.5C 450.667,104.5 450.333,106.5 450,108.5C 450.333,107.833 450.667,107.167 451,106.5C 453.018,107.223 454.852,108.223 456.5,109.5C 469.04,126.912 478.707,145.912 485.5,166.5C 485.588,171.33 486.922,175.663 489.5,179.5C 490.586,184.056 490.586,188.556 489.5,193C 490.253,194.487 491.086,194.654 492,193.5C 492.539,196.529 493.206,199.529 494,202.5C 494.383,203.056 494.883,203.389 495.5,203.5C 495.5,203.833 495.5,204.167 495.5,204.5C 496.057,214.851 496.89,225.184 498,235.5C 498.383,234.944 498.883,234.611 499.5,234.5C 499.5,245.167 499.5,255.833 499.5,266.5C 497.855,271.234 497.189,276.234 497.5,281.5C 497.5,282.5 497.5,283.5 497.5,284.5C 495.825,287.507 495.159,290.84 495.5,294.5C 495.5,294.833 495.5,295.167 495.5,295.5C 494.685,296.429 493.852,297.429 493,298.5C 489.803,308.636 487.636,318.969 486.5,329.5C 483.178,341.135 478.512,352.135 472.5,362.5C 471.542,362.953 470.708,363.619 470,364.5C 469.667,364.167 469.333,363.833 469,363.5C 468.667,364.833 468.333,366.167 468,367.5C 465.248,366.142 464.748,366.809 466.5,369.5C 464.904,372.321 463.904,375.321 463.5,378.5C 459.61,386.049 454.944,393.049 449.5,399.5C 447.425,400.62 445.259,401.62 443,402.5C 441.54,405.488 440.206,408.488 439,411.5C 437.663,410.235 436.163,409.735 434.5,410C 435.423,412.041 435.756,414.208 435.5,416.5C 435.167,417.5 434.5,418.167 433.5,418.5C 431.58,419.279 429.747,419.613 428,419.5C 427.355,420.646 426.522,421.646 425.5,422.5C 426.535,424.128 426.535,425.795 425.5,427.5C 423.143,427.337 420.81,427.503 418.5,428C 418.833,428.333 419.167,428.667 419.5,429C 417.913,429.862 416.246,430.529 414.5,431C 414.957,431.414 415.291,431.914 415.5,432.5C 414.167,433.167 412.833,433.833 411.5,434.5C 412.309,436.071 412.643,437.738 412.5,439.5C 410.565,440.15 408.565,440.483 406.5,440.5C 406.5,441.5 406.5,442.5 406.5,443.5C 401.977,443.027 399.643,445.027 399.5,449.5C 396.725,452.605 393.392,454.938 389.5,456.5C 385.446,455.816 381.446,455.816 377.5,456.5C 378.025,457.192 378.692,457.692 379.5,458C 376.255,458.636 373.922,460.47 372.5,463.5C 371.304,463.154 371.304,462.654 372.5,462C 371.5,461.333 370.5,461.333 369.5,462C 367.654,464.26 365.654,466.426 363.5,468.5C 362.675,469.386 361.675,469.719 360.5,469.5C 360.5,470.5 360.5,471.5 360.5,472.5C 353.722,474.762 347.055,477.429 340.5,480.5C 338.742,479.554 337.075,479.554 335.5,480.5C 336.025,481.192 336.692,481.692 337.5,482C 333.733,481.759 331.066,483.259 329.5,486.5C 321.865,487.471 314.198,488.305 306.5,489C 308.891,489.691 308.891,490.691 306.5,492C 303.377,492.206 300.377,492.873 297.5,494C 285.315,495.713 272.982,497.046 260.5,498C 259.584,498.278 258.918,498.778 258.5,499.5C 250.5,499.5 242.5,499.5 234.5,499.5C 233.737,498.732 232.737,498.232 231.5,498C 222.524,496.836 213.524,496.003 204.5,495.5C 204.167,495.5 203.833,495.5 203.5,495.5C 201.52,493.895 199.187,492.728 196.5,492C 190.861,490.92 185.195,490.087 179.5,489.5C 169.088,485.859 158.921,481.525 149,476.5C 146.269,475.383 143.435,474.717 140.5,474.5C 129.34,469.759 119.006,463.759 109.5,456.5C 108.26,455.027 107.26,453.36 106.5,451.5C 107.025,450.808 107.692,450.308 108.5,450C 106.821,449.605 105.155,449.772 103.5,450.5C 102.833,450.167 102.167,449.833 101.5,449.5C 100.907,447.618 100.24,445.785 99.5,444C 96.2982,443.624 92.9649,442.79 89.5,441.5C 87.8729,439.37 86.0396,437.37 84,435.5C 83.5172,434.552 83.3505,433.552 83.5,432.5C 82.1266,432.657 80.7932,432.49 79.5,432C 77.8863,429.873 75.8863,428.373 73.5,427.5C 63.0037,418.011 54.0037,407.345 46.5,395.5C 45.9862,393.634 45.3195,391.8 44.5,390C 39.7249,384.295 35.5582,378.129 32,371.5C 30.4379,369.043 29.4379,366.376 29,363.5C 27.9609,362.29 26.7942,361.29 25.5,360.5C 24.9554,353.422 22.2887,347.422 17.5,342.5C 12.9291,330.219 9.59575,317.553 7.5,304.5C 6.90128,301.083 5.56795,298.083 3.5,295.5C 3.5,295.167 3.5,294.833 3.5,294.5C 2.88943,285.179 2.38943,275.845 2,266.5C 1.3918,264.934 0.558465,263.6 -0.5,262.5C -0.5,252.5 -0.5,242.5 -0.5,232.5C 0.117425,232.389 0.617425,232.056 1,231.5C 2.16695,220.833 3.33361,210.166 4.5,199.5C 4.5,199.167 4.5,198.833 4.5,198.5C 6.49774,194.874 7.49774,190.874 7.5,186.5C 8.58768,179.465 10.5877,172.799 13.5,166.5C 17.7687,160.607 20.4354,153.941 21.5,146.5C 22.3257,143.515 23.659,140.849 25.5,138.5C 28.7565,135.664 30.7565,131.997 31.5,127.5C 34.6352,127.452 36.3019,125.785 36.5,122.5C 37.1924,123.025 37.6924,123.692 38,124.5C 38.7504,123.874 39.5838,123.374 40.5,123C 39.1328,120.699 38.4661,118.199 38.5,115.5C 40.7629,110.635 43.7629,106.302 47.5,102.5C 48.552,102.649 49.552,102.483 50.5,102C 51.5937,100.22 52.5937,98.3864 53.5,96.5C 54.7362,95.7542 56.0695,95.4208 57.5,95.5C 57.3505,94.448 57.5172,93.448 58,92.5C 59.6665,93.3402 59.8331,92.8402 58.5,91C 59.1905,89.9326 59.6905,88.7659 60,87.5C 62.4536,85.5588 64.287,83.2254 65.5,80.5C 69.5,74.5 74.5,69.5 80.5,65.5C 84.1463,63.5181 87.1463,60.8515 89.5,57.5C 90.5846,55.4131 92.2512,54.0798 94.5,53.5C 98.6543,50.3955 103.321,48.0622 108.5,46.5C 111.158,44.0316 113.491,41.3649 115.5,38.5C 123.686,32.2356 132.686,27.2356 142.5,23.5C 147.711,21.5956 153.044,19.7622 158.5,18C 159.381,17.2917 160.047,16.4584 160.5,15.5C 166.569,12.6996 172.902,10.6996 179.5,9.5C 198.341,5.6034 217.341,2.93673 236.5,1.5C 238.03,1.36015 239.03,0.693482 239.5,-0.5 Z"/></g>
<g><path style="opacity:1" fill="#f8dc59" d="M 226.5,-0.5 C 230.833,-0.5 235.167,-0.5 239.5,-0.5C 239.03,0.693482 238.03,1.36015 236.5,1.5C 217.341,2.93673 198.341,5.6034 179.5,9.5C 194.855,4.62922 210.521,1.29589 226.5,-0.5 Z"/></g>
<g><path style="opacity:1" fill="#f9e168" d="M 263.5,-0.5 C 266.5,-0.5 269.5,-0.5 272.5,-0.5C 286.036,1.08976 299.37,3.75643 312.5,7.5C 298.123,5.27824 283.79,3.4449 269.5,2C 267.277,1.43381 265.277,0.600473 263.5,-0.5 Z"/></g>
<g><path style="opacity:0.725" fill="#fce991" d="M 314.5,7.5 C 324.53,10.0644 334.196,13.3977 343.5,17.5C 335.898,15.2455 328.231,13.0789 320.5,11C 318.242,10.124 316.242,8.95731 314.5,7.5 Z"/></g>
<g><path style="opacity:1" fill="#f6e172" d="M 160.5,15.5 C 160.047,16.4584 159.381,17.2917 158.5,18C 153.044,19.7622 147.711,21.5956 142.5,23.5C 148.173,20.2687 154.173,17.602 160.5,15.5 Z"/></g>
<g><path style="opacity:0.659" fill="#f9e882" d="M 361.5,25.5 C 366.528,27.6762 371.194,30.3429 375.5,33.5C 371.516,31.8429 367.516,30.1763 363.5,28.5C 362.388,27.7348 361.721,26.7348 361.5,25.5 Z"/></g>
<g><path style="opacity:1" fill="#f9dd52" d="M 115.5,38.5 C 113.491,41.3649 111.158,44.0316 108.5,46.5C 103.321,48.0622 98.6543,50.3955 94.5,53.5C 100.659,47.3432 107.659,42.3432 115.5,38.5 Z"/></g>
<g><path style="opacity:1" fill="#f8e175" d="M 89.5,57.5 C 87.1463,60.8515 84.1463,63.5181 80.5,65.5C 82.8797,62.1195 85.8797,59.4528 89.5,57.5 Z"/></g>
<g><path style="opacity:1" fill="#fcdd51" d="M 425.5,71.5 C 431.771,76.7386 437.104,82.7386 441.5,89.5C 439.537,88.0401 437.704,86.3734 436,84.5C 435.333,85.8333 434.667,87.1667 434,88.5C 432.054,85.8612 431.054,82.8612 431,79.5C 429.865,79.273 428.698,78.9396 427.5,78.5C 426.675,76.1987 426.008,73.8654 425.5,71.5 Z"/></g>
<g><path style="opacity:1" fill="#fade53" d="M 65.5,80.5 C 64.287,83.2254 62.4536,85.5588 60,87.5C 59.6905,88.7659 59.1905,89.9326 58.5,91C 59.8331,92.8402 59.6665,93.3402 58,92.5C 57.5172,93.448 57.3505,94.448 57.5,95.5C 56.0695,95.4208 54.7362,95.7542 53.5,96.5C 52.5937,98.3864 51.5937,100.22 50.5,102C 49.552,102.483 48.552,102.649 47.5,102.5C 52.3721,94.2897 58.3721,86.9563 65.5,80.5 Z"/></g>
<g><path style="opacity:1" fill="#fcdc57" d="M 441.5,89.5 C 447.471,95.4425 452.471,102.109 456.5,109.5C 454.852,108.223 453.018,107.223 451,106.5C 450.667,107.167 450.333,107.833 450,108.5C 450.333,106.5 450.667,104.5 451,102.5C 447.98,101.368 445.147,99.8682 442.5,98C 443.081,97.1074 443.415,96.1074 443.5,95C 443.046,93.0614 442.379,91.228 441.5,89.5 Z"/></g>
<g><path style="opacity:1" fill="#f9dc4d" d="M 38.5,115.5 C 38.4661,118.199 39.1328,120.699 40.5,123C 39.5838,123.374 38.7504,123.874 38,124.5C 37.6924,123.692 37.1924,123.025 36.5,122.5C 36.3019,125.785 34.6352,127.452 31.5,127.5C 30.7565,131.997 28.7565,135.664 25.5,138.5C 28.6406,130.059 32.974,122.392 38.5,115.5 Z"/></g>
<g><path style="opacity:1" fill="#0a0501" d="M 429.5,134.5 C 429.5,155.5 429.5,176.5 429.5,197.5C 405.5,197.5 381.5,197.5 357.5,197.5C 357.5,176.5 357.5,155.5 357.5,134.5C 381.5,134.5 405.5,134.5 429.5,134.5 Z"/></g>
<g><path style="opacity:1" fill="#f8de65" d="M 21.5,146.5 C 20.4354,153.941 17.7687,160.607 13.5,166.5C 15.5999,159.518 18.2666,152.852 21.5,146.5 Z"/></g>
<g><path style="opacity:1" fill="#bdab3d" d="M 374.5,161.5 C 378.833,161.5 383.167,161.5 387.5,161.5C 387.5,163.833 387.5,166.167 387.5,168.5C 383.167,168.5 378.833,168.5 374.5,168.5C 378.298,167.517 382.298,167.183 386.5,167.5C 386.5,165.833 386.5,164.167 386.5,162.5C 382.298,162.817 378.298,162.483 374.5,161.5 Z"/></g>
<g><path style="opacity:1" fill="#fcd82b" d="M 374.5,153.5 C 374.5,156.167 374.5,158.833 374.5,161.5C 378.298,162.483 382.298,162.817 386.5,162.5C 386.5,164.167 386.5,165.833 386.5,167.5C 382.298,167.183 378.298,167.517 374.5,168.5C 374.185,172.371 374.518,176.038 375.5,179.5C 379.634,180.485 383.968,180.818 388.5,180.5C 388.5,181.833 388.5,183.167 388.5,184.5C 381.833,184.5 375.167,184.5 368.5,184.5C 368.5,172.167 368.5,159.833 368.5,147.5C 374.833,147.5 381.167,147.5 387.5,147.5C 387.5,148.833 387.5,150.167 387.5,151.5C 382.706,150.903 378.373,151.57 374.5,153.5 Z"/></g>
<g><path style="opacity:1" fill="#f7e276" d="M 485.5,166.5 C 487.61,170.502 488.943,174.835 489.5,179.5C 486.922,175.663 485.588,171.33 485.5,166.5 Z"/></g>
<g><path style="opacity:1" fill="#cbb33c" d="M 374.5,153.5 C 378.373,151.57 382.706,150.903 387.5,151.5C 387.5,150.167 387.5,148.833 387.5,147.5C 381.167,147.5 374.833,147.5 368.5,147.5C 368.5,159.833 368.5,172.167 368.5,184.5C 375.167,184.5 381.833,184.5 388.5,184.5C 388.5,183.167 388.5,181.833 388.5,180.5C 383.968,180.818 379.634,180.485 375.5,179.5C 380.167,179.5 384.833,179.5 389.5,179.5C 389.5,181.833 389.5,184.167 389.5,186.5C 382.167,186.5 374.833,186.5 367.5,186.5C 367.5,173.167 367.5,159.833 367.5,146.5C 374.5,146.5 381.5,146.5 388.5,146.5C 388.5,148.833 388.5,151.167 388.5,153.5C 383.833,153.5 379.167,153.5 374.5,153.5 Z"/></g>
<g><path style="opacity:1" fill="#f1d131" d="M 403.5,145.5 C 412.984,144.221 418.317,148.221 419.5,157.5C 416.833,157.5 414.167,157.5 411.5,157.5C 410.661,152.332 408.161,151.332 404,154.5C 403.333,155.833 403.333,157.167 404,158.5C 408.843,161.588 413.509,164.921 418,168.5C 421.41,181.762 416.244,187.595 402.5,186C 397.173,183.513 394.84,179.347 395.5,173.5C 397.833,173.5 400.167,173.5 402.5,173.5C 402.562,179.023 405.229,180.856 410.5,179C 413.354,175.4 412.687,172.4 408.5,170C 398.358,167.45 394.525,161.284 397,151.5C 399.063,149.266 401.229,147.266 403.5,145.5 Z"/></g>
<g><path style="opacity:1" fill="#f8e178" d="M 7.5,186.5 C 7.49774,190.874 6.49774,194.874 4.5,198.5C 4.89839,194.239 5.89839,190.239 7.5,186.5 Z"/></g>
<g><path style="opacity:1" fill="#564707" d="M 96.5,197.5 C 109.833,197.5 123.167,197.5 136.5,197.5C 136.5,201.5 136.5,205.5 136.5,209.5C 136.167,209.5 135.833,209.5 135.5,209.5C 135.5,205.833 135.5,202.167 135.5,198.5C 122.833,198.5 110.167,198.5 97.5,198.5C 97.5,222.5 97.5,246.5 97.5,270.5C 96.5024,246.339 96.169,222.006 96.5,197.5 Z"/></g>
<g><path style="opacity:1" fill="#f9e065" d="M 489.5,179.5 C 492.415,187.16 494.415,195.16 495.5,203.5C 494.883,203.389 494.383,203.056 494,202.5C 493.206,199.529 492.539,196.529 492,193.5C 491.086,194.654 490.253,194.487 489.5,193C 490.586,188.556 490.586,184.056 489.5,179.5 Z"/></g>
<g><path style="opacity:1" fill="#d1b833" d="M 429.5,134.5 C 405.5,134.5 381.5,134.5 357.5,134.5C 357.5,155.5 357.5,176.5 357.5,197.5C 381.5,197.5 405.5,197.5 429.5,197.5C 428.051,199.164 426.051,199.998 423.5,200C 401.167,200.667 378.833,200.667 356.5,200C 355.833,178.333 355.167,156.667 354.5,135C 367.015,133.841 379.682,133.341 392.5,133.5C 405.005,133.5 417.338,133.833 429.5,134.5 Z"/></g>
<g><path style="opacity:1" fill="#19150a" d="M 277.5,196.5 C 281.514,196.334 285.514,196.501 289.5,197C 293.11,197.472 296.11,198.972 298.5,201.5C 297.07,201.421 295.736,201.754 294.5,202.5C 292.143,201.129 289.81,199.795 287.5,198.5C 281.884,201.94 282.551,203.606 289.5,203.5C 289.693,206.308 290.36,208.975 291.5,211.5C 292.496,211.414 293.329,211.748 294,212.5C 294.167,226.845 294.667,241.178 295.5,255.5C 296.086,255.291 296.586,254.957 297,254.5C 298.716,260.743 301.049,261.41 304,256.5C 304.667,242.167 304.667,227.833 304,213.5C 302.53,210.236 301.363,206.903 300.5,203.5C 303.294,205.819 305.128,208.819 306,212.5C 306.5,226.829 306.667,241.163 306.5,255.5C 303.224,264.441 296.891,269.774 287.5,271.5C 278.133,272.644 270.467,269.644 264.5,262.5C 264.672,261.508 264.338,260.842 263.5,260.5C 263.108,258.821 262.608,257.154 262,255.5C 261.5,241.171 261.333,226.837 261.5,212.5C 264.566,204.767 269.9,199.434 277.5,196.5 Z"/></g>
<g><path style="opacity:1" fill="#eacc45" d="M 334.5,197.5 C 336.488,216.805 337.154,236.472 336.5,256.5C 343.226,256.795 349.892,256.462 356.5,255.5C 357.386,256.325 357.719,257.325 357.5,258.5C 349.833,258.5 342.167,258.5 334.5,258.5C 334.5,238.167 334.5,217.833 334.5,197.5 Z"/></g>
<g><path style="opacity:1" fill="#f0d545" d="M 136.5,197.5 C 137.8,199.223 138.467,201.39 138.5,204C 138.333,206.167 138.167,208.333 138,210.5C 137.044,211.894 135.711,212.561 134,212.5C 126.859,211.423 119.693,211.256 112.5,212C 111.536,216.066 111.203,220.233 111.5,224.5C 119.243,223.87 126.576,224.537 133.5,226.5C 125.833,226.5 118.167,226.5 110.5,226.5C 110.5,221.167 110.5,215.833 110.5,210.5C 119.349,210.826 128.016,210.493 136.5,209.5C 136.5,205.5 136.5,201.5 136.5,197.5 Z"/></g>
<g><path style="opacity:1" fill="#eed241" d="M 277.5,196.5 C 284.032,195.34 290.699,195.507 297.5,197C 297.167,197.333 296.833,197.667 296.5,198C 298.876,200.68 301.876,202.013 305.5,202C 305.043,202.414 304.709,202.914 304.5,203.5C 306.015,205.547 306.849,207.881 307,210.5C 307.828,225.672 307.661,240.672 306.5,255.5C 306.667,241.163 306.5,226.829 306,212.5C 305.128,208.819 303.294,205.819 300.5,203.5C 300.167,202.5 299.5,201.833 298.5,201.5C 296.11,198.972 293.11,197.472 289.5,197C 285.514,196.501 281.514,196.334 277.5,196.5 Z"/></g>
<g><path style="opacity:1" fill="#0e0e0e" d="M 190.5,209.5 C 181.833,209.5 173.167,209.5 164.5,209.5C 163.609,210.261 162.942,211.261 162.5,212.5C 163.448,217.435 163.781,222.435 163.5,227.5C 171.17,227.778 178.836,228.111 186.5,228.5C 186.5,231.167 186.5,233.833 186.5,236.5C 185.448,236.649 184.448,236.483 183.5,236C 185.155,234.556 185.822,232.722 185.5,230.5C 183.692,230.491 182.025,230.991 180.5,232C 179.364,233.53 178.364,234.863 177.5,236C 172.914,236.197 168.414,236.697 164,237.5C 162.551,247.395 162.051,257.395 162.5,267.5C 159.167,267.5 155.833,267.5 152.5,267.5C 152.5,244.5 152.5,221.5 152.5,198.5C 165.167,198.5 177.833,198.5 190.5,198.5C 190.5,202.167 190.5,205.833 190.5,209.5 Z"/></g>
<g><path style="opacity:1" fill="#382d0a" d="M 190.5,209.5 C 190.5,205.833 190.5,202.167 190.5,198.5C 177.833,198.5 165.167,198.5 152.5,198.5C 152.5,221.5 152.5,244.5 152.5,267.5C 152.5,268.5 152.5,269.5 152.5,270.5C 156.5,270.5 160.5,270.5 164.5,270.5C 160.366,271.485 156.032,271.818 151.5,271.5C 151.5,246.833 151.5,222.167 151.5,197.5C 164.833,197.5 178.167,197.5 191.5,197.5C 191.817,201.702 191.483,205.702 190.5,209.5 Z"/></g>
<g><path style="opacity:1" fill="#0f0e0f" d="M 278.5,209.5 C 276.61,209.297 275.11,209.963 274,211.5C 273.333,226.5 273.333,241.5 274,256.5C 274.383,255.944 274.883,255.611 275.5,255.5C 276.306,256.728 277.306,257.728 278.5,258.5C 278.821,260.048 279.821,260.715 281.5,260.5C 281.472,262.582 282.139,264.416 283.5,266C 282.167,266.667 280.833,266.667 279.5,266C 276.955,258.661 274.622,258.828 272.5,266.5C 271.354,265.855 270.354,265.022 269.5,264C 270.93,262.12 270.596,260.62 268.5,259.5C 267.806,262.597 266.806,262.931 265.5,260.5C 266.671,258.831 268.004,257.331 269.5,256C 268.293,254.7 267.626,253.2 267.5,251.5C 266.167,251.5 264.833,251.5 263.5,251.5C 262.351,241.204 262.184,228.87 263,214.5C 264.115,216 264.948,217.667 265.5,219.5C 266.325,220.386 267.325,220.719 268.5,220.5C 268.5,218.5 268.5,216.5 268.5,214.5C 267.5,214.5 266.5,214.5 265.5,214.5C 266.557,211.069 267.557,207.569 268.5,204C 271.137,203.545 273.637,204.045 276,205.5C 277.667,204.833 279.333,204.167 281,203.5C 282.877,204.253 284.711,205.086 286.5,206C 283.854,206.497 281.187,206.664 278.5,206.5C 278.5,207.5 278.5,208.5 278.5,209.5 Z"/></g>
<g><path style="opacity:1" fill="#fed827" d="M 287.5,209.5 C 288.492,209.328 289.158,209.662 289.5,210.5C 289.461,211.756 289.961,212.756 291,213.5C 291.928,227.556 291.595,241.556 290,255.5C 289.667,255.167 289.333,254.833 289,254.5C 287.368,258.212 284.535,259.379 280.5,258C 279.421,257.044 278.255,256.211 277,255.5C 276.333,241.5 276.333,227.5 277,213.5C 279.89,210.729 283.39,209.396 287.5,209.5 Z"/></g>
<g><path style="opacity:1" fill="#211401" d="M 278.5,209.5 C 277.685,210.837 276.518,211.837 275,212.5C 274.185,226.908 274.352,241.241 275.5,255.5C 274.883,255.611 274.383,255.944 274,256.5C 273.333,241.5 273.333,226.5 274,211.5C 275.11,209.963 276.61,209.297 278.5,209.5 Z"/></g>
<g><path style="opacity:0.902" fill="#f8e271" d="M 4.5,199.5 C 3.33361,210.166 2.16695,220.833 1,231.5C 0.617425,232.056 0.117425,232.389 -0.5,232.5C -0.5,230.833 -0.5,229.167 -0.5,227.5C 0.608415,218.077 2.27508,208.743 4.5,199.5 Z"/></g>
<g><path style="opacity:1" fill="#d4bc3d" d="M 261.5,212.5 C 261.333,226.837 261.5,241.171 262,255.5C 262.608,257.154 263.108,258.821 263.5,260.5C 262.542,260.047 261.708,259.381 261,258.5C 260.172,242.994 260.339,227.661 261.5,212.5 Z"/></g>
<g><path style="opacity:1" fill="#74650a" d="M 135.5,209.5 C 135.833,209.5 136.167,209.5 136.5,209.5C 128.016,210.493 119.349,210.826 110.5,210.5C 110.5,215.833 110.5,221.167 110.5,226.5C 109.511,221.025 109.178,215.358 109.5,209.5C 118.167,209.5 126.833,209.5 135.5,209.5 Z"/></g>
<g><path style="opacity:1" fill="#9f8b2e" d="M 164.5,209.5 C 173.167,209.5 181.833,209.5 190.5,209.5C 182.35,210.493 174.017,210.826 165.5,210.5C 165.5,215.5 165.5,220.5 165.5,225.5C 173.352,225.175 181.018,225.508 188.5,226.5C 180.5,226.5 172.5,226.5 164.5,226.5C 164.5,220.833 164.5,215.167 164.5,209.5 Z"/></g>
<g><path style="opacity:1" fill="#f6d430" d="M 243.5,208.5 C 244.458,208.953 245.292,209.619 246,210.5C 246.498,213.817 246.665,217.15 246.5,220.5C 241.779,219.732 237.779,220.899 234.5,224C 235.167,224.333 235.833,224.667 236.5,225C 231.301,229.806 231.968,230.472 238.5,227C 239.09,225.491 239.756,223.991 240.5,222.5C 241.488,226.153 243.655,228.82 247,230.5C 247.667,231.5 247.667,232.5 247,233.5C 245.869,232.396 245.035,232.729 244.5,234.5C 246.164,237.897 246.997,241.564 247,245.5C 248.105,248.417 249.105,251.417 250,254.5C 252.358,256.024 254.191,258.024 255.5,260.5C 255.444,261.737 254.944,262.737 254,263.5C 252.667,262.167 251.333,260.833 250,259.5C 248.241,262.608 247.408,265.941 247.5,269.5C 245.227,268.265 243.394,268.598 242,270.5C 241.333,269.833 240.667,269.167 240,268.5C 238.693,269.772 237.193,270.772 235.5,271.5C 230.69,272.212 226.024,273.212 221.5,274.5C 218.136,274.774 215.803,273.441 214.5,270.5C 237.731,275.097 247.897,265.763 245,242.5C 244,240.833 243,239.167 242,237.5C 234.516,231.422 226.516,226.089 218,221.5C 214.302,217.172 214.802,213.505 219.5,210.5C 222.187,210.336 224.854,210.503 227.5,211C 229.365,213.194 231.032,215.36 232.5,217.5C 236.634,218.485 240.968,218.818 245.5,218.5C 245.784,216.585 245.451,214.919 244.5,213.5C 244.371,211.784 244.038,210.117 243.5,208.5 Z"/></g>
<g><path style="opacity:1" fill="#4b3e01" d="M 244.5,213.5 C 245.451,214.919 245.784,216.585 245.5,218.5C 240.968,218.818 236.634,218.485 232.5,217.5C 236.5,217.5 240.5,217.5 244.5,217.5C 244.5,216.167 244.5,214.833 244.5,213.5 Z"/></g>
<g><path style="opacity:1" fill="#0f0f0f" d="M 298.5,201.5 C 299.5,201.833 300.167,202.5 300.5,203.5C 301.363,206.903 302.53,210.236 304,213.5C 304.667,227.833 304.667,242.167 304,256.5C 301.049,261.41 298.716,260.743 297,254.5C 296.586,254.957 296.086,255.291 295.5,255.5C 294.667,241.178 294.167,226.845 294,212.5C 293.329,211.748 292.496,211.414 291.5,211.5C 290.36,208.975 289.693,206.308 289.5,203.5C 282.551,203.606 281.884,201.94 287.5,198.5C 289.81,199.795 292.143,201.129 294.5,202.5C 295.736,201.754 297.07,201.421 298.5,201.5 Z"/></g>
<g><path style="opacity:1" fill="#f8df67" d="M 495.5,204.5 C 497.112,211.789 498.446,219.122 499.5,226.5C 499.5,229.167 499.5,231.833 499.5,234.5C 498.883,234.611 498.383,234.944 498,235.5C 496.89,225.184 496.057,214.851 495.5,204.5 Z"/></g>
<g><path style="opacity:1" fill="#cfb93c" d="M 287.5,209.5 C 283.39,209.396 279.89,210.729 277,213.5C 276.333,227.5 276.333,241.5 277,255.5C 278.255,256.211 279.421,257.044 280.5,258C 284.535,259.379 287.368,258.212 289,254.5C 289.333,254.833 289.667,255.167 290,255.5C 291.595,241.556 291.928,227.556 291,213.5C 289.961,212.756 289.461,211.756 289.5,210.5C 290.167,210.833 290.833,211.167 291.5,211.5C 291.987,212.473 292.487,213.473 293,214.5C 293.667,227.5 293.667,240.5 293,253.5C 289.634,259.282 284.801,260.949 278.5,258.5C 277.306,257.728 276.306,256.728 275.5,255.5C 274.352,241.241 274.185,226.908 275,212.5C 276.518,211.837 277.685,210.837 278.5,209.5C 281.604,208.225 284.604,208.225 287.5,209.5 Z"/></g>
<g><path style="opacity:1" fill="#0f0e0d" d="M 135.5,209.5 C 126.833,209.5 118.167,209.5 109.5,209.5C 109.178,215.358 109.511,221.025 110.5,226.5C 117.982,227.492 125.648,227.825 133.5,227.5C 133.5,231.167 133.5,234.833 133.5,238.5C 125.5,238.5 117.5,238.5 109.5,238.5C 109.176,245.354 109.509,252.021 110.5,258.5C 118.984,259.493 127.651,259.826 136.5,259.5C 136.5,263.167 136.5,266.833 136.5,270.5C 123.5,270.5 110.5,270.5 97.5,270.5C 97.5,246.5 97.5,222.5 97.5,198.5C 110.167,198.5 122.833,198.5 135.5,198.5C 135.5,202.167 135.5,205.833 135.5,209.5 Z"/></g>
<g><path style="opacity:1" fill="#423402" d="M 110.5,226.5 C 118.167,226.5 125.833,226.5 133.5,226.5C 134.833,230.5 134.833,234.5 133.5,238.5C 133.5,234.833 133.5,231.167 133.5,227.5C 125.648,227.825 117.982,227.492 110.5,226.5 Z"/></g>
<g><path style="opacity:1" fill="#171002" d="M 164.5,209.5 C 164.5,215.167 164.5,220.833 164.5,226.5C 172.5,226.5 180.5,226.5 188.5,226.5C 188.5,230.5 188.5,234.5 188.5,238.5C 180.5,238.5 172.5,238.5 164.5,238.5C 164.5,249.167 164.5,259.833 164.5,270.5C 160.5,270.5 156.5,270.5 152.5,270.5C 152.5,269.5 152.5,268.5 152.5,267.5C 155.833,267.5 159.167,267.5 162.5,267.5C 162.051,257.395 162.551,247.395 164,237.5C 168.414,236.697 172.914,236.197 177.5,236C 178.364,234.863 179.364,233.53 180.5,232C 182.025,230.991 183.692,230.491 185.5,230.5C 185.822,232.722 185.155,234.556 183.5,236C 184.448,236.483 185.448,236.649 186.5,236.5C 186.5,233.833 186.5,231.167 186.5,228.5C 178.836,228.111 171.17,227.778 163.5,227.5C 163.781,222.435 163.448,217.435 162.5,212.5C 162.942,211.261 163.609,210.261 164.5,209.5 Z"/></g>
<g><path style="opacity:1" fill="#f7dc49" d="M 96.5,197.5 C 96.169,222.006 96.5024,246.339 97.5,270.5C 110.656,271.496 123.99,271.829 137.5,271.5C 123.765,272.83 109.931,272.83 96,271.5C 95.1701,246.663 95.3367,221.997 96.5,197.5 Z"/></g>
<g><path style="opacity:1" fill="#f2d74f" d="M 133.5,239.5 C 126.352,240.492 119.019,240.825 111.5,240.5C 111.5,246.167 111.5,251.833 111.5,257.5C 120.349,257.174 129.016,257.507 137.5,258.5C 128.5,258.5 119.5,258.5 110.5,258.5C 110.5,252.167 110.5,245.833 110.5,239.5C 118.167,239.5 125.833,239.5 133.5,239.5 Z"/></g>
<g><path style="opacity:1" fill="#a89338" d="M 188.5,238.5 C 181.018,239.492 173.352,239.825 165.5,239.5C 165.828,250.014 165.494,260.347 164.5,270.5C 164.5,259.833 164.5,249.167 164.5,238.5C 172.5,238.5 180.5,238.5 188.5,238.5 Z"/></g>
<g><path style="opacity:1" fill="#796918" d="M 133.5,238.5 C 133.5,238.833 133.5,239.167 133.5,239.5C 125.833,239.5 118.167,239.5 110.5,239.5C 110.5,245.833 110.5,252.167 110.5,258.5C 109.509,252.021 109.176,245.354 109.5,238.5C 117.5,238.5 125.5,238.5 133.5,238.5 Z"/></g>
<g><path style="opacity:1" fill="#f1d133" d="M 202.5,213.5 C 202.423,223.179 206.423,230.679 214.5,236C 222.251,238.447 228.418,242.947 233,249.5C 232.917,258.326 228.417,261.493 219.5,259C 217.944,258.28 216.944,257.113 216.5,255.5C 217.496,255.414 218.329,255.748 219,256.5C 219.249,255.376 219.749,254.376 220.5,253.5C 225.464,256.711 227.297,255.378 226,249.5C 224.284,248.448 223.284,249.114 223,251.5C 222.721,248.394 222.888,245.561 223.5,243C 222.551,242.383 221.718,242.549 221,243.5C 219.602,239.546 216.768,237.712 212.5,238C 211.663,236.989 211.33,235.822 211.5,234.5C 208.876,232.55 205.876,231.05 202.5,230C 201.602,224.511 201.602,219.011 202.5,213.5 Z"/></g>
<g><path style="opacity:1" fill="#13110c" d="M 243.5,208.5 C 244.038,210.117 244.371,211.784 244.5,213.5C 244.5,214.833 244.5,216.167 244.5,217.5C 240.5,217.5 236.5,217.5 232.5,217.5C 231.951,212.448 229.118,209.448 224,208.5C 222.124,208.525 220.624,209.191 219.5,210.5C 214.802,213.505 214.302,217.172 218,221.5C 226.516,226.089 234.516,231.422 242,237.5C 243,239.167 244,240.833 245,242.5C 247.897,265.763 237.731,275.097 214.5,270.5C 205.537,265.908 201.204,258.575 201.5,248.5C 205.833,248.5 210.167,248.5 214.5,248.5C 214.338,250.527 214.505,252.527 215,254.5C 215.383,255.056 215.883,255.389 216.5,255.5C 216.944,257.113 217.944,258.28 219.5,259C 228.417,261.493 232.917,258.326 233,249.5C 228.418,242.947 222.251,238.447 214.5,236C 206.423,230.679 202.423,223.179 202.5,213.5C 209.457,196.666 221.124,192.499 237.5,201C 240.094,203.086 242.094,205.586 243.5,208.5 Z"/></g>
<g><path style="opacity:1" fill="#c9b442" d="M 232.5,217.5 C 231.032,215.36 229.365,213.194 227.5,211C 224.854,210.503 222.187,210.336 219.5,210.5C 220.624,209.191 222.124,208.525 224,208.5C 229.118,209.448 231.951,212.448 232.5,217.5 Z"/></g>
<g><path style="opacity:1" fill="#665710" d="M 110.5,258.5 C 119.5,258.5 128.5,258.5 137.5,258.5C 137.5,262.833 137.5,267.167 137.5,271.5C 123.99,271.829 110.656,271.496 97.5,270.5C 110.5,270.5 123.5,270.5 136.5,270.5C 136.5,266.833 136.5,263.167 136.5,259.5C 127.651,259.826 118.984,259.493 110.5,258.5 Z"/></g>
<g><path style="opacity:1" fill="#e0c640" d="M 264.5,262.5 C 270.467,269.644 278.133,272.644 287.5,271.5C 278.991,274.166 271.658,272.166 265.5,265.5C 264.873,264.583 264.539,263.583 264.5,262.5 Z"/></g>
<g><path style="opacity:1" fill="#1b1401" d="M 334.5,197.5 C 334.5,217.833 334.5,238.167 334.5,258.5C 342.167,258.5 349.833,258.5 357.5,258.5C 357.5,262.5 357.5,266.5 357.5,270.5C 345.5,270.5 333.5,270.5 321.5,270.5C 321.5,246.167 321.5,221.833 321.5,197.5C 325.833,197.5 330.167,197.5 334.5,197.5 Z"/></g>
<g><path style="opacity:1" fill="#0f0e0f" d="M 322.5,199.5 C 325.833,199.5 329.167,199.5 332.5,199.5C 332.333,219.503 332.5,239.503 333,259.5C 340.087,260.315 347.253,260.815 354.5,261C 356.291,263.106 356.958,265.606 356.5,268.5C 345.167,268.5 333.833,268.5 322.5,268.5C 322.5,245.5 322.5,222.5 322.5,199.5 Z"/></g>
<g><path style="opacity:1" fill="#f9e064" d="M -0.5,262.5 C 0.558465,263.6 1.3918,264.934 2,266.5C 2.38943,275.845 2.88943,285.179 3.5,294.5C 1.92164,286.871 0.588303,279.205 -0.5,271.5C -0.5,268.5 -0.5,265.5 -0.5,262.5 Z"/></g>
<g><path style="opacity:0.553" fill="#fbec93" d="M 499.5,266.5 C 499.5,268.5 499.5,270.5 499.5,272.5C 498.833,275.5 498.167,278.5 497.5,281.5C 497.189,276.234 497.855,271.234 499.5,266.5 Z"/></g>
<g><path style="opacity:0.451" fill="#f9ee98" d="M 497.5,284.5 C 497.247,288.04 496.581,291.373 495.5,294.5C 495.159,290.84 495.825,287.507 497.5,284.5 Z"/></g>
<g><path style="opacity:1" fill="#fade5e" d="M 495.5,295.5 C 493.726,307.267 490.726,318.6 486.5,329.5C 487.636,318.969 489.803,308.636 493,298.5C 493.852,297.429 494.685,296.429 495.5,295.5 Z"/></g>
<g><path style="opacity:1" fill="#d7bd33" d="M 170.5,332.5 C 161.167,331.833 156.833,336.167 157.5,345.5C 156.84,344.036 156.507,342.369 156.5,340.5C 157.046,337.434 157.712,334.434 158.5,331.5C 162.526,331.497 166.526,331.831 170.5,332.5 Z"/></g>
<g><path style="opacity:1" fill="#fae06f" d="M 3.5,295.5 C 5.56795,298.083 6.90128,301.083 7.5,304.5C 9.59575,317.553 12.9291,330.219 17.5,342.5C 10.838,327.538 6.17136,311.871 3.5,295.5 Z"/></g>
<g><path style="opacity:1" fill="#090502" d="M 170.5,332.5 C 185.139,339.491 200.473,344.491 216.5,347.5C 220.264,348.832 224.264,349.665 228.5,350C 241.34,350.827 254.007,350.66 266.5,349.5C 269.206,349.425 271.873,349.092 274.5,348.5C 282.831,347.372 290.831,345.372 298.5,342.5C 307.022,339.909 315.355,336.742 323.5,333C 334.342,331.183 339.509,335.683 339,346.5C 328.821,379.844 307.321,402.177 274.5,413.5C 260.98,416.15 247.314,417.15 233.5,416.5C 225.021,414.594 216.687,411.927 208.5,408.5C 205.582,406.747 203.582,404.247 202.5,401C 203.065,397.601 205.065,395.768 208.5,395.5C 217.191,399.23 226.191,402.063 235.5,404C 243.5,404.667 251.5,404.667 259.5,404C 261.382,403.802 263.048,403.302 264.5,402.5C 273.173,401.057 281.173,398.057 288.5,393.5C 307.202,382.803 319.535,367.137 325.5,346.5C 316.028,349.656 306.694,352.989 297.5,356.5C 294.402,356.756 291.402,357.422 288.5,358.5C 283.304,359.139 278.304,360.139 273.5,361.5C 254.771,364.417 236.105,364.084 217.5,360.5C 201.744,357.748 186.578,353.081 172,346.5C 171.5,346.833 171,347.167 170.5,347.5C 175.221,361.285 182.721,373.285 193,383.5C 193.494,390.324 190.328,392.824 183.5,391C 170.582,378.338 161.915,363.171 157.5,345.5C 156.833,336.167 161.167,331.833 170.5,332.5 Z"/></g>
<g><path style="opacity:1" fill="#ddc342" d="M 298.5,342.5 C 290.831,345.372 282.831,347.372 274.5,348.5C 277.023,347.149 279.689,345.983 282.5,345C 287.664,343.374 292.997,342.54 298.5,342.5 Z"/></g>
<g><path style="opacity:1" fill="#cbb443" d="M 216.5,347.5 C 233.118,349.155 249.785,349.822 266.5,349.5C 254.007,350.66 241.34,350.827 228.5,350C 224.264,349.665 220.264,348.832 216.5,347.5 Z"/></g>
<g><path style="opacity:1" fill="#f9de5e" d="M 17.5,342.5 C 22.2887,347.422 24.9554,353.422 25.5,360.5C 21.7673,355.03 19.1006,349.03 17.5,342.5 Z"/></g>
<g><path style="opacity:1" fill="#bfa93d" d="M 288.5,358.5 C 288.389,359.117 288.056,359.617 287.5,360C 282.882,360.994 278.215,361.494 273.5,361.5C 278.304,360.139 283.304,359.139 288.5,358.5 Z"/></g>
<g><path style="opacity:1" fill="#f2d131" d="M 288.5,393.5 C 289.462,391.547 289.795,389.714 289.5,388C 290.549,387.508 291.549,387.674 292.5,388.5C 293.167,387.5 293.833,386.5 294.5,385.5C 295.086,385.709 295.586,386.043 296,386.5C 296.71,385.027 297.876,384.36 299.5,384.5C 299.343,383.127 299.51,381.793 300,380.5C 300.308,381.308 300.808,381.975 301.5,382.5C 301.554,381.313 301.887,379.98 302.5,378.5C 303.167,378.833 303.833,379.167 304.5,379.5C 305.466,377.604 305.799,375.604 305.5,373.5C 307.167,373.5 308.833,373.5 310.5,373.5C 309.265,371.227 309.598,369.394 311.5,368C 310.55,365.09 308.55,363.923 305.5,364.5C 305.5,363.5 305.5,362.5 305.5,361.5C 307.262,361.357 308.929,361.691 310.5,362.5C 312.645,361.318 312.645,359.818 310.5,358C 311.337,356.989 311.67,355.822 311.5,354.5C 306.814,355.037 302.147,355.704 297.5,356.5C 306.694,352.989 316.028,349.656 325.5,346.5C 319.535,367.137 307.202,382.803 288.5,393.5 Z"/></g>
<g><path style="opacity:1" fill="#eacf45" d="M 217.5,360.5 C 236.105,364.084 254.771,364.417 273.5,361.5C 264.129,363.933 254.462,364.933 244.5,364.5C 238.833,364.333 233.167,364.167 227.5,364C 223.837,363.428 220.503,362.262 217.5,360.5 Z"/></g>
<g><path style="opacity:1" fill="#fbdf60" d="M 472.5,362.5 C 470.509,368.489 467.509,373.823 463.5,378.5C 463.904,375.321 464.904,372.321 466.5,369.5C 464.748,366.809 465.248,366.142 468,367.5C 468.333,366.167 468.667,364.833 469,363.5C 469.333,363.833 469.667,364.167 470,364.5C 470.708,363.619 471.542,362.953 472.5,362.5 Z"/></g>
<g><path style="opacity:1" fill="#f8e373" d="M 25.5,360.5 C 26.7942,361.29 27.9609,362.29 29,363.5C 29.4379,366.376 30.4379,369.043 32,371.5C 35.5582,378.129 39.7249,384.295 44.5,390C 45.3195,391.8 45.9862,393.634 46.5,395.5C 38.2456,384.67 31.2456,373.003 25.5,360.5 Z"/></g>
<g><path style="opacity:1" fill="#e1c639" d="M 264.5,402.5 C 263.048,403.302 261.382,403.802 259.5,404C 251.5,404.667 243.5,404.667 235.5,404C 226.191,402.063 217.191,399.23 208.5,395.5C 205.065,395.768 203.065,397.601 202.5,401C 203.582,404.247 205.582,406.747 208.5,408.5C 205.425,407.609 202.425,406.443 199.5,405C 200.499,401.169 201.499,397.335 202.5,393.5C 206.767,393.797 210.934,393.464 215,392.5C 216.02,393.891 216.853,395.391 217.5,397C 220.177,397.249 222.51,398.249 224.5,400C 237.75,402.05 251.084,402.883 264.5,402.5 Z"/></g>
<g><path style="opacity:1" fill="#fbdf55" d="M 449.5,399.5 C 445.582,405.754 440.915,411.421 435.5,416.5C 435.756,414.208 435.423,412.041 434.5,410C 436.163,409.735 437.663,410.235 439,411.5C 440.206,408.488 441.54,405.488 443,402.5C 445.259,401.62 447.425,400.62 449.5,399.5 Z"/></g>
<g><path style="opacity:1" fill="#dbc03b" d="M 274.5,413.5 C 270.532,415.751 266.199,417.251 261.5,418C 252.833,418.667 244.167,418.667 235.5,418C 234.584,417.722 233.918,417.222 233.5,416.5C 247.314,417.15 260.98,416.15 274.5,413.5 Z"/></g>
<g><path style="opacity:1" fill="#fde166" d="M 433.5,418.5 C 431.57,422.1 428.903,425.1 425.5,427.5C 426.535,425.795 426.535,424.128 425.5,422.5C 426.522,421.646 427.355,420.646 428,419.5C 429.747,419.613 431.58,419.279 433.5,418.5 Z"/></g>
<g><path style="opacity:1" fill="#fcdd51" d="M 425.5,427.5 C 421.398,431.723 417.065,435.723 412.5,439.5C 412.643,437.738 412.309,436.071 411.5,434.5C 412.833,433.833 414.167,433.167 415.5,432.5C 415.291,431.914 414.957,431.414 414.5,431C 416.246,430.529 417.913,429.862 419.5,429C 419.167,428.667 418.833,428.333 418.5,428C 420.81,427.503 423.143,427.337 425.5,427.5 Z"/></g>
<g><path style="opacity:1" fill="#f9e270" d="M 73.5,427.5 C 75.8863,428.373 77.8863,429.873 79.5,432C 80.7932,432.49 82.1266,432.657 83.5,432.5C 83.3505,433.552 83.5172,434.552 84,435.5C 86.0396,437.37 87.8729,439.37 89.5,441.5C 83.8648,437.199 78.5315,432.533 73.5,427.5 Z"/></g>
<g><path style="opacity:1" fill="#fae05f" d="M 412.5,439.5 C 408.716,443.557 404.383,446.891 399.5,449.5C 399.643,445.027 401.977,443.027 406.5,443.5C 406.5,442.5 406.5,441.5 406.5,440.5C 408.565,440.483 410.565,440.15 412.5,439.5 Z"/></g>
<g><path style="opacity:1" fill="#fcdb55" d="M 89.5,441.5 C 92.9649,442.79 96.2982,443.624 99.5,444C 100.24,445.785 100.907,447.618 101.5,449.5C 102.167,449.833 102.833,450.167 103.5,450.5C 105.155,449.772 106.821,449.605 108.5,450C 107.692,450.308 107.025,450.808 106.5,451.5C 107.26,453.36 108.26,455.027 109.5,456.5C 102.109,452.471 95.4425,447.471 89.5,441.5 Z"/></g>
<g><path style="opacity:1" fill="#fae480" d="M 383.5,460.5 C 381.371,462.95 378.704,464.617 375.5,465.5C 377.399,462.6 380.066,460.934 383.5,460.5 Z"/></g>
<g><path style="opacity:1" fill="#fbdb49" d="M 389.5,456.5 C 387.853,458.326 385.853,459.66 383.5,460.5C 380.066,460.934 377.399,462.6 375.5,465.5C 361.209,474.643 345.876,481.643 329.5,486.5C 331.066,483.259 333.733,481.759 337.5,482C 336.692,481.692 336.025,481.192 335.5,480.5C 337.075,479.554 338.742,479.554 340.5,480.5C 347.055,477.429 353.722,474.762 360.5,472.5C 360.5,471.5 360.5,470.5 360.5,469.5C 361.675,469.719 362.675,469.386 363.5,468.5C 365.654,466.426 367.654,464.26 369.5,462C 370.5,461.333 371.5,461.333 372.5,462C 371.304,462.654 371.304,463.154 372.5,463.5C 373.922,460.47 376.255,458.636 379.5,458C 378.692,457.692 378.025,457.192 377.5,456.5C 381.446,455.816 385.446,455.816 389.5,456.5 Z"/></g>
<g><path style="opacity:1" fill="#f8e170" d="M 140.5,474.5 C 143.435,474.717 146.269,475.383 149,476.5C 158.921,481.525 169.088,485.859 179.5,489.5C 165.748,486.253 152.748,481.253 140.5,474.5 Z"/></g>
<g><path style="opacity:1" fill="#f8e166" d="M 179.5,489.5 C 185.195,490.087 190.861,490.92 196.5,492C 199.187,492.728 201.52,493.895 203.5,495.5C 195.16,494.415 187.16,492.415 179.5,489.5 Z"/></g>
<g><path style="opacity:1" fill="#fbdf62" d="M 329.5,486.5 C 310.979,493.004 291.979,497.337 272.5,499.5C 267.833,499.5 263.167,499.5 258.5,499.5C 258.918,498.778 259.584,498.278 260.5,498C 272.982,497.046 285.315,495.713 297.5,494C 300.377,492.873 303.377,492.206 306.5,492C 308.891,490.691 308.891,489.691 306.5,489C 314.198,488.305 321.865,487.471 329.5,486.5 Z"/></g>
<g><path style="opacity:0.561" fill="#fbe471" d="M 204.5,495.5 C 213.524,496.003 222.524,496.836 231.5,498C 232.737,498.232 233.737,498.732 234.5,499.5C 231.833,499.5 229.167,499.5 226.5,499.5C 219.122,498.446 211.789,497.112 204.5,495.5 Z"/></g>
</svg>
