<?xml version="1.0" encoding="UTF-8"?>
<svg version="1.1" xmlns="http://www.w3.org/2000/svg" width="1200" height="424">
<path d="M0 0 C5.53923997 4.66417598 9.81548809 9.49251913 13 16 C14.03125 15.195625 15.0625 14.39125 16.125 13.5625 C39.37838966 -3.78526689 62.6018182 -12.14552712 91.81640625 -8.52734375 C104.45795216 -5.77488199 115.51137646 1.51359749 122.75 12.1875 C129.5709051 23.4933838 131.1543124 34.74960214 131.12025452 47.69308472 C131.12153615 49.47099449 131.12153615 49.47099449 131.12284368 51.28482163 C131.12420434 54.56633512 131.12108535 57.84780896 131.11606562 61.12931776 C131.11174244 64.67116766 131.11320887 68.21301576 131.1139679 71.75486755 C131.11449194 77.88858349 131.11135756 84.02228878 131.10573006 90.15600204 C131.09759896 99.02429364 131.09499818 107.89258009 131.09374207 116.760875 C131.09155408 131.14950552 131.08490085 145.53813037 131.07543945 159.92675781 C131.06625879 173.9029945 131.05918115 187.87922965 131.05493164 201.85546875 C131.05453756 203.14796682 131.05453756 203.14796682 131.05413551 204.46657597 C131.05283046 208.78934874 131.05156675 213.11212153 131.05032361 217.43489432 C131.03995888 253.28993372 131.022072 289.14496604 131 325 C115.49 325 99.98 325 84 325 C83.99413376 321.63962555 83.98826752 318.2792511 83.98222351 314.81704712 C83.9270205 283.98513282 83.85704729 253.15328403 83.77101372 222.32144032 C83.75974587 218.27858422 83.74860737 214.23572777 83.73754883 210.19287109 C83.7342433 208.98560677 83.7342433 208.98560677 83.730871 207.75395326 C83.69552115 194.73066814 83.67064397 181.70738308 83.64965298 168.6840678 C83.6278725 155.31593448 83.59480075 141.94786329 83.55129844 128.57978284 C83.52482041 120.33430811 83.50709672 112.08891076 83.50065396 103.84339564 C83.49538828 98.18527065 83.4791318 92.52724295 83.45433434 86.86917014 C83.44035958 83.60719441 83.43276548 80.34542636 83.43499184 77.08341599 C83.43664666 73.53967103 83.41992632 69.99646082 83.39872742 66.45278931 C83.40357499 65.43136168 83.40842257 64.40993406 83.41341704 63.35755408 C83.33814751 55.71301346 82.20745235 48.70536645 78.25 42.0625 C72.10435182 36.42898917 65.07575758 36.40126679 57.125 36.65625 C45.88195041 37.3836192 35.68840601 42.59251758 26 48 C24.95984175 48.47305698 23.91968349 48.94611397 22.84800529 49.43350601 C19.67161554 52.29592527 19.55528526 52.72519712 19.24609566 56.75573349 C19.21343926 58.78527841 19.21426169 60.81551589 19.24050903 62.84515381 C19.23129893 63.9633813 19.22208883 65.0816088 19.21259964 66.23372197 C19.18893616 69.99450364 19.2081629 73.75385726 19.22705078 77.51464844 C19.21888403 80.20490556 19.20834806 82.89505582 19.19483948 85.58528137 C19.17045882 91.38408632 19.16800951 97.18256877 19.18042374 102.98140717 C19.19834085 111.36549829 19.1832328 119.7492735 19.16004442 128.13333979 C19.12332157 141.73556502 19.11333563 155.33767344 19.12011719 168.93994141 C19.12664797 182.153849 19.12061562 195.36765227 19.09765625 208.58154297 C19.09554027 209.80314132 19.09554027 209.80314132 19.09338154 211.04941842 C19.08622714 215.13498772 19.07882543 219.22055653 19.07130075 223.30612516 C19.00918841 257.20410517 18.99209416 291.10196546 19 325 C3.82 325 -11.36 325 -27 325 C-27.00586624 321.63962555 -27.01173248 318.2792511 -27.01777649 314.81704712 C-27.0729795 283.98513282 -27.14295271 253.15328403 -27.22898628 222.32144032 C-27.24025413 218.27858422 -27.25139263 214.23572777 -27.26245117 210.19287109 C-27.26465486 209.38802821 -27.26685854 208.58318533 -27.269129 207.75395326 C-27.30447885 194.73066814 -27.32935603 181.70738308 -27.35034702 168.6840678 C-27.3721275 155.31593448 -27.40519925 141.94786329 -27.44870156 128.57978284 C-27.47517959 120.33430811 -27.49290328 112.08891076 -27.49934604 103.84339564 C-27.50461172 98.18527065 -27.5208682 92.52724295 -27.54566566 86.86917014 C-27.55964042 83.60719441 -27.56723452 80.34542636 -27.56500816 77.08341599 C-27.56335334 73.53967103 -27.58007368 69.99646082 -27.60127258 66.45278931 C-27.59642501 65.43136168 -27.59157743 64.40993406 -27.58658296 63.35755408 C-27.66185249 55.71301346 -28.79254765 48.70536645 -32.75 42.0625 C-38.89564818 36.42898917 -45.92424242 36.40126679 -53.875 36.65625 C-65.11804959 37.3836192 -75.31159399 42.59251758 -85 48 C-86.04015825 48.47305698 -87.08031651 48.94611397 -88.15199471 49.43350601 C-91.32838446 52.29592527 -91.44471474 52.72519712 -91.75390434 56.75573349 C-91.78656074 58.78527841 -91.78573831 60.81551589 -91.75949097 62.84515381 C-91.77330612 64.52249505 -91.77330612 64.52249505 -91.78740036 66.23372197 C-91.81106384 69.99450364 -91.7918371 73.75385726 -91.77294922 77.51464844 C-91.78111597 80.20490556 -91.79165194 82.89505582 -91.80516052 85.58528137 C-91.82954118 91.38408632 -91.83199049 97.18256877 -91.81957626 102.98140717 C-91.80165915 111.36549829 -91.8167672 119.7492735 -91.83995558 128.13333979 C-91.87667843 141.73556502 -91.88666437 155.33767344 -91.87988281 168.93994141 C-91.87335203 182.153849 -91.87938438 195.36765227 -91.90234375 208.58154297 C-91.9037544 209.39594187 -91.90516506 210.21034077 -91.90661846 211.04941842 C-91.91377286 215.13498772 -91.92117457 219.22055653 -91.92869925 223.30612516 C-91.99081159 257.20410517 -92.00790584 291.10196546 -92 325 C-107.51 325 -123.02 325 -139 325 C-139 215.77 -139 106.54 -139 -6 C-123.49 -6 -107.98 -6 -92 -6 C-91.67 0.6 -91.34 7.2 -91 14 C-89.68 12.700625 -88.36 11.40125 -87 10.0625 C-64.47792206 -10.13410172 -26.0267293 -17.96156019 0 0 Z " fill="#454447" transform="translate(888,11)"/>
<path d="M0 0 C14.20616693 10.6546252 21.05789922 25.37235271 23.72448778 42.69163632 C24.70308912 50.89079276 24.41361364 59.22831878 24.38818359 67.47045898 C24.39225648 69.70284277 24.39760235 71.93522454 24.40411377 74.16760254 C24.41770867 80.19037472 24.41252098 86.21299152 24.40297651 92.23576617 C24.39533822 98.56368068 24.40243713 104.8915826 24.40713501 111.21949768 C24.4129289 122.52267101 24.40365228 133.82576606 24.388357 145.12892372 C24.37495965 155.34517984 24.37728254 165.56133362 24.39111328 175.77758789 C24.40722464 187.68377182 24.41311353 199.58989378 24.40427649 211.49609238 C24.39962052 217.78306377 24.39891755 224.06996492 24.40888596 230.35693169 C24.41760928 236.27094087 24.41143639 242.18475856 24.39420319 248.09874725 C24.39026667 250.25770056 24.39132317 252.41667024 24.39799118 254.57561684 C24.45505702 274.94418408 23.27570776 295.57652741 9.25 311.75390625 C-3.02394978 324.00654709 -18.35787966 328.824885 -35.4375 329.25 C-49.55175367 328.92176154 -62.18550017 325.68031583 -74.6875 319.25 C-75.28103271 318.9514209 -75.87456543 318.6528418 -76.48608398 318.34521484 C-82.31146014 315.21346443 -85.72914378 311.68520553 -91 307 C-91.33 341.32 -91.66 375.64 -92 411 C-107.84 411 -123.68 411 -140 411 C-140 273.39 -140 135.78 -140 -6 C-124.16 -6 -108.32 -6 -92 -6 C-91.505 3.405 -91.505 3.405 -91 13 C-89.80375 11.845 -88.6075 10.69 -87.375 9.5 C-64.09229518 -11.05426285 -26.86242943 -16.66196636 0 0 Z M-84 46 C-84.65265306 46.38717618 -85.30530611 46.77435237 -85.97773653 47.17326117 C-90.18367962 49.84394484 -90.18367962 49.84394484 -92.74505603 53.95705128 C-93.02897322 56.2845101 -93.06243532 58.49908978 -93.00914001 60.84338379 C-93.02091437 61.7222407 -93.03268873 62.60109761 -93.04481989 63.50658655 C-93.07434779 66.44627357 -93.04679957 69.38260043 -93.01928711 72.32226562 C-93.02849207 74.43163237 -93.04111526 76.54098656 -93.05690002 78.65031433 C-93.08910306 84.37578606 -93.07084327 90.10008092 -93.04167247 95.8255291 C-93.01769871 101.81652763 -93.03354622 107.80744151 -93.04335022 113.79846191 C-93.0533303 123.85948239 -93.03026071 133.92002917 -92.98803711 143.98095703 C-92.93965748 155.61353687 -92.94496192 167.24516382 -92.9787311 178.87777376 C-93.00984637 190.06704572 -93.00149355 201.25596218 -92.97564888 212.44523621 C-92.96543279 217.2075652 -92.96934133 221.96957434 -92.98463249 226.73188782 C-93.00095805 232.33996221 -92.98283647 237.94689442 -92.93810081 243.55480385 C-92.92724557 245.61310874 -92.92829721 247.67151588 -92.94210434 249.72980309 C-92.95899156 252.54002553 -92.93278462 255.34666344 -92.89561462 258.15661621 C-92.91054756 258.97160033 -92.92548049 259.78658444 -92.94086593 260.62626505 C-92.85680483 263.99912813 -92.70521525 266.14776288 -90.51057351 268.79993916 C-86.57334339 272.25591544 -82.18451331 274.87329432 -77.5 277.1875 C-76.81292969 277.52845703 -76.12585938 277.86941406 -75.41796875 278.22070312 C-63.65707267 283.7786403 -49.54164987 286.421463 -37 282 C-31.14543494 279.13860486 -27.30848896 276.03171806 -24.65625 270.02734375 C-22.99820558 264.90517081 -22.85365581 259.94613974 -22.85955811 254.60076904 C-22.85658698 253.75755167 -22.85361586 252.9143343 -22.8505547 252.04556489 C-22.84188651 249.22144724 -22.84036105 246.39737208 -22.83886719 243.57324219 C-22.8342377 241.54772349 -22.82921286 239.52220566 -22.82382202 237.49668884 C-22.81070891 231.99449032 -22.80425522 226.49230399 -22.79981136 220.99009228 C-22.79687896 217.55152154 -22.79277384 214.11295413 -22.78830719 210.67438507 C-22.77463531 199.91290418 -22.76496706 189.1514309 -22.7611053 178.38994193 C-22.75662477 165.97286279 -22.73907575 153.55589374 -22.7101047 141.13884807 C-22.68848054 131.53698525 -22.67840063 121.9351534 -22.67706418 112.3332665 C-22.67601671 106.60023468 -22.67012109 100.86730639 -22.65224457 95.13430023 C-22.63575121 89.74001217 -22.63361461 84.34590534 -22.64238358 78.95160103 C-22.64315326 76.97515184 -22.63882031 74.99869286 -22.62892532 73.0222683 C-22.61617903 70.31701968 -22.62209713 67.61241037 -22.63250732 64.90716553 C-22.62445092 64.1313654 -22.61639452 63.35556528 -22.60809398 62.55625606 C-22.67198083 55.42190481 -24.45034285 47.64785026 -29 42 C-45.03206875 29.94169188 -68.42186795 35.84034866 -84 46 Z " fill="#464446" transform="translate(510,11)"/>
<path d="M0 0 C12.42492258 11.60638882 18.07155466 27.2642811 19.68502808 43.85308838 C19.76849074 44.71002674 19.85195341 45.56696511 19.93794525 46.4498713 C20.95901 58.07689794 20.82555748 69.7241736 20.78955078 81.38574219 C20.78898534 83.97979223 20.78930581 86.5738426 20.79043579 89.16789246 C20.79147498 94.7098766 20.78530086 100.25181297 20.77396011 105.7937851 C20.75757497 113.80613836 20.75248394 121.81846896 20.74998413 129.83083716 C20.74562722 142.83629379 20.73237306 155.84172507 20.71337891 168.84716797 C20.69496785 181.46663284 20.68083706 194.08609078 20.67236328 206.70556641 C20.67183783 207.48589177 20.67131239 208.26621714 20.67077102 209.07018873 C20.66816059 212.98558674 20.66563326 216.9009848 20.66314721 220.81638288 C20.64247723 253.20182983 20.60564163 285.58722951 20.5625 317.97265625 C4.7225 317.97265625 -11.1175 317.97265625 -27.4375 317.97265625 C-27.7675 311.70265625 -28.0975 305.43265625 -28.4375 298.97265625 C-29.654375 300.12765625 -30.87125 301.28265625 -32.125 302.47265625 C-47.12893912 315.71832126 -65.67713265 322.71668539 -85.75390625 322.15625 C-102.16643615 321.03341317 -115.57720831 317.42768399 -127.125 305.28515625 C-139.43643149 290.50582961 -139.5574746 270.49174495 -139.82421875 252.25 C-139.84994556 250.61967381 -139.87572889 248.9893485 -139.90156555 247.35902405 C-139.95431866 243.94910574 -140.00324864 240.53915528 -140.05004883 237.12915039 C-140.11013997 232.80481409 -140.18448326 228.4808523 -140.26242352 224.15680599 C-140.32065247 220.78926574 -140.36864222 217.42163172 -140.414011 214.05389595 C-140.43708341 212.46218736 -140.46372602 210.87052562 -140.49432945 209.27894402 C-140.89665699 187.83168974 -139.02927361 166.52430727 -123.71484375 150.09765625 C-111.83913551 139.0163779 -94.99754585 133.52026336 -79.82421875 128.4765625 C-78.39290562 127.99399423 -76.96182393 127.51073903 -75.53096008 127.02684021 C-72.57065001 126.0276425 -69.60854569 125.03405199 -66.64477539 124.04516602 C-62.843533 122.77674603 -59.04592504 121.4978326 -55.24942303 120.21530247 C-52.31218433 119.22354824 -49.3738126 118.2351915 -46.4350071 117.24809074 C-45.03254298 116.77699346 -43.63027773 116.30530373 -42.22821617 115.83300972 C-40.28429328 115.17919595 -38.3390476 114.5294952 -36.39331055 113.88110352 C-34.73575996 113.32653221 -34.73575996 113.32653221 -33.04472351 112.76075745 C-30.4375 111.97265625 -30.4375 111.97265625 -28.4375 111.97265625 C-28.52224518 104.30490625 -28.61725786 96.63734006 -28.72502708 88.9698801 C-28.77476504 85.40875125 -28.821095 81.84764887 -28.859375 78.28637695 C-28.90363755 74.18292404 -28.96319303 70.07981214 -29.0234375 65.9765625 C-29.03498871 64.71058731 -29.04653992 63.44461212 -29.05844116 62.14027405 C-29.24843201 50.66065731 -30.4170794 41.16031076 -38.6875 32.66015625 C-45.66192124 28.38039776 -52.75189187 27.44315698 -60.8125 27.53515625 C-62.19405273 27.54542847 -62.19405273 27.54542847 -63.60351562 27.5559082 C-71.95412133 27.75287037 -78.64310982 29.06631484 -85.375 34.22265625 C-90.12482507 40.55575634 -92.51568942 46.55702595 -92.64282227 54.47558594 C-92.66276749 55.57642517 -92.68271271 56.6772644 -92.70326233 57.8114624 C-92.72833107 59.58508148 -92.72833107 59.58508148 -92.75390625 61.39453125 C-92.77468735 62.60965393 -92.79546844 63.82477661 -92.81687927 65.07672119 C-92.88226828 68.95864198 -92.94121051 72.84063045 -93 76.72265625 C-93.04319532 79.35417367 -93.08680994 81.98568424 -93.13085938 84.6171875 C-93.23872783 91.06894205 -93.33788118 97.52074792 -93.4375 103.97265625 C-108.6175 103.97265625 -123.7975 103.97265625 -139.4375 103.97265625 C-139.50077144 96.41523382 -139.5608323 88.85879559 -139.59275055 81.3013382 C-139.60845755 77.78044561 -139.62937105 74.25977701 -139.66381836 70.73901367 C-139.70327256 66.68015635 -139.71732153 62.6215285 -139.73046875 58.5625 C-139.74595261 57.32749252 -139.76143646 56.09248505 -139.77738953 54.8200531 C-139.78104436 35.46285485 -134.62505118 15.88282994 -121.3125 1.28515625 C-92.01234222 -26.0441389 -30.17833863 -25.1002528 0 0 Z M-46.42578125 160.05175781 C-48.33099759 160.74204425 -50.23755301 161.4286473 -52.14550781 162.11132812 C-73.9044458 168.96548668 -73.9044458 168.96548668 -89.71484375 184.2890625 C-93.88926808 193.78179255 -93.59490994 203.97888518 -93.60546875 214.19140625 C-93.60879715 215.32993042 -93.61212555 216.46845459 -93.61555481 217.64147949 C-93.62058948 220.03490803 -93.62296421 222.42834351 -93.62280273 224.82177734 C-93.62499361 228.46203226 -93.6431986 232.10198586 -93.66210938 235.7421875 C-93.66504324 238.07942606 -93.66702808 240.41666604 -93.66796875 242.75390625 C-93.67515427 243.83023315 -93.68233978 244.90656006 -93.68974304 246.01550293 C-93.66417258 254.55996979 -93.6197616 265.31743475 -87.4375 271.97265625 C-80.12330946 277.62322698 -72.35617157 277.95314446 -63.4375 276.97265625 C-50.60680627 274.87559663 -39.18679025 269.13884975 -28.4375 261.97265625 C-27.99192942 259.97365067 -27.99192942 259.97365067 -28.07673645 257.63204956 C-28.07261246 256.72057159 -28.06848846 255.80909363 -28.0642395 254.86999512 C-28.07502533 253.86730591 -28.08581116 252.8646167 -28.09692383 251.83154297 C-28.09648575 250.7778653 -28.09604767 249.72418762 -28.09559631 248.63858032 C-28.09769249 245.14298202 -28.12106297 241.64785864 -28.14453125 238.15234375 C-28.15012424 235.73381818 -28.15439574 233.31528921 -28.15739441 230.89675903 C-28.16886647 224.52128773 -28.19835408 218.14602041 -28.23150635 211.77062988 C-28.26215633 205.26898967 -28.27588889 198.76731659 -28.29101562 192.265625 C-28.32322141 179.50121489 -28.37387225 166.7369464 -28.4375 153.97265625 C-33.91490795 153.97265625 -41.25876447 158.17492532 -46.42578125 160.05175781 Z " fill="#454446" transform="translate(701.4375,18.02734375)"/>
<path d="M0 0 C6.29313987 5.4709716 10.78730202 11.19284513 14.671875 18.54296875 C14.98922607 19.11982422 15.30657715 19.69667969 15.63354492 20.29101562 C23.7614459 36.67925643 22.97569766 55.19669132 22.82745075 72.97941256 C22.80208514 76.54673886 22.8000679 80.11408545 22.79534912 83.68148804 C22.78302084 90.40650844 22.75034015 97.13126216 22.70995116 103.85616624 C22.65645716 112.9649417 22.63520576 122.07379244 22.61194229 131.18268585 C22.57456852 145.49047908 22.49481175 159.79771014 22.421875 174.10546875 C-14.538125 174.10546875 -51.498125 174.10546875 -89.578125 174.10546875 C-89.454375 187.28484375 -89.330625 200.46421875 -89.203125 214.04296875 C-89.16912598 218.18980225 -89.13512695 222.33663574 -89.10009766 226.60913086 C-89.06014618 230.35719948 -89.06014618 230.35719948 -89.01766968 234.10523987 C-89.00009444 235.76231097 -88.98624168 237.41942429 -88.97543335 239.07655334 C-88.95822375 241.60061275 -88.9288468 244.12428187 -88.89697266 246.64819336 C-88.89480051 247.37464774 -88.89262836 248.10110212 -88.8903904 248.84957027 C-88.75115248 257.49632956 -87.15558956 265.31082269 -81.578125 272.10546875 C-73.90519437 278.44397667 -65.79261884 278.46918753 -56.265625 278.48046875 C-55.18861328 278.50496094 -54.11160156 278.52945312 -53.00195312 278.5546875 C-45.25671149 278.58283496 -37.94016361 277.65093095 -31.74316406 272.61401367 C-24.97240865 265.44819438 -24.12869109 256.61247217 -24.06640625 247.1640625 C-24.04976929 246.26884888 -24.03313232 245.37363525 -24.01599121 244.45129395 C-23.95872492 241.14875099 -23.9260729 237.84581796 -23.890625 234.54296875 C-23.7875 227.13859375 -23.684375 219.73421875 -23.578125 212.10546875 C-8.398125 212.10546875 6.781875 212.10546875 22.421875 212.10546875 C22.49121081 219.23678511 22.55080497 226.3669046 22.58666992 233.49829102 C22.60164073 235.91792796 22.62202459 238.33753833 22.64819336 240.75708008 C22.91174144 265.7734769 21.05838791 287.69134778 3.171875 306.85546875 C-1.55585859 311.40661467 -6.65723891 314.34802752 -12.578125 317.10546875 C-13.35671875 317.48445313 -14.1353125 317.8634375 -14.9375 318.25390625 C-27.62031218 323.91435598 -41.4735282 324.60366416 -55.14160156 324.49658203 C-57.57674119 324.4804779 -60.0102221 324.49654735 -62.4453125 324.515625 C-85.02074425 324.54723209 -104.52639895 319.78103699 -121.62890625 304.2421875 C-133.78318266 291.65671724 -137.73710382 273.27666649 -137.71856689 256.34320068 C-137.72153802 255.48491236 -137.72450914 254.62662404 -137.7275703 253.74232697 C-137.73621174 250.8786637 -137.73776171 248.01504245 -137.73925781 245.15136719 C-137.74388944 243.09251823 -137.74891457 241.03367012 -137.75430298 238.974823 C-137.76740118 233.38736343 -137.77386764 227.79991587 -137.77831364 222.21244335 C-137.7812503 218.71448545 -137.78535636 215.21653079 -137.78981781 211.71857452 C-137.80348986 200.75418417 -137.8131563 189.78980126 -137.8170197 178.82540298 C-137.82149105 166.20752286 -137.83899724 153.58975157 -137.8680203 140.97190452 C-137.88971865 131.1957489 -137.89972842 121.41962371 -137.90106082 111.6434443 C-137.9021036 105.81622645 -137.90789765 99.98911094 -137.92588043 94.16191864 C-137.94250118 88.669081 -137.94444948 83.17642106 -137.93574142 77.68356705 C-137.93497831 75.6822906 -137.93921621 73.68100404 -137.94919968 71.67975235 C-138.06314299 47.38759435 -135.63497339 22.06669147 -118.328125 3.35546875 C-90.48467282 -22.50800461 -29.75834648 -23.46331165 0 0 Z M-82.76226807 37.91789246 C-90.04133226 46.687035 -89.10752328 58.30300517 -88.96875 69.0234375 C-88.96127449 70.73406813 -88.95558776 72.44470742 -88.95159912 74.15534973 C-88.93644569 78.62216518 -88.89725496 83.08844681 -88.8527832 87.55505371 C-88.80434583 92.93328066 -88.78624736 98.31168772 -88.76296997 103.69007111 C-88.72439572 111.82890639 -88.64767169 119.96657419 -88.578125 128.10546875 C-67.128125 128.10546875 -45.678125 128.10546875 -23.578125 128.10546875 C-23.49070477 115.42384787 -23.49070477 115.42384787 -23.43164062 102.7421875 C-23.41378524 97.56126558 -23.39278247 92.38050442 -23.35180664 87.19970703 C-23.31894046 83.01754762 -23.30121524 78.83556087 -23.29349327 74.65328217 C-23.28799823 73.06667111 -23.27726943 71.48006829 -23.26093483 69.8935318 C-22.95709416 52.76758596 -22.95709416 52.76758596 -29.92578125 37.5703125 C-42.63014865 26.30757545 -70.61614684 25.74974585 -82.76226807 37.91789246 Z " fill="#454446" transform="translate(317.578125,15.89453125)"/>
<path d="M0 0 C0.2093757 7.92805382 0.36885897 15.85493609 0.46630955 23.785079 C0.5131047 27.46831459 0.57646537 31.14964695 0.67895508 34.83178711 C0.77741084 38.39165207 0.83069031 41.94969818 0.85389519 45.51082039 C0.87839793 47.51697525 0.94855625 49.52240673 1.01966858 51.52745056 C1.02339753 58.33283952 0.57431783 62.24555903 -4.32055664 67.19946289 C-5.85067587 68.50201973 -7.40928387 69.77218024 -9 71 C-10.25443148 72.07819886 -11.50530357 73.16057726 -12.75 74.25 C-13.39453125 74.80171875 -14.0390625 75.3534375 -14.703125 75.921875 C-17.74568997 78.67467188 -20.61578399 81.58291075 -23.5 84.5 C-27.5091202 88.55465898 -31.55864512 92.43978159 -35.91015625 96.12890625 C-39.27496075 99.14150691 -42.40545188 102.38572042 -45.57836914 105.59790039 C-48.88340891 108.92798229 -52.29040425 112.04791658 -55.8671875 115.0859375 C-59.25832977 118.12927031 -62.43198307 121.38976874 -65.61328125 124.65039062 C-68.91024786 128.00481107 -72.34445728 131.03868498 -76 134 C-74.63578505 137.08865342 -73.1229872 139.07849356 -70.6484375 141.36328125 C-69.97031006 141.99500244 -69.29218262 142.62672363 -68.59350586 143.27758789 C-67.86139893 143.94910889 -67.12929199 144.62062988 -66.375 145.3125 C-64.82161038 146.75520381 -63.26822507 148.19791225 -61.71484375 149.640625 C-60.92577637 150.36958984 -60.13670898 151.09855469 -59.32373047 151.84960938 C-55.8446491 155.06916692 -52.39196117 158.31657924 -48.9375 161.5625 C-47.61349436 162.80361279 -46.28927532 164.04449799 -44.96484375 165.28515625 C-41.64276636 168.39760786 -38.32139325 171.51080921 -35.00048828 174.62451172 C-33.67220013 175.86980212 -32.34375091 177.11492074 -31.01513672 178.35986328 C-27.59134001 181.5683586 -24.17038318 184.77980407 -20.75390625 187.99609375 C-20.05201172 188.65609375 -19.35011719 189.31609375 -18.62695312 189.99609375 C-17.30570641 191.23859066 -15.98531183 192.48199471 -14.66601562 193.7265625 C-14.05564453 194.30019531 -13.44527344 194.87382812 -12.81640625 195.46484375 C-11.95952209 196.29156837 -11.95952209 196.29156837 -11.08532715 197.13499451 C-9.03780658 199.04802683 -9.03780658 199.04802683 -6.68945312 200.57557678 C-2.84769537 203.36260504 -0.37725279 205.47790217 0.78956604 210.18565369 C1.0402473 214.07016705 1.01443874 217.89630555 0.87890625 221.78125 C0.86209271 223.20467073 0.84929449 224.62814402 0.84031677 226.05163574 C0.80616309 229.77501536 0.71795928 233.49516913 0.61798096 237.21728516 C0.52544437 241.0246212 0.48471029 244.83248544 0.43945312 248.640625 C0.3433046 256.09521125 0.18997814 263.54715149 0 271 C-1.26135236 270.0739224 -2.51991779 269.14404836 -3.77734375 268.21264648 C-4.47851318 267.69524399 -5.17968262 267.17784149 -5.90209961 266.64476013 C-9.21030488 264.05111738 -12.08549456 261.08258254 -15 258.0625 C-19.24682812 253.73455459 -23.51344315 249.55685089 -28.14453125 245.63671875 C-31.16962078 242.96827135 -33.94951366 240.05802725 -36.78125 237.1875 C-38.79430632 235.20279658 -40.85446403 233.33903084 -43 231.5 C-46.79358733 228.24835372 -50.27392647 224.74286906 -53.78125 221.1875 C-55.79430632 219.20279658 -57.85446403 217.33903084 -60 215.5 C-63.79218759 212.24955349 -67.27135531 208.74550431 -70.77734375 205.19140625 C-73.4270144 202.57898932 -76.21172803 200.16697379 -79.03515625 197.74609375 C-81.81699148 195.27396582 -84.39375951 192.61569453 -87.00390625 189.96484375 C-88.92107177 188.07769256 -90.89575322 186.31314625 -92.9375 184.5625 C-96.74544329 181.29109667 -100.24564064 177.77163109 -103.76953125 174.19921875 C-106.40334881 171.60230231 -109.15361548 169.18420656 -111.98046875 166.80078125 C-112.64691406 166.20652344 -113.31335938 165.61226562 -114 165 C-115.51086182 163.7780896 -115.51086182 163.7780896 -117.05224609 162.53149414 C-121.08872441 158.44858821 -121.05319665 154.21685601 -121.18359375 148.6953125 C-121.2313369 147.20014603 -121.2313369 147.20014603 -121.28004456 145.67477417 C-121.33222505 143.56543087 -121.36732587 141.45560485 -121.38647461 139.34570312 C-121.43691932 136.16165261 -121.60974787 132.99946179 -121.78710938 129.8203125 C-122.0298728 121.3373244 -122.16578225 113.9025524 -116.39501953 107.20605469 C-112.91046031 103.72919548 -109.15033276 100.70826399 -105.21609497 97.75872803 C-102.16828459 95.33993749 -99.50023634 92.61959291 -96.80296326 89.82156372 C-95.02555528 88.02581892 -93.1785934 86.38086695 -91.25 84.75 C-87.6548326 81.66438388 -84.32662213 78.36802377 -81 75 C-77.17013262 71.12270392 -73.27948683 67.4375638 -69.125 63.90625 C-66.30606068 61.37749561 -63.66061163 58.69353999 -61 56 C-57.17011987 52.12272037 -53.27948698 48.43756394 -49.125 44.90625 C-45.75145836 41.8799847 -42.60796464 38.62789294 -39.42407227 35.40454102 C-36.0941767 32.04939106 -32.66068601 28.90274548 -29.05859375 25.83984375 C-25.93232451 23.04577769 -23.02034402 20.04121353 -20.07714844 17.05761719 C-16.77448513 13.72733579 -13.35686914 10.60663516 -9.78515625 7.5703125 C-7.97295431 5.97620926 -6.30059791 4.29866169 -4.625 2.5625 C-2 0 -2 0 0 0 Z " fill="#00B5D1" transform="translate(122,36)"/>
<path d="M0 0 C3.66434951 1.71025466 5.9345589 3.75997924 8.75 6.6875 C11.72656345 9.72924367 14.69396244 12.682165 17.9375 15.4375 C21.28925119 18.30172374 24.40556078 21.36334469 27.5 24.5 C30.55337618 27.59491872 33.62323708 30.61934297 36.9375 33.4375 C40.476791 36.45352827 43.73494445 39.69447901 47 43 C50.24451876 46.28467991 53.47922358 49.50734004 57 52.5 C61.0895362 55.97610577 64.8096054 59.78249656 68.578125 63.59765625 C71.30308001 66.34325486 74.05023473 68.99269952 77 71.5 C81.08874765 74.9754355 84.80816684 78.78100237 88.57592773 82.59545898 C91.9058233 85.95060894 95.33931399 89.09725452 98.94140625 92.16015625 C102.96760029 95.75851942 106.69212804 99.68279733 110.45233154 103.5554657 C112.01327001 105.07278205 112.01327001 105.07278205 113.99151611 106.43830872 C117.07941303 108.74589923 119.5403751 110.62214232 120.78613281 114.35665894 C121.12220054 117.11192205 121.213729 119.76722443 121.203125 122.54296875 C121.2202655 123.54781815 121.23740601 124.55266754 121.25506592 125.58796692 C121.27796213 127.70834349 121.28009569 129.8290341 121.26269531 131.94946289 C121.25008725 135.16524568 121.34369735 138.36612896 121.4453125 141.58007812 C121.64923784 158.39896587 121.64923784 158.39896587 115.82183838 164.73530579 C113.3379676 167.04369726 110.75657306 169.01973302 108 171 C106.59227909 172.21553413 105.19305433 173.44119701 103.8125 174.6875 C103.18988281 175.21730469 102.56726562 175.74710938 101.92578125 176.29296875 C98.88201025 178.990997 96.0741575 181.91797733 93.21875 184.8125 C90.59228878 187.40196881 87.83023542 189.78836964 85.03125 192.1875 C81.96025683 194.92777083 79.11213124 197.87946902 76.22265625 200.80859375 C73.5729856 203.42101068 70.78827197 205.83302621 67.96484375 208.25390625 C65.89179676 210.09615675 63.94564198 212.02401662 62 214 C59.44009866 216.59982183 56.8322046 219.06268398 54.0625 221.4375 C51.07198284 224.00665271 48.26883316 226.69317256 45.5 229.5 C42.13885518 232.9071879 38.66298797 236.07458174 35.03125 239.1875 C32.76361428 241.2109288 30.6342305 243.33653347 28.5 245.5 C25.14064061 248.90537801 21.66915817 252.07308546 18.03515625 255.1796875 C14.99402982 257.89977371 12.18783618 260.8392037 9.37109375 263.7890625 C7.41546301 265.61259956 5.52706696 267.10540857 3.35180664 268.63818359 C2.40936852 269.30435196 2.40936852 269.30435196 1.44789124 269.98397827 C0.97008713 270.31926544 0.49228302 270.65455261 0 271 C-0.27951153 262.84594294 -0.49196725 254.69392316 -0.62174606 246.53624249 C-0.6840759 242.74695487 -0.76840596 238.96097011 -0.90527344 235.17358398 C-1.03682624 231.50983275 -1.10763475 227.84923052 -1.13852692 224.18329811 C-1.16050115 222.79355092 -1.20341951 221.40395387 -1.26876068 220.01556969 C-1.54552117 213.88431096 -1.66910509 208.48872239 2.59918213 203.76083374 C5.53922769 200.90728488 8.73378021 198.46775046 12 196 C13.46131949 194.67122565 14.908924 193.32679325 16.328125 191.953125 C16.97402588 191.3439624 17.61992676 190.7347998 18.28540039 190.10717773 C18.93371826 189.49430908 19.58203613 188.88144043 20.25 188.25 C21.71211123 186.87095765 23.17435399 185.49205475 24.63671875 184.11328125 C25.36294434 183.42830566 26.08916992 182.74333008 26.83740234 182.03759766 C30.2401317 178.83154898 33.65087994 175.63408257 37.0625 172.4375 C38.04512817 171.51674683 38.04512817 171.51674683 39.04760742 170.57739258 C40.3689446 169.33931997 41.69031499 168.1012828 43.01171875 166.86328125 C45.01880167 164.98238036 47.0251411 163.10068968 49.03125 161.21875 C58.00776401 152.79845675 66.99853169 144.39361054 76 136 C74.41854247 131.87656779 71.41328094 129.41204173 68.1875 126.5625 C62.8407922 121.74423279 57.6935378 116.78021781 52.66674805 111.62915039 C49.91204831 108.82868109 47.09012847 106.17782678 44.11328125 103.61328125 C39.14630644 99.31843073 34.59507409 94.64575914 30 89.9609375 C29.34 89.29320313 28.68 88.62546875 28 87.9375 C27.4225 87.34839844 26.845 86.75929688 26.25 86.15234375 C21.65355265 81.75539498 16.92112329 77.63631332 11.75390625 73.92382812 C5.97388494 69.45041585 0.99040253 64.95640965 -0.83691406 57.65673828 C-1.90576231 48.98475458 -1.5463802 40.32667002 -1.09863281 31.62408447 C-0.93274857 28.05172222 -0.86142935 24.47747422 -0.78125 20.90234375 C-0.61138402 13.93036327 -0.33964124 6.96572611 0 0 Z " fill="#00B5D1" transform="translate(1078,36)"/>
</svg>
