<?xml version="1.0" encoding="UTF-8"?>
<svg version="1.1" xmlns="http://www.w3.org/2000/svg" width="280" height="280">
<path d="M0 0 C41.25 0 82.5 0 125 0 C125 0.66 125 1.32 125 2 C125.66 2 126.32 2 127 2 C131 8.75 131 8.75 131 11 C131.66 11 132.32 11 133 11 C134.12109375 12.40625 134.12109375 12.40625 135.4375 14.5 C138.415146 19.12454157 141.49837273 23.663117 144.625 28.1875 C145.99815554 30.17655097 147.3701588 32.16615739 148.73291016 34.16235352 C149.55583062 35.35582602 150.39336739 36.5393983 151.24755859 37.71069336 C152.23500132 39.09307041 153.12657888 40.54289842 154 42 C153.27566259 45.69412078 152.08819573 47.86770641 150 51 C149.34 51 148.68 51 148 51 C147.71125 51.7425 147.4225 52.485 147.125 53.25 C146.17697356 55.56739797 145.15154089 57.77917115 144 60 C143.34 60 142.68 60 142 60 C141.690625 60.78375 141.38125 61.5675 141.0625 62.375 C140 65 140 65 139 67 C138.34 67 137.68 67 137 67 C136.7525 67.69738281 136.505 68.39476562 136.25 69.11328125 C134.81837 72.41945177 133.01659434 75.20338521 131 78.1875 C130.29875 79.23292969 129.5975 80.27835937 128.875 81.35546875 C127 84 127 84 125 86 C122.80173302 86.24609566 122.80173302 86.24609566 120.01400757 86.24050903 C118.95948898 86.24325836 117.9049704 86.24600769 116.8184967 86.24884033 C115.65684494 86.24164978 114.49519318 86.23445923 113.29833984 86.22705078 C111.46910728 86.22748886 111.46910728 86.22748886 109.60292053 86.22793579 C106.25387612 86.22677908 102.90507661 86.21673108 99.55607557 86.20278788 C96.05803107 86.19030698 92.5599835 86.18911211 89.06192017 86.18673706 C82.43562769 86.1805145 75.80940101 86.16409324 69.18313754 86.14403808 C60.90075014 86.11951324 52.61835212 86.10854765 44.3359375 86.09765625 C29.55724038 86.07816214 14.77868688 86.03810031 0 86 C0 57.62 0 29.24 0 0 Z " fill="#000000" transform="translate(0,97)"/>
<path d="M0 0 C40.92 0 81.84 0 124 0 C124 28.38 124 56.76 124 86 C83.08 86 42.16 86 0 86 C0 57.62 0 29.24 0 0 Z " fill="#FD6B00" transform="translate(156,97)"/>
<path d="M0 0 C5.21613665 3.02535925 9.05620716 6.16862149 11 12 C11.68717338 20.29894003 11.13494698 26.16839813 5.75 32.75 C-0.37882005 37.76448913 -5.41599464 38.51387438 -13.19921875 38.28125 C-19.14149979 37.68453559 -22.61224121 34.7202143 -26.703125 30.6953125 C-30.76520064 25.38524976 -30.61155904 19.38843987 -30 13 C-28.75 9.625 -28.75 9.625 -27 7 C-26.484375 6.13375 -25.96875 5.2675 -25.4375 4.375 C-18.47956152 -2.4045298 -8.81562329 -3.75132906 0 0 Z " fill="#F7F7F7" transform="translate(105,122)"/>
<path d="M0 0 C1.8984375 1.265625 1.8984375 1.265625 2.82421875 3.203125 C2.8984375 5.265625 2.8984375 5.265625 1.90234375 6.96875 C0.56770833 8.40104167 -0.76692708 9.83333333 -2.1015625 11.265625 C-0.1215625 11.595625 1.8584375 11.925625 3.8984375 12.265625 C4.11509299 15.33190206 4.27303068 18.38289738 4.3984375 21.453125 C4.49898437 22.74959961 4.49898437 22.74959961 4.6015625 24.07226562 C4.68175905 26.68867804 4.64283485 28.75160232 3.8984375 31.265625 C-0.7829188 35.90022118 -6.48253286 37.41854531 -12.9140625 37.515625 C-20.47554016 37.42463249 -24.53198963 35.14859186 -29.8046875 29.9609375 C-34.01602019 24.45576163 -33.94258843 17.88226781 -33.1015625 11.265625 C-30.77771947 5.32158021 -26.72750797 1.39944366 -21.26953125 -1.8125 C-14.32759706 -4.76438553 -6.68049026 -2.65533682 0 0 Z " fill="#F5F5F5" transform="translate(61.1015625,122.734375)"/>
<path d="M0 0 C10.89 0 21.78 0 33 0 C33 3.63 33 7.26 33 11 C29.37 11 25.74 11 22 11 C22 20.24 22 29.48 22 39 C18.37 39 14.74 39 11 39 C11 29.76 11 20.52 11 11 C7.37 11 3.74 11 0 11 C0 7.37 0 3.74 0 0 Z " fill="#FFFAF7" transform="translate(213,121)"/>
<path d="M0 0 C3.63 0 7.26 0 11 0 C11 12.87 11 25.74 11 39 C7.37 39 3.74 39 0 39 C0 26.13 0 13.26 0 0 Z " fill="#FFFDFC" transform="translate(193,121)"/>
<path d="M0 0 C2.9375 1.375 2.9375 1.375 5 4 C5.7199028 7.47075091 5.69033927 10.52585361 5 14 C2.9375 17.125 2.9375 17.125 0 19 C-4.3766411 19.78154305 -6.21772362 19.51596953 -9.9375 17.0625 C-12.34599732 13.48624641 -12.74203371 11.39468093 -12.48046875 7.16015625 C-11.00249309 0.51527381 -6.12405519 -0.98422316 0 0 Z " fill="#050505" transform="translate(99,131)"/>
<path d="M0 0 C3.55769163 1.12001403 5.06137909 2.19361007 7.375 5.0625 C3.745 5.0625 0.115 5.0625 -3.625 5.0625 C-3.625 8.6925 -3.625 12.3225 -3.625 16.0625 C-0.985 16.0625 1.655 16.0625 4.375 16.0625 C4.375 17.0525 4.375 18.0425 4.375 19.0625 C1.23628812 20.63185594 -1.16355822 20.41451103 -4.625 20.0625 C-7.5625 18.1875 -7.5625 18.1875 -9.625 15.0625 C-10.51976432 10.92760428 -10.80575482 6.97083261 -8.515625 3.26953125 C-5.75454779 0.6197878 -3.77513781 0.06508858 0 0 Z " fill="#0C0C0C" transform="translate(49.625,129.9375)"/>
</svg>
