<?xml version="1.0" encoding="UTF-8"?>
<svg version="1.1" xmlns="http://www.w3.org/2000/svg" width="1200" height="1346">
<path d="M0 0 C10.24843085 8.87510678 15.57893892 20.55529256 16.55297852 34.08959961 C17.05050676 48.52425673 16.88991708 62.24126654 12.33203125 76.01953125 C11.96980469 77.12554688 11.60757812 78.2315625 11.234375 79.37109375 C6.59460378 92.29954102 0.09696265 104.70765587 -7.66796875 116.01953125 C-8.03116211 116.55255859 -8.39435547 117.08558594 -8.76855469 117.63476562 C-14.88121635 126.56200006 -21.50145808 134.91353583 -28.66796875 143.01953125 C-29.291875 143.73101318 -29.91578125 144.44249512 -30.55859375 145.17553711 C-36.43678035 151.80388846 -42.58837353 158.12614509 -48.85107422 164.38793945 C-50.5390473 166.07810471 -52.21882599 167.77613959 -53.8984375 169.47460938 C-59.80152481 175.40756454 -65.79559098 180.951218 -72.34960938 186.16674805 C-75.02020227 188.30102874 -77.49610903 190.54795955 -79.98046875 192.89453125 C-85.69348879 198.14499143 -91.72675962 202.88910264 -97.86523438 207.62402344 C-100.83586023 209.92360326 -103.78116721 212.25521394 -106.73046875 214.58203125 C-110.2478309 217.35261054 -113.7749151 220.10870119 -117.33203125 222.828125 C-117.92363037 223.28050537 -118.51522949 223.73288574 -119.12475586 224.19897461 C-120.75589088 225.44355203 -122.38958251 226.68477672 -124.0234375 227.92578125 C-124.89613281 228.61671875 -125.76882813 229.30765625 -126.66796875 230.01953125 C-127.21114243 230.41035385 -127.7543161 230.80117645 -128.31394958 231.20384216 C-130.44982843 234.06797586 -130.01089848 236.64083862 -129.97680664 240.16430664 C-129.97264488 241.2534713 -129.97264488 241.2534713 -129.96839905 242.36463928 C-129.96032008 243.94753345 -129.94522889 245.53040354 -129.9240284 247.11317635 C-129.89010977 249.65581035 -129.87453414 252.19799982 -129.86338806 254.74082947 C-129.83589539 260.18808441 -129.78371853 265.63497764 -129.73046875 271.08203125 C-129.66488864 278.15618446 -129.61058928 285.23029982 -129.578125 292.3046875 C-129.57203815 293.61351709 -129.57203815 293.61351709 -129.56582832 294.94878769 C-129.44556603 330.02355812 -132.2220956 365.37043674 -137.66796875 400.01953125 C-137.85166016 401.20691895 -138.03535156 402.39430664 -138.22460938 403.61767578 C-152.39380555 493.5695807 -187.20159726 582.04406335 -250.66796875 654.01953125 C-251.48652344 654.94894531 -252.30507813 655.87835937 -253.1484375 656.8359375 C-265.35832089 670.44664472 -278.19086368 683.81810027 -292.66796875 695.01953125 C-294.50469202 696.57804496 -296.33779832 698.14082771 -298.16796875 699.70703125 C-313.10839026 712.13177767 -329.1174613 722.87289634 -345.66796875 733.01953125 C-346.45075195 733.50518555 -347.23353516 733.99083984 -348.04003906 734.49121094 C-362.29937588 743.29319466 -377.38768142 750.21043759 -392.66796875 757.01953125 C-393.46380371 757.38030762 -394.25963867 757.74108398 -395.07958984 758.11279297 C-417.41292317 768.19626397 -441.7428467 774.99740738 -465.66796875 780.01953125 C-466.58271973 780.21240723 -467.4974707 780.4052832 -468.43994141 780.60400391 C-546.34128858 796.66599298 -628.05937798 789.19205386 -701.69433594 759.79980469 C-704.54753654 758.67179515 -707.42115358 757.59910796 -710.29296875 756.51953125 C-738.7684417 745.52087982 -764.26171901 730.26450576 -788.66796875 712.01953125 C-789.38726563 711.48183105 -790.1065625 710.94413086 -790.84765625 710.39013672 C-805.55347377 699.35081928 -819.85594193 687.96902439 -833.23779297 675.34814453 C-835.31630324 673.41723758 -837.46516641 671.56892028 -839.60546875 669.70703125 C-850.85375092 659.59088138 -860.59721382 648.08819078 -869.66796875 636.01953125 C-870.11205078 635.43768066 -870.55613281 634.85583008 -871.01367188 634.25634766 C-878.29012478 624.71581858 -884.7873137 614.77546764 -891.09130859 604.57128906 C-892.72142899 601.93300812 -894.3600195 599.3001303 -896 596.66796875 C-899.23940251 591.46207164 -902.45801908 586.24362919 -905.66796875 581.01953125 C-906.33602539 579.93551025 -906.33602539 579.93551025 -907.01757812 578.82958984 C-908.21934982 576.87554633 -909.41384212 574.91727389 -910.60546875 572.95703125 C-911.25386719 571.89355469 -911.90226563 570.83007812 -912.5703125 569.734375 C-915.54476408 564.64495785 -918.07031282 559.30755844 -920.66796875 554.01953125 C-921.70163574 554.01018555 -922.73530273 554.00083984 -923.80029297 553.99121094 C-961.85048497 553.59051365 -999.22966231 550.84888152 -1035.66796875 539.01953125 C-1036.68866455 538.70145508 -1036.68866455 538.70145508 -1037.72998047 538.37695312 C-1056.83920353 532.39555651 -1078.87467837 523.11403135 -1089.59375 505.15234375 C-1096.68440944 491.07416174 -1096.18626646 475.82477829 -1091.40869141 461.08886719 C-1085.81718954 445.46804654 -1076.79570085 432.04090109 -1066.66796875 419.01953125 C-1065.9925 418.148125 -1065.31703125 417.27671875 -1064.62109375 416.37890625 C-1053.62832261 402.57595302 -1041.14624967 389.31093227 -1027.75390625 377.82421875 C-1025.41771374 375.80301849 -1023.13832024 373.72574286 -1020.85546875 371.64453125 C-1007.50425623 359.61421494 -993.08605728 348.73266205 -978.66796875 338.01953125 C-977.60449219 337.15328125 -977.60449219 337.15328125 -976.51953125 336.26953125 C-974.66796875 335.01953125 -974.66796875 335.01953125 -971.66796875 335.01953125 C-971.61172816 339.25632228 -971.61184411 343.48893856 -971.65576172 347.72558594 C-971.66402441 349.27831065 -971.65740835 350.83117379 -971.63720703 352.38378906 C-971.47894388 365.99441973 -971.47894388 365.99441973 -974.0234375 370.328125 C-976.1128355 372.18586267 -978.28442532 373.55601427 -980.66796875 375.01953125 C-982.89446395 376.73009757 -985.09838309 378.45681887 -987.29296875 380.20703125 C-987.89044922 380.67351074 -988.48792969 381.13999023 -989.10351562 381.62060547 C-998.85698825 389.23565766 -1008.11622979 397.42916038 -1017.2265625 405.796875 C-1019.32196558 407.70452996 -1021.44901165 409.55689327 -1023.60546875 411.39453125 C-1042.15248239 427.58516201 -1064.5088661 450.74924464 -1066.6328125 476.4296875 C-1066.72389152 483.13917544 -1065.10669464 488.89792445 -1060.66796875 494.01953125 C-1049.94266004 503.44041052 -1034.36171705 506.00733666 -1020.66796875 508.01953125 C-1020.00458496 508.12394531 -1019.34120117 508.22835937 -1018.65771484 508.3359375 C-979.62260881 514.2393084 -937.2873451 509.95329359 -898.66796875 503.01953125 C-896.96568115 502.72054932 -896.96568115 502.72054932 -895.22900391 502.41552734 C-872.56955063 498.39275438 -850.2434231 493.03860965 -827.89831543 487.56506348 C-824.82527711 486.81341287 -821.75035915 486.06954298 -818.67578125 485.32421875 C-770.68222731 473.59705746 -723.44755579 458.84448198 -676.66796875 443.01953125 C-675.94105835 442.77400513 -675.21414795 442.528479 -674.46520996 442.2755127 C-659.86058338 437.34179387 -645.27894266 432.38123482 -630.90820312 426.79370117 C-625.22465673 424.58752808 -619.49927364 422.55334075 -613.73046875 420.58203125 C-605.55213448 417.77578769 -597.56576422 414.59611003 -589.58251953 411.27880859 C-584.45492137 409.15021814 -579.32037281 407.11150749 -574.10546875 405.20703125 C-562.79689781 401.05546463 -551.71897025 396.30695784 -540.60595703 391.66357422 C-537.34052317 390.29935796 -534.07268545 388.94101097 -530.80413818 387.58427429 C-507.16341774 377.76710506 -483.77569638 367.43028344 -460.52734375 356.71484375 C-456.68962604 354.94603482 -452.84618445 353.19092645 -448.99609375 351.44921875 C-437.13877773 346.07449464 -425.38033868 340.51419125 -413.66796875 334.83203125 C-412.64704636 334.33698593 -412.64704636 334.33698593 -411.60549927 333.8319397 C-404.12964611 330.20342826 -396.67686015 326.53248061 -389.25 322.8046875 C-383.6569078 319.99761272 -378.03360828 317.27492285 -372.35546875 314.64453125 C-364.43461875 310.92860682 -356.68854189 306.9426232 -348.96875 302.828125 C-343.81158783 300.08249215 -338.61861431 297.4084168 -333.42456055 294.73339844 C-324.06074992 289.91032089 -314.76839206 285.03971122 -305.67578125 279.72265625 C-302.57731321 277.96819902 -299.43146736 276.39091 -296.23046875 274.83203125 C-286.82694012 270.203732 -277.786106 264.93261596 -268.68798828 259.73681641 C-265.76005004 258.07189178 -262.82355108 256.42344166 -259.8828125 254.78125 C-246.27900157 247.17570469 -232.90330409 239.24953718 -219.66796875 231.01953125 C-218.37318604 230.21491455 -218.37318604 230.21491455 -217.05224609 229.39404297 C-204.75558404 221.72240811 -192.6653355 213.74357365 -180.60546875 205.70703125 C-179.90858948 205.24280762 -179.21171021 204.77858398 -178.49371338 204.30029297 C-169.4882186 198.29609806 -160.54633372 192.21025552 -151.66796875 186.01953125 C-150.81146729 185.42422607 -149.95496582 184.8289209 -149.07250977 184.21557617 C-100.48584282 150.59455062 -100.48584282 150.59455062 -55.37890625 112.54296875 C-52.74427416 110.09055905 -50.05758875 107.70957227 -47.35546875 105.33203125 C-43.08499939 101.48996884 -39.32478125 97.44153579 -35.66796875 93.01953125 C-34.60449219 91.78783203 -34.60449219 91.78783203 -33.51953125 90.53125 C-20.01505214 74.60702635 -11.10912759 58.20268789 -12.66796875 37.01953125 C-14.63246959 28.55080224 -18.11382938 22.19603929 -25.4609375 17.27734375 C-50.47640352 3.02074188 -82.51240124 7.28282764 -109.66796875 11.01953125 C-110.49296875 11.13119629 -111.31796875 11.24286133 -112.16796875 11.35791016 C-116.00688582 11.8802628 -119.83696837 12.44042654 -123.66796875 13.01953125 C-123.66796875 3.77953125 -123.66796875 -5.46046875 -123.66796875 -14.98046875 C-118.63197455 -16.41932424 -114.7022193 -17.33947584 -109.6171875 -17.83203125 C-108.96580811 -17.8960614 -108.31442871 -17.96009155 -107.64331055 -18.02606201 C-105.54809144 -18.22822025 -103.4521001 -18.41855523 -101.35546875 -18.60546875 C-100.635336 -18.67050598 -99.91520325 -18.73554321 -99.17324829 -18.80255127 C-66.13873264 -21.75146301 -27.36010324 -21.45327436 0 0 Z M-208.10546875 287.08203125 C-217.31953393 293.77626971 -227.14611177 299.56289037 -236.91796875 305.39453125 C-238.00754883 306.04647461 -239.09712891 306.69841797 -240.21972656 307.37011719 C-242.38051938 308.66300331 -244.54164152 309.95533921 -246.703125 311.24707031 C-250.61087737 313.58322662 -254.5147593 315.92579575 -258.41796875 318.26953125 C-264.66796875 322.01953125 -264.66796875 322.01953125 -267.4453125 323.3984375 C-270.37767443 325.5371549 -270.69904465 327.2111866 -271.48046875 330.70703125 C-271.71378906 331.70089844 -271.94710938 332.69476562 -272.1875 333.71875 C-272.34605469 334.47800781 -272.50460937 335.23726562 -272.66796875 336.01953125 C-273.415625 335.69597656 -274.16328125 335.37242187 -274.93359375 335.0390625 C-275.9184375 334.64074219 -276.90328125 334.24242187 -277.91796875 333.83203125 C-278.8925 333.42597656 -279.86703125 333.01992188 -280.87109375 332.6015625 C-283.7040401 331.68534311 -283.7040401 331.68534311 -286.02734375 333.40625 C-286.56875 333.93863281 -287.11015625 334.47101563 -287.66796875 335.01953125 C-286.04546934 335.85772283 -284.41988378 336.68994285 -282.79296875 337.51953125 C-281.88804687 337.98359375 -280.983125 338.44765625 -280.05078125 338.92578125 C-277.80200016 340.15858714 -277.80200016 340.15858714 -275.66796875 340.01953125 C-278.1637055 347.34552946 -281.04462509 354.2442829 -284.66796875 361.08203125 C-285.14363281 361.98252197 -285.61929687 362.8830127 -286.109375 363.81079102 C-309.62946502 407.50027939 -309.62946502 407.50027939 -324.66796875 415.01953125 C-324.87156403 412.29227099 -325.07472901 409.56497981 -325.27734375 406.83764648 C-325.45593563 404.43863889 -325.63564152 402.03971399 -325.81640625 399.64086914 C-326.30468356 393.11651794 -326.76541587 386.59213743 -327.17578125 380.0625 C-327.25844238 378.78922852 -327.34110352 377.51595703 -327.42626953 376.20410156 C-327.58577613 373.73126591 -327.73794999 371.25794495 -327.88232422 368.78417969 C-327.95596191 367.66430664 -328.02959961 366.54443359 -328.10546875 365.390625 C-328.16605469 364.3998999 -328.22664063 363.4091748 -328.2890625 362.38842773 C-328.4596979 359.83676951 -328.4596979 359.83676951 -330.66796875 358.01953125 C-332.64796875 359.00953125 -332.64796875 359.00953125 -334.66796875 360.01953125 C-334.57400818 360.98886597 -334.57400818 360.98886597 -334.47814941 361.9777832 C-333.8247684 368.72612749 -333.17672933 375.47496985 -332.53173828 382.22412109 C-332.2905855 384.74020236 -332.04808784 387.25615511 -331.80419922 389.77197266 C-331.45313395 393.39582601 -331.10696646 397.02011959 -330.76171875 400.64453125 C-330.65234985 401.76255127 -330.54298096 402.88057129 -330.43029785 404.0324707 C-328.94573013 419.75992738 -328.94573013 419.75992738 -330.8125 423.015625 C-331.36292969 423.49128906 -331.91335938 423.96695313 -332.48046875 424.45703125 C-333.13015625 425.03066406 -333.77984375 425.60429688 -334.44921875 426.1953125 C-335.5475 427.09830078 -335.5475 427.09830078 -336.66796875 428.01953125 C-337.42078125 428.67308594 -338.17359375 429.32664062 -338.94921875 430 C-355.67776378 444.1727951 -373.70553016 456.0399268 -393.66259766 465.08349609 C-395.65375486 466.01289672 -397.60222856 467.00391906 -399.5546875 468.01171875 C-421.42617565 479.01811922 -446.48628323 484.3723088 -470.66796875 487.01953125 C-471.50569824 487.11451904 -472.34342773 487.20950684 -473.20654297 487.30737305 C-480.86029135 488.09746911 -488.47764365 488.21242247 -496.16796875 488.20703125 C-496.82582367 488.20675934 -497.48367859 488.20648743 -498.16146851 488.20620728 C-513.13462375 488.17786148 -527.5456956 486.80197662 -542.24145508 483.98510742 C-545.48388505 483.36501412 -548.34545831 483.01953125 -551.66796875 483.01953125 C-551.7880127 482.43308838 -551.90805664 481.84664551 -552.03173828 481.24243164 C-552.68748963 478.95132803 -553.52567601 477.42421967 -554.84765625 475.453125 C-555.49927734 474.47762695 -555.49927734 474.47762695 -556.1640625 473.48242188 C-556.61910156 472.81404297 -557.07414063 472.14566406 -557.54296875 471.45703125 C-557.99027344 470.78478516 -558.43757812 470.11253906 -558.8984375 469.41992188 C-560.97260614 466.33926138 -562.97149172 463.59237495 -565.66796875 461.01953125 C-566.65796875 461.67953125 -567.64796875 462.33953125 -568.66796875 463.01953125 C-567.29718127 466.86324689 -565.51267093 469.85787108 -563.10546875 473.14453125 C-561.12445013 475.85453178 -559.73335252 477.82337995 -558.66796875 481.01953125 C-559.50980713 480.71136475 -560.35164551 480.40319824 -561.21899414 480.08569336 C-564.36628157 478.94199333 -567.517962 477.81253374 -570.67358398 476.69213867 C-572.03430613 476.20583192 -573.39308444 475.71404813 -574.74975586 475.21655273 C-576.70842946 474.49940342 -578.67341652 473.80271576 -580.640625 473.109375 C-581.81890869 472.68519287 -582.99719238 472.26101074 -584.21118164 471.82397461 C-589.98422937 470.48050457 -594.79595281 471.87048974 -600.24609375 473.8828125 C-601.30626709 474.26896729 -602.36644043 474.65512207 -603.45874023 475.05297852 C-605.17105835 475.68610962 -605.17105835 475.68610962 -606.91796875 476.33203125 C-609.4342419 477.2453551 -611.95105208 478.15703313 -614.46875 479.06640625 C-615.12823135 479.30516983 -615.78771271 479.54393341 -616.46717834 479.78993225 C-639.01135949 487.93645007 -661.74213613 495.51300076 -684.69519043 502.42443848 C-686.77187128 503.05087367 -688.84744349 503.68088492 -690.92285156 504.31152344 C-714.05369495 511.33400133 -737.29920826 517.83786276 -760.66796875 524.01953125 C-761.8079834 524.32181641 -762.94799805 524.62410156 -764.12255859 524.93554688 C-769.3015296 526.30787184 -774.48255635 527.67174964 -779.66796875 529.01953125 C-778.38193657 535.5146433 -776.55818768 541.40248001 -774.04296875 547.51953125 C-773.6881543 548.38900391 -773.33333984 549.25847656 -772.96777344 550.15429688 C-757.26430738 588.22582996 -733.17187017 623.21401387 -701.66796875 650.01953125 C-700.73339844 650.84195312 -699.79882812 651.664375 -698.8359375 652.51171875 C-685.38856538 664.25148806 -670.84471183 674.64351449 -655.66796875 684.01953125 C-654.61609375 684.68210937 -653.56421875 685.3446875 -652.48046875 686.02734375 C-649.2294611 688.05922353 -645.95331917 690.0437261 -642.66796875 692.01953125 C-641.56195312 692.7053125 -640.4559375 693.39109375 -639.31640625 694.09765625 C-579.45937167 730.2469005 -504.78849257 739.76114434 -437.34375 723.77734375 C-399.22374126 714.29729097 -363.86489228 694.97645587 -335.1171875 668.28515625 C-332.98409008 666.31195608 -330.81437888 664.40658422 -328.60546875 662.51953125 C-321.01648184 655.8907835 -314.21745212 648.72234227 -307.9375 640.84765625 C-305.63393552 637.97712151 -303.24967327 635.18967911 -300.85546875 632.39453125 C-287.19695238 616.0043116 -275.97691646 597.68892539 -265.75927734 579.00537109 C-264.7076497 577.09173815 -263.63629695 575.19031769 -262.5625 573.2890625 C-257.44842225 564.084426 -253.15502184 554.551959 -248.98046875 544.89453125 C-248.71028931 544.26971863 -248.44010986 543.64490601 -248.16174316 543.00115967 C-221.76578906 481.76777307 -207.80642383 417.35392716 -202.66796875 351.01953125 C-202.57008057 349.84890137 -202.47219238 348.67827148 -202.37133789 347.47216797 C-201.40386174 334.49930837 -201.55744913 321.52107112 -201.60546875 308.51953125 C-201.61049579 306.13541761 -201.61505656 303.75130294 -201.61914062 301.3671875 C-201.63004621 295.58461254 -201.6466881 289.80207686 -201.66796875 284.01953125 C-204.54463242 284.01953125 -205.79120995 285.39725085 -208.10546875 287.08203125 Z " fill="#0F355C" transform="translate(1120.66796875,540.98046875)"/>
<path d="M0 0 C111.54 0 223.08 0 338 0 C338 13.86 338 27.72 338 42 C332.47759739 43.84080087 327.28518643 45.49240204 321.6875 46.875 C303.05902802 51.73582301 287.64309971 61.30073502 277.53125 78.03125 C268.08112234 96.35292608 266.85711429 120.63291352 266.38407898 140.90463257 C266.36562417 141.6107063 266.34716935 142.31678003 266.3281553 143.04424994 C265.78308606 164.02515424 265.85013856 185.01596604 265.85461628 206.00226545 C265.85482353 212.08550199 265.84927149 218.16873404 265.84455872 224.25196838 C265.83632291 236.11999959 265.8334941 247.98802706 265.83294634 259.85606052 C265.83248356 269.51315538 265.83040861 279.17024865 265.82724571 288.82734299 C265.82634795 291.6252735 265.82545813 294.42320402 265.82457083 297.22113454 C265.82434979 297.91702941 265.82412874 298.61292428 265.82390099 299.32990688 C265.81776484 318.84781977 265.81379863 338.36573211 265.81424427 357.88364601 C265.81425985 358.61647319 265.81427543 359.34930037 265.81429148 360.10433443 C265.81437456 363.81713581 265.8144736 367.52993718 265.81457619 371.24273856 C265.81459613 371.97988934 265.81461608 372.71704013 265.81463663 373.47652881 C265.81467706 374.96721627 265.81471886 376.45790373 265.81476202 377.94859119 C265.81537496 401.14867643 265.80785717 424.34874706 265.79418945 447.54882812 C265.77877985 473.71534805 265.77022599 499.88185838 265.77115268 526.04838312 C265.77122729 528.84568493 265.77127601 531.64298673 265.77130699 534.44028854 C265.77131865 535.12887469 265.7713303 535.81746083 265.77134231 536.52691322 C265.77137287 547.5298143 265.76503237 558.5327025 265.75637473 569.53559977 C265.74783755 580.61534117 265.74712485 591.69506634 265.75348405 602.77480961 C265.75672283 608.75761427 265.7569028 614.74037301 265.7481308 620.72317314 C265.71562137 644.37565426 265.87399896 667.88493156 267.73389471 691.47354198 C268.22470246 697.97778285 268.60655597 704.48925583 269 711 C224.93793918 723.88012632 181.42336385 735.39831555 135.875 741.75 C134.51532104 741.94166748 134.51532104 741.94166748 133.12817383 742.13720703 C132.27892334 742.25177246 131.42967285 742.36633789 130.5546875 742.484375 C129.81718262 742.58459961 129.07967773 742.68482422 128.31982422 742.78808594 C125.53836182 743.04217027 122.79143002 743.03312972 120 743 C100.64271355 689.70140623 96.54786587 637.38519546 96.49388909 581.08450484 C96.48525532 575.00653923 96.46297273 568.92863516 96.44127061 562.85070471 C96.39509105 549.76439135 96.36528195 536.67808168 96.342514 523.591709 C96.32259475 512.20580977 96.29565099 500.81995024 96.26245117 489.43408203 C96.26025275 488.67712777 96.25805433 487.92017351 96.25578929 487.14028125 C96.24687557 484.07211912 96.23794688 481.00395704 96.22899181 477.93579503 C96.04969837 416.3156546 95.97568359 354.69545134 95.98031995 293.07506183 C95.98046827 291.05735137 95.98058382 289.03964092 95.98069406 287.02193046 C95.98229272 260.50777552 95.99156582 233.99365063 96.02720356 207.47951794 C96.03790784 199.44216669 96.04551882 191.40481335 96.0523147 183.36745793 C96.05795763 177.08358581 96.06808182 170.79974405 96.08204287 164.51588517 C96.0894888 160.70715397 96.0927365 156.89842739 96.09485757 153.08968985 C96.09667659 151.36461533 96.10020717 149.63954147 96.10573542 147.91447484 C96.19897836 117.99007308 95.54476789 87.1143721 73.9765625 63.7734375 C70.03985134 60.24128954 65.57745774 57.61377528 61 55 C60.37738281 54.62101562 59.75476563 54.24203125 59.11328125 53.8515625 C42.0315868 44.25510494 18.46849249 42.91607776 0 40 C0 26.8 0 13.6 0 0 Z " fill="#0F355C" transform="translate(57,299)"/>
<path d="M0 0 C80.85 0 161.7 0 245 0 C245 14.85 245 29.7 245 45 C241.4525 45.4125 237.905 45.825 234.25 46.25 C225.78604131 47.32650182 217.85020735 48.50511743 210 52 C209.3807666 52.27473145 208.7615332 52.54946289 208.12353516 52.83251953 C199.14246011 56.88592508 191.41680383 61.43494926 184 68 C183.01386719 68.77730469 182.02773438 69.55460937 181.01171875 70.35546875 C169.0195503 80.33946099 162.60855212 96.86023121 161 112 C160.5300009 120.60860797 160.69974969 129.24111043 160.78714585 137.8582319 C160.81896292 141.34892975 160.83251016 144.83970276 160.84779358 148.33050537 C160.87236657 153.58599614 160.90260401 158.84140276 160.93964842 164.09682056 C161.01234936 174.41858895 161.04734444 184.74018972 161.06903076 195.06217957 C161.07264546 196.69221734 161.076282 198.32225506 161.07994008 199.95229274 C161.0854524 202.42141993 161.09094233 204.89054715 161.09634365 207.35967458 C161.11679226 216.64043066 161.14134405 225.92117114 161.17041016 235.2019043 C161.1730507 236.04910511 161.17569125 236.89630592 161.17841181 237.76917949 C161.22268394 251.51930419 161.31117829 265.26885439 161.41308001 279.01865677 C161.51660432 293.16474424 161.56275985 307.31024511 161.55834937 321.45671195 C161.55763424 330.16875993 161.60281143 338.87810024 161.70759109 347.58952924 C161.77528358 353.55621063 161.78798895 359.5214316 161.75781128 365.48841427 C161.74209562 368.92839474 161.75050828 372.36376776 161.82508278 375.80307579 C162.19270122 395.92618371 162.19270122 395.92618371 158.5330286 401.05645919 C155.07107044 404.36012851 151.2237167 406.41540804 146.82243299 408.21503389 C144.17572179 409.35503663 141.87124133 410.92811324 139.49609375 412.546875 C137.81091438 413.61619019 136.12470911 414.68389028 134.4375 415.75 C133.52129883 416.33144775 132.60509766 416.91289551 131.66113281 417.51196289 C127.78497633 419.97167915 123.90612309 422.42710885 120.02587891 424.88037109 C118.05190989 426.12864003 116.07851522 427.37781769 114.10571289 428.62792969 C112.26638882 429.7934482 110.42582548 430.95701446 108.58374023 432.11816406 C103.29101963 435.47322263 98.16474208 438.97994017 93.12011719 442.69946289 C91 444 91 444 88 444 C87.99940291 443.29473 87.99880582 442.58946 87.99819064 441.86281818 C87.96226588 400.02607806 87.90557961 358.18941065 87.82207905 316.35273713 C87.81206207 311.32492074 87.80221786 306.29710404 87.79248047 301.26928711 C87.7905391 300.2683752 87.78859772 299.2674633 87.78659752 298.23622072 C87.75560985 282.04770873 87.7386059 265.8592109 87.72680578 249.67067485 C87.71437746 233.04920972 87.68683815 216.42781869 87.64538693 199.80640036 C87.62029964 189.55712925 87.60687924 179.30798112 87.60857043 169.05867887 C87.60860027 162.02221832 87.59389987 154.98588266 87.56783572 147.94947081 C87.55324528 143.8949759 87.54493879 139.84073708 87.55419731 135.78622055 C87.56255254 132.06403928 87.55214511 128.34237003 87.52766338 124.62026424 C87.51939189 122.65698276 87.53044158 120.69364808 87.54249835 118.7303862 C87.35913549 99.50467955 80.39105848 82.53524909 66.83984375 68.8125 C49.64370287 52.79916246 27.10208395 46.88828743 4.18359375 46.17578125 C1 46 1 46 0 45 C0 30.15 0 15.3 0 0 Z " fill="#0F355C" transform="translate(831,299)"/>
<path d="M0 0 C-1.57189535 3.75508333 -3.94478098 6.20927235 -6.75 9.125 C-24.14918837 27.87216628 -30.21306202 55.64292019 -34.52810669 80.14630127 C-35.33979644 84.73235101 -36.19824056 89.30958577 -37.05859375 93.88671875 C-37.30880531 95.21860229 -37.30880531 95.21860229 -37.56407166 96.57739258 C-42.90626733 124.73294342 -51.52947067 148.46781245 -72 169 C-72.6084375 169.63164062 -73.216875 170.26328125 -73.84375 170.9140625 C-88.48246519 184.95392116 -114.23831654 198.23130832 -134.625 199.6875 C-135.46289062 199.75324219 -136.30078125 199.81898438 -137.1640625 199.88671875 C-138.07285156 199.94279297 -138.07285156 199.94279297 -139 200 C-138.5027552 194.48744127 -136.41625126 190.81408702 -133.625 186.1875 C-127.09459575 174.97040477 -124.82255903 165.26638399 -124.8125 152.25 C-124.80025391 151.40050781 -124.78800781 150.55101562 -124.77539062 149.67578125 C-124.77345703 148.85980469 -124.77152344 148.04382813 -124.76953125 147.203125 C-124.76542236 146.46739258 -124.76131348 145.73166016 -124.75708008 144.97363281 C-124.88957018 142.6793345 -124.88957018 142.6793345 -127 140 C-131.65093406 141.8115057 -131.65093406 141.8115057 -135.91796875 144.359375 C-149.29691914 153.81480807 -168.40440417 154.42379419 -184.14013672 156.55566406 C-197.27943148 158.37666339 -208.27206577 161.64585606 -220 168 C-220.72960937 168.30679688 -221.45921875 168.61359375 -222.2109375 168.9296875 C-224.54578139 170.3265155 -224.97626445 171.49033606 -226 174 C-226.43957031 174.96550781 -226.87914062 175.93101562 -227.33203125 176.92578125 C-231.06940251 185.47538781 -234.18484696 194.10610942 -237 203 C-251.57027679 202.94052948 -263.12522392 196.22371518 -274 187 C-274.72832031 186.38511719 -275.45664062 185.77023438 -276.20703125 185.13671875 C-285.48213336 176.59338012 -291.91954757 164.81528595 -296 153 C-296.36351562 151.94941406 -296.72703125 150.89882812 -297.1015625 149.81640625 C-300.12136242 136.98882138 -299.38870957 122.61122612 -293 111 C-292.33097656 109.77990234 -292.33097656 109.77990234 -291.6484375 108.53515625 C-281.02686386 91.17867419 -262.80939773 83.22356702 -244.5 76.375 C-243.72897949 76.0855249 -242.95795898 75.7960498 -242.16357422 75.49780273 C-231.93083918 71.7512562 -221.92351798 69.57004167 -211.125 68.1875 C-191.37798334 65.45212931 -171.38022845 60.86266545 -155 49 C-149.38769231 45 -149.38769231 45 -146 45 C-141.75902104 54.99659326 -141.78295466 64.46866448 -145.5234375 74.640625 C-149.37145624 83.39537663 -154.00658254 91.84780728 -159 100 C-130.98894165 98.64321436 -110.63183869 74.05253394 -92.375 55.375 C-77.30290695 39.95699006 -62.56417531 26.13193213 -44 15 C-42.95537598 14.36698975 -42.95537598 14.36698975 -41.88964844 13.72119141 C-29.17534992 6.08867946 -15.35716534 -1.66123183 0 0 Z " fill="#0F355C" transform="translate(802,0)"/>
<path d="M0 0 C7.63556088 2.28314143 14.69726136 5.53135054 21.87042236 8.95193481 C24.69499496 10.29866721 27.52502052 11.6337599 30.35467529 12.96977234 C31.79900234 13.65189711 33.24305327 14.33460684 34.68682861 15.01789856 C48.89980376 21.74358406 63.12818142 28.45860362 77.62768555 34.54711914 C81.10261383 36.04420871 84.52806961 37.62267069 87.953125 39.23046875 C89.28208478 39.85323763 90.61110675 40.47587383 91.94018555 41.09838867 C92.9507753 41.57216446 92.9507753 41.57216446 93.98178101 42.05551147 C96.54208226 43.2536843 99.10568705 44.44465064 101.6698761 45.63447571 C104.17395772 46.79641563 106.67693509 47.9607249 109.17993164 49.125 C110.4364497 49.70901773 111.69328676 50.29234964 112.95043945 50.875 C116.68150607 52.60467827 120.4041497 54.35076652 124.11907959 56.11483765 C126.07489176 57.03524411 128.04034278 57.93290065 130.00634766 58.83129883 C131.28981109 59.43481073 132.57286639 60.03919151 133.85546875 60.64453125 C135.0055542 61.17667236 136.15563965 61.70881348 137.34057617 62.25708008 C140 64 140 64 141.01977539 66.41601562 C141.25 68.6875 141.25 68.6875 141.078125 70.88671875 C140.98199213 73.48711291 141.61484365 74.82264806 143 77 C143.66 77.33 144.32 77.66 145 78 C144.38473908 82.45221344 142.63255154 86.05575408 140.5625 89.984375 C140.21073196 90.66420441 139.85896393 91.34403381 139.49653625 92.04446411 C138.33676988 94.28267848 137.16837376 96.51626853 136 98.75 C135.18320383 100.3227503 134.36705107 101.89583489 133.55151367 103.46923828 C131.86702041 106.71759044 130.1795075 109.96434627 128.48974609 113.20996094 C125.09310051 119.73849736 121.72948505 126.28396166 118.36474609 132.82897949 C112.15797113 144.89762859 105.92584153 156.95317782 99.68530273 169.00439453 C96.26736068 175.60728885 92.85897224 182.21496218 89.4609375 188.828125 C88.68946086 190.32878002 87.91797652 191.82943108 87.14648438 193.33007812 C85.66960942 196.20295081 84.19463348 199.07678759 82.72070312 201.95117188 C81.40299705 204.5189296 80.07812139 207.08272984 78.74511719 209.64257812 C77.6747272 211.70189585 76.61540913 213.76707294 75.57519531 215.84179688 C75.16108398 216.64166016 74.74697266 217.44152344 74.3203125 218.265625 C73.81781982 219.25997559 73.81781982 219.25997559 73.30517578 220.27441406 C69.41536312 225.41717424 61.64379922 227.34182094 55.875 229.6875 C54.87339844 230.10322266 53.87179687 230.51894531 52.83984375 230.94726562 C51.87949219 231.33978516 50.91914062 231.73230469 49.9296875 232.13671875 C49.05554199 232.49467529 48.18139648 232.85263184 47.28076172 233.22143555 C45 234 45 234 42 234 C40.49767888 231.92597105 39.21886878 229.89586237 37.9375 227.6875 C33.56024567 220.4078622 28.92930291 213.32056256 24.19165039 206.27282715 C18.61101682 197.97047708 13.07083665 189.6579284 7.8293457 181.13574219 C3.89557877 174.76670718 -0.20836019 168.51010986 -4.3125 162.25 C-4.68073883 161.6882608 -5.04897766 161.12652161 -5.42837524 160.54776001 C-7.26315649 157.7493152 -9.09852671 154.95125749 -10.93408203 152.15332031 C-13.88377576 147.65104612 -16.81876628 143.13930733 -19.75 138.625 C-20.27053955 137.82352539 -20.7910791 137.02205078 -21.32739258 136.19628906 C-22.3648522 134.59870171 -23.40220668 133.00104608 -24.43945312 131.40332031 C-26.5814281 128.10457162 -28.72494662 124.80682818 -30.86914062 121.50952148 C-31.94704069 119.85087855 -33.02388291 118.19154761 -34.09960938 116.53149414 C-36.9328864 112.16208747 -39.78705899 107.80823985 -42.671875 103.47265625 C-43.27064453 102.56708984 -43.86941406 101.66152344 -44.48632812 100.72851562 C-45.63480471 98.99244637 -46.78945481 97.26044033 -47.95117188 95.53320312 C-48.46744141 94.75009766 -48.98371094 93.96699219 -49.515625 93.16015625 C-49.97227539 92.47574463 -50.42892578 91.79133301 -50.89941406 91.08618164 C-52.231517 88.5611551 -52.83096789 86.86937859 -53 84 C-52.11734071 81.4598801 -51.18462735 79.20826488 -50.01953125 76.8046875 C-49.69538239 76.1078183 -49.37123352 75.4109491 -49.03726196 74.69296265 C-47.97447487 72.41440079 -46.89344366 70.14499654 -45.8125 67.875 C-45.07339052 66.29727965 -44.33585414 64.71882145 -43.59985352 63.13964844 C-42.48168365 60.74062406 -41.36271445 58.34202518 -40.23881531 55.94567871 C-36.86948835 48.75755983 -33.6357977 41.51572642 -30.4375 34.25 C-26.40047277 25.11328623 -22.29113262 16.02044427 -18 7 C-16.77023437 7.03738281 -15.54046875 7.07476563 -14.2734375 7.11328125 C-10.94610987 7.11108161 -8.59341967 6.80498582 -5.625 5.1875 C-4.97789062 4.85105469 -4.33078125 4.51460937 -3.6640625 4.16796875 C-1.69609191 2.93670441 -1.69609191 2.93670441 0 0 Z " fill="#0F355C" transform="translate(478,713)"/>
<path d="M0 0 C29.44290044 -0.02305187 58.88580057 -0.04063062 88.32870816 -0.05106533 C91.84275532 -0.05231532 95.35680247 -0.05360971 98.87084961 -0.05493164 C99.57013022 -0.05519395 100.26941084 -0.05545626 100.98988178 -0.05572652 C112.15974988 -0.06002119 123.32961259 -0.06787261 134.49947754 -0.0771528 C146.04961886 -0.08666542 157.59975745 -0.09209178 169.14990252 -0.09408849 C175.59997404 -0.09536649 182.05003352 -0.0982587 188.50010109 -0.10573006 C225.01240113 -0.14640052 261.49612714 0.26358754 298 1 C298.92027302 4.4154124 299.12901144 7.43217717 299.1328125 10.98046875 C299.13410156 12.14513672 299.13539063 13.30980469 299.13671875 14.50976562 C299.13285156 15.72341797 299.12898438 16.93707031 299.125 18.1875 C299.12886719 19.38181641 299.13273437 20.57613281 299.13671875 21.80664062 C299.11805364 38.76389272 299.11805364 38.76389272 297 43 C295.12988281 43.36303711 295.12988281 43.36303711 292.703125 43.52734375 C291.8265625 43.59759766 290.95 43.66785156 290.046875 43.74023438 C288.19811136 43.87062902 286.34915207 43.99828164 284.5 44.12304688 C278.60557085 44.60132292 274.61662969 45.27695235 270.3671875 49.69921875 C263.48720593 58.86652404 257.08574952 68.37822249 250.71875 77.90625 C244.96527671 86.47764814 239.30843307 94.65992869 232 102 C231.48695313 102.556875 230.97390625 103.11375 230.4453125 103.6875 C227.37555551 106.47517121 223.91880658 106.12977248 219.99848938 106.14044189 C218.74380356 106.14615204 217.48911774 106.15186218 216.19641113 106.15774536 C214.80322276 106.15899072 213.41003427 106.16011582 212.0168457 106.16113281 C210.55156835 106.16576153 209.0862922 106.17078626 207.62101746 106.17617798 C203.63731438 106.1893013 199.65362817 106.19574714 195.66990685 106.20018864 C193.17979407 106.20312028 190.68968589 106.20722532 188.19957542 106.21169281 C180.40517203 106.22536934 172.61077915 106.23503448 164.81636459 106.2388947 C155.82571783 106.24337198 146.83522337 106.26090385 137.84462291 106.2898953 C130.89162553 106.31153583 123.93867092 106.32160029 116.98564023 106.32293582 C112.8348783 106.32398241 108.6842595 106.3298588 104.5335331 106.34775543 C100.62567883 106.36427656 96.71807465 106.36637214 92.81019783 106.35761642 C91.37998534 106.35684813 89.94975918 106.36116132 88.51958084 106.37107468 C71.79941268 106.48012449 71.79941268 106.48012449 66.37801075 101.51431656 C64.76405439 99.76512468 63.38825011 97.93376008 62 96 C61.40509766 95.17612793 60.81019531 94.35225586 60.19726562 93.50341797 C58.18705408 90.66645866 56.21512054 87.80585678 54.25 84.9375 C52.82735376 82.87853936 51.40417808 80.81994444 49.98046875 78.76171875 C49.29645996 77.77091309 48.61245117 76.78010742 47.90771484 75.75927734 C36.29814279 56.94384008 36.29814279 56.94384008 20 43 C18.56486753 42.86094858 17.12435839 42.77476567 15.68359375 42.71875 C14.83732422 42.68136719 13.99105469 42.64398438 13.11914062 42.60546875 C11.32747998 42.53500285 9.53581328 42.46469102 7.74414062 42.39453125 C6.89916016 42.35714844 6.05417969 42.31976563 5.18359375 42.28125 C4.40556396 42.25095703 3.62753418 42.22066406 2.82592773 42.18945312 C1 42 1 42 0 41 C-0.08871273 37.97022196 -0.1151935 34.96332978 -0.09765625 31.93359375 C-0.0962413 31.02497086 -0.09482635 30.11634796 -0.09336853 29.18019104 C-0.08775193 26.26592779 -0.07519665 23.35174019 -0.0625 20.4375 C-0.05748714 18.46679798 -0.05292386 16.49609476 -0.04882812 14.52539062 C-0.03777711 9.68356441 -0.02050138 4.84179505 0 0 Z " fill="#0F355C" transform="translate(469,222)"/>
<path d="M0 0 C-0.91053004 4.04075199 -2.62858591 7.51596379 -4.5 11.1875 C-4.85384766 11.88875 -5.20769531 12.59 -5.57226562 13.3125 C-8.5203334 19.12602769 -11.57161311 24.88313707 -14.63818359 30.63476562 C-17.20074879 35.45349038 -19.68735593 40.30450904 -22.125 45.1875 C-22.45516113 45.8379126 -22.78532227 46.4883252 -23.12548828 47.15844727 C-24.77277112 50.42480885 -26.31130711 53.69428804 -27.703125 57.078125 C-29.2029772 60.61048719 -30.71043868 63.89140861 -33 67 C-36.41884435 68.35463644 -39.37627875 68.17255815 -43 68 C-45.98257918 68.73948997 -45.98257918 68.73948997 -48 71 C-48.40885816 72.63314062 -48.81324986 74.26740166 -49.21484375 75.90234375 C-50.61159404 79.4500257 -51.35873247 80.69733799 -54.84863281 82.34448242 C-58.78219441 83.32515852 -62.68396989 84.01195893 -66.6875 84.625 C-68.21671733 84.89416962 -69.74511157 85.16805176 -71.27270508 85.44628906 C-74.52103824 86.03275621 -77.77219089 86.5962392 -81.02734375 87.14355469 C-88.28016426 88.37513232 -95.4890439 89.82746017 -102.70437622 91.25949097 C-106.09633558 91.92952873 -109.49083874 92.58619191 -112.88526917 93.24357605 C-125.66023704 95.71961521 -138.41783324 98.28071728 -151.17547607 100.8442688 C-169.58488834 104.54328287 -187.99902724 108.19633419 -206.4597168 111.63110352 C-213.58014612 112.95830824 -220.68767218 114.32835301 -227.78125 115.79296875 C-228.8398246 116.01035454 -228.8398246 116.01035454 -229.91978455 116.23213196 C-233.23886549 116.91430572 -236.5553843 117.60510103 -239.86938477 118.31176758 C-241.01721436 118.54919678 -242.16504395 118.78662598 -243.34765625 119.03125 C-244.34804932 119.24330078 -245.34844238 119.45535156 -246.37915039 119.67382812 C-248.98664172 119.99833753 -250.55452203 119.90325405 -253 119 C-254.7734375 117.58203125 -254.7734375 117.58203125 -256.375 115.8125 C-256.91898437 115.24144531 -257.46296875 114.67039062 -258.0234375 114.08203125 C-259 112 -259 112 -258.25195312 109.29833984 C-256.94060059 105.84350897 -255.48757144 102.50276452 -253.9453125 99.14453125 C-253.49943031 98.16943352 -253.49943031 98.16943352 -253.04454041 97.17463684 C-252.40638646 95.77959758 -251.76691815 94.38515894 -251.12625122 92.99127197 C-249.41224177 89.26150299 -247.7083103 85.52713458 -246.00390625 81.79296875 C-245.66026535 81.04059937 -245.31662445 80.28822998 -244.96257019 79.51306152 C-241.94795968 72.90477597 -238.99618406 66.26959068 -236.0625 59.625 C-230.68870459 47.46549255 -225.16574677 35.37655618 -219.60571289 23.30126953 C-219.28259125 22.59761765 -218.9594696 21.89396576 -218.6265564 21.16899109 C-217.99007868 19.78376058 -217.35154141 18.39947435 -216.71084595 17.01618958 C-215.18425082 13.69686281 -213.73003116 10.37177194 -212.40356445 6.96704102 C-212.1490451 6.32696609 -211.89452576 5.68689117 -211.6322937 5.02742004 C-210.95081022 3.29507758 -210.29272116 1.55358274 -209.63647461 -0.18847656 C-206.65303804 -5.31413008 -201.65571362 -6.67292099 -196.19726562 -8.32275391 C-193.77653403 -9.06887718 -191.40050578 -9.90809152 -189.015625 -10.76171875 C-126.68256378 -32.78302538 -59.51688887 -28.06197878 0 0 Z " fill="#0F355C" transform="translate(731,582)"/>
<path d="M0 0 C37.29 0 74.58 0 113 0 C113 18.1671738 113 18.1671738 112.125 27 C111.27002833 36.23010025 110.63448491 45.46194165 110.0859375 54.71484375 C109.39915611 66.04685161 108.63479871 77.3707454 107.78125 88.69140625 C107.7030131 89.73012941 107.7030131 89.73012941 107.62319565 90.78983688 C107.25162501 95.71427423 106.87611825 100.63840825 106.5 105.5625 C104.61301667 130.28947244 102.9067113 155.0198334 101.40234375 179.7734375 C101.32306641 181.06765625 101.24378906 182.361875 101.16210938 183.6953125 C101.04639336 185.59104269 100.93096146 187.48679408 100.82006836 189.3828125 C100.70590058 191.32577464 100.58550644 193.26836789 100.46484375 195.2109375 C100.399021 196.30712402 100.33319824 197.40331055 100.26538086 198.53271484 C100 201 100 201 99 202 C96.6378964 201.94505845 94.31213317 201.82597916 91.95703125 201.66015625 C91.2369841 201.61434921 90.51693695 201.56854218 89.77507019 201.52134705 C87.45385821 201.3733895 85.13317398 201.21865525 82.8125 201.0625 C68.05743605 200.07399427 53.57398486 199.5654701 38.8125 200.9375 C37.82314453 201.02451172 36.83378906 201.11152344 35.81445312 201.20117188 C32.87567582 201.46098519 29.93780722 201.72945755 27 202 C24.92058903 202.18897942 22.84116263 202.37778928 20.76171875 202.56640625 C19.17447386 202.71087924 17.5872322 202.85538767 16 203 C13.48355413 183.36708362 11.97394171 163.67410392 10.53417969 143.93847656 C9.67435414 132.24427641 8.69788693 120.57041209 7.57421875 108.8984375 C5.89897939 91.46514884 4.53206798 74.01082905 3.21020508 56.54760742 C2.87598232 52.13487579 2.53456231 47.72273121 2.19147205 43.31068134 C1.92295905 39.84396395 1.65899222 36.37691108 1.39627647 32.90974998 C1.27226407 31.2820051 1.14672104 29.65437593 1.01947975 28.02688026 C0.8426304 25.75824308 0.67218723 23.48920346 0.50317383 21.2199707 C0.40563309 19.94193069 0.30809235 18.66389069 0.20759583 17.34712219 C-0.06824555 11.57091671 0 5.7827881 0 0 Z " fill="#0F355C" transform="translate(563,349)"/>
<path d="M0 0 C2.17839122 20.44255556 4.20510838 40.88953504 5.9375 61.375 C7.30902716 77.5581972 8.83360971 93.71948197 10.5 109.875 C10.60442413 110.88991516 10.70884827 111.90483032 10.81643677 112.95050049 C11.74375 121.95598819 12.67911135 130.96061902 13.62792969 139.96386719 C14.12477883 144.67894692 14.61499644 149.394674 15.10083008 154.11090088 C15.2817304 155.85220746 15.46542745 157.59322606 15.65209961 159.33392334 C15.90761365 161.71676063 16.15404592 164.10037519 16.3984375 166.484375 C16.47520721 167.17779999 16.55197693 167.87122498 16.631073 168.58566284 C16.99661098 172.25290816 17.1947754 175.48209415 16 179 C13.56223417 180.73021916 11.38972319 182.04768156 8.75 183.375 C8.08097656 183.74238281 7.41195312 184.10976563 6.72265625 184.48828125 C2.60546038 186.63181152 0.60308651 187.35452014 -4 186 C-6.65633512 184.88013034 -9.25480407 183.72127557 -11.859375 182.4921875 C-12.62780731 182.13504166 -13.39623962 181.77789581 -14.18795776 181.40992737 C-15.84476194 180.63922751 -17.50043643 179.86609541 -19.15509033 179.09078979 C-22.68130835 177.43865526 -26.21295458 175.79828546 -29.74441528 174.15739441 C-31.55122107 173.31780941 -33.35775832 172.4776463 -35.16403198 171.63691711 C-43.29541516 167.85421837 -51.45503957 164.13596426 -59.625 160.4375 C-68.46114564 156.43438958 -77.28903712 152.41426605 -86.1015625 148.359375 C-87.37351974 147.77416832 -87.37351974 147.77416832 -88.6711731 147.17713928 C-92.80987841 145.27238495 -96.94767592 143.36568278 -101.08447266 141.45678711 C-102.58234757 140.76674435 -104.08023124 140.07672059 -105.578125 139.38671875 C-106.25678619 139.07285217 -106.93544739 138.7589856 -107.63467407 138.43560791 C-111.05596858 136.86075472 -114.48745021 135.35995483 -118 134 C-118.03867187 133.12988281 -118.03867187 133.12988281 -118.078125 132.2421875 C-118.39369968 127.89586345 -118.65990526 125.49556662 -121.1875 121.8125 C-121.785625 120.884375 -122.38375 119.95625 -123 119 C-121.73930879 113.30515348 -118.61059749 108.22676925 -115.875 103.125 C-114.86601747 101.22197405 -113.85821182 99.31832368 -112.8515625 97.4140625 C-112.35946289 96.48368164 -111.86736328 95.55330078 -111.36035156 94.59472656 C-109.60838674 91.25303918 -107.91953243 87.88341326 -106.25 84.5 C-101.86251544 75.65031055 -97.36270994 66.85623646 -92.77929688 58.10644531 C-92.45433228 57.48600342 -92.12936768 56.86556152 -91.79455566 56.22631836 C-91.14045717 54.97763661 -90.4860794 53.72910112 -89.8314209 52.48071289 C-87.72599959 48.44720245 -85.71882113 44.37596241 -83.75 40.2734375 C-82.75029412 38.26547854 -81.75031123 36.25765746 -80.75 34.25 C-80.3281543 33.32171387 -79.90630859 32.39342773 -79.47167969 31.43701172 C-78.16336665 28.87395669 -77.09991915 26.97197018 -75 25 C-72.06769026 24.21407203 -69.53425613 24.0326256 -66.50317383 24.07055664 C-63.76629687 24.19585957 -63.76629687 24.19585957 -60.9375 22.1875 C-57.46271104 18.26435117 -56.81141745 15.13431383 -56 10 C-55.19071045 9.83918945 -54.3814209 9.67837891 -53.54760742 9.51269531 C-50.45215871 8.89707448 -47.35689124 8.28055214 -44.26174927 7.66339111 C-42.88149879 7.3883117 -41.50118889 7.11353029 -40.12081909 6.83905029 C-33.41267049 5.50471817 -26.70579003 4.17030185 -20.0234375 2.7109375 C-19.16983643 2.52499023 -18.31623535 2.33904297 -17.43676758 2.14746094 C-15.90654314 1.81073289 -14.37760431 1.46808096 -12.8503418 1.11816406 C-8.48043742 0.15729137 -4.46185868 -0.05674542 0 0 Z " fill="#0F355C" transform="translate(763,651)"/>
<path d="M0 0 C1.76000977 1.3190918 1.76000977 1.3190918 3.19140625 3.19921875 C3.73700195 3.90280518 4.28259766 4.6063916 4.84472656 5.33129883 C5.4115918 6.10884521 5.97845703 6.8863916 6.5625 7.6875 C7.16674805 8.49405029 7.77099609 9.30060059 8.39355469 10.1315918 C19.89569565 25.75468462 29.17536478 42.27161221 37 60 C37.29455078 60.6506543 37.58910156 61.30130859 37.89257812 61.97167969 C49.0637489 86.80398098 55.352032 115.75813903 55 143 C51.02935934 145.27691426 47.05579893 147.54862101 43.07910156 149.81494141 C41.70566247 150.59778234 40.33260796 151.38129842 38.95996094 152.16552734 C31.49912893 156.42347693 24.02773449 160.5634176 16.3125 164.34765625 C12.07174334 166.46303369 7.87965881 168.66521524 3.6875 170.875 C2.87748535 171.30079346 2.0674707 171.72658691 1.23291016 172.1652832 C-2.66677354 174.22031133 -6.55308364 176.29493142 -10.4140625 178.421875 C-11.09557373 178.7945752 -11.77708496 179.16727539 -12.47924805 179.55126953 C-13.75029676 180.24819912 -15.01765096 180.95192571 -16.28051758 181.66357422 C-19.56693222 183.46041569 -21.134647 184 -25 184 C-25.70891024 176.64588884 -26.41709025 169.29170753 -27.125 161.9375 C-27.23537598 160.79122131 -27.34575195 159.64494263 -27.45947266 158.46392822 C-28.81309978 144.40261817 -30.15965725 130.34066972 -31.4921875 116.27734375 C-31.86891855 112.30442125 -32.24567679 108.33150133 -32.62243652 104.35858154 C-32.87446851 101.70028682 -33.1261426 99.04195854 -33.37756348 96.38360596 C-34.70489816 82.35396328 -36.0547326 68.32742704 -37.4921875 54.30859375 C-37.66914154 52.57551971 -37.66914154 52.57551971 -37.84967041 50.80743408 C-38.40092667 45.41355477 -38.95824619 40.02044407 -39.52734375 34.62841797 C-40.48650933 25.38809 -41.37398907 16.30206151 -41 7 C-36.12682913 5.99560018 -31.25216152 4.99894092 -26.37597656 4.00927734 C-24.71897201 3.6718592 -23.06238841 3.33236671 -21.40625 2.99072266 C-19.0193192 2.49870507 -16.63095091 2.01428134 -14.2421875 1.53125 C-13.50757294 1.37813354 -12.77295837 1.22501709 -12.01608276 1.06726074 C-7.96169303 0.25585803 -4.12749636 -0.45460647 0 0 Z " fill="#0F355C" transform="translate(808,642)"/>
<path d="M0 0 C4.7087207 0.57408239 8.37016455 1.90580908 12.63671875 3.95703125 C13.26544891 4.25610886 13.89417908 4.55518646 14.54196167 4.86332703 C15.89170695 5.50600629 17.2399147 6.15192293 18.58670044 6.80078125 C22.16735511 8.52517968 25.75975933 10.22475763 29.3515625 11.92578125 C30.07849808 12.27065582 30.80543365 12.6155304 31.55439758 12.97085571 C39.54172113 16.7496093 47.61237235 20.32828394 55.70385742 23.87817383 C61.86479748 26.586068 67.98217585 29.37488678 74.07461548 32.23292542 C81.83181273 35.86786305 89.63572222 39.39955475 97.4375 42.9375 C98.95901702 43.6281833 100.48050154 44.31893819 102.00195312 45.00976562 C105.66759674 46.67399805 109.33367153 48.33727691 113 50 C112.75634766 51.84936523 112.75634766 51.84936523 112 54 C110.23193359 55.28930664 110.23193359 55.28930664 107.8984375 56.41015625 C107.02840088 56.83651367 106.15836426 57.26287109 105.26196289 57.70214844 C104.30926514 58.15106445 103.35656738 58.59998047 102.375 59.0625 C101.38298584 59.54364258 100.39097168 60.02478516 99.36889648 60.52050781 C96.25248724 62.02777467 93.1271182 63.51509969 90 65 C88.17014335 65.87801156 86.34069967 66.75688441 84.51171875 67.63671875 C80.79041335 69.42377685 77.06439988 71.20058404 73.3359375 72.97265625 C68.64250276 75.20794784 63.96294657 77.47032802 59.2890625 79.74609375 C46.23701298 86.09859747 33.18136017 92.37262429 19.87207031 98.17333984 C16.85146724 99.50716379 13.86415957 100.90989436 10.875 102.3125 C9.62895414 102.89593562 8.38285856 103.47926506 7.13671875 104.0625 C4.98712117 105.06889535 2.83795931 106.07617385 0.68994141 107.0859375 C-18.63035948 116.14387207 -38.2539085 124.50112301 -57.89697266 132.82958984 C-61.39823094 134.31458622 -64.89125415 135.81727448 -68.38037109 137.33056641 C-70.10120675 138.0707083 -71.82207153 138.8107825 -73.54296875 139.55078125 C-74.33584793 139.89835983 -75.12872711 140.24593842 -75.94563293 140.60404968 C-76.68311264 140.91945206 -77.42059235 141.23485443 -78.18041992 141.55981445 C-79.14548714 141.97841484 -79.14548714 141.97841484 -80.13005066 142.4054718 C-82 143 -82 143 -86 143 C-84.44250402 137.64289845 -82.01515248 133.00406599 -79.375 128.125 C-75.84472781 121.56391535 -72.4559941 114.94458996 -69.13645935 108.27522278 C-65.47109631 100.91925676 -61.7092779 93.61431868 -57.9375 86.3125 C-57.19760788 84.87845132 -56.45778177 83.44436858 -55.71801758 82.01025391 C-53.841664 78.37352211 -51.96395187 74.73749387 -50.08569336 71.10174561 C-49.04057738 69.07855194 -47.99581262 67.05517736 -46.95117188 65.03173828 C-39.98322453 51.53595156 -32.98966966 38.05400704 -25.95092773 24.5949707 C-22.55936745 18.09942998 -19.22614792 11.57964379 -16 5 C-14.205625 5.0928125 -14.205625 5.0928125 -12.375 5.1875 C-8.24554331 5.2094652 -5.6027299 4.0587028 -2 2 C-1.34 2 -0.68 2 0 2 C0 1.34 0 0.68 0 0 Z " fill="#0F355C" transform="translate(642,789)"/>
<path d="M0 0 C2.3125 2.6875 2.3125 2.6875 4 6 C3.62285054 9.44067375 2.60829464 12.11809524 0.98046875 15.1484375 C0.54557129 15.96860352 0.11067383 16.78876953 -0.33740234 17.63378906 C-0.82418457 18.53838867 -1.3109668 19.44298828 -1.8125 20.375 C-2.9065916 22.43923382 -3.99890142 24.50441257 -5.08984375 26.5703125 C-6.01192627 28.31489746 -6.01192627 28.31489746 -6.95263672 30.09472656 C-10.55190735 36.93781697 -14.05550414 43.83057589 -17.57559204 50.71459961 C-18.87521288 53.25041537 -20.18117271 55.78286829 -21.48901367 58.31445312 C-25.10637435 65.32585806 -28.71833127 72.330831 -32.09310913 79.4630127 C-33.01731723 81.41416139 -33.95565365 83.3578128 -34.89892578 85.29980469 C-36.01729177 87.61626176 -37.10629011 89.94722187 -38.15966797 92.29394531 C-39.58306652 95.20172541 -40.81930639 97.60655579 -43 100 C-45.71750815 100.90229348 -47.84144068 101.08285475 -50.69482422 100.97705078 C-54.39265631 101.01386461 -56.17423627 102.73938901 -59 105 C-59.99 105.495 -59.99 105.495 -61 106 C-63.45950322 105.07806538 -65.80361073 104.09120098 -68.1875 103 C-69.13012695 102.58041016 -69.13012695 102.58041016 -70.09179688 102.15234375 C-75.35163143 99.79536648 -80.56710234 97.34128297 -85.78862 94.9009552 C-94.18361471 90.9774774 -102.58942654 87.07746046 -111 83.1875 C-112.27926865 82.59563904 -112.27926865 82.59563904 -113.5843811 81.99182129 C-124.57950305 76.90921306 -135.5879857 71.88150732 -146.74804688 67.16870117 C-151.13971587 65.30295075 -155.42316482 63.31054567 -159.6796875 61.15234375 C-167.29077256 57.301508 -175.08971528 53.89049279 -182.8918457 50.45092773 C-184.79237679 49.61189011 -186.69115226 48.76897163 -188.58984375 47.92578125 C-189.70222412 47.43505127 -190.81460449 46.94432129 -191.96069336 46.4387207 C-194.79384666 45.09758709 -197.45053544 43.82722992 -200 42 C-200 41.01 -200 40.02 -200 39 C-192.06069029 37.40740823 -184.12114557 35.81599458 -176.1813345 34.22590446 C-172.49065616 33.48674517 -168.80004663 32.74724668 -165.10961914 32.00683594 C-149.82273056 28.94008122 -134.53259392 25.89513839 -119.22265625 22.9453125 C-100.4122444 19.32063719 -81.63375216 15.53969258 -62.85530472 11.75368881 C-56.69265308 10.51129171 -50.52960965 9.27084935 -44.36628342 8.03180313 C-40.43079687 7.24047344 -36.49563012 6.44760731 -32.56103516 5.65185547 C-28.66272458 4.86352028 -24.76367995 4.07891695 -20.86409378 3.29691696 C-19.39901237 3.00243061 -17.93420089 2.70659779 -16.46967697 2.40935135 C-14.44841949 1.99931056 -12.42625733 1.59405917 -10.40380859 1.18994141 C-8.68754776 0.84402451 -8.68754776 0.84402451 -6.93661499 0.49111938 C-4 0 -4 0 0 0 Z " fill="#0F355C" transform="translate(680,667)"/>
<path d="M0 0 C0.99 0 1.98 0 3 0 C4.51123047 1.79394531 4.51123047 1.79394531 6.1171875 4.328125 C6.71740723 5.26293701 7.31762695 6.19774902 7.93603516 7.16088867 C8.57589355 8.18029541 9.21575195 9.19970215 9.875 10.25 C11.23431918 12.37633777 12.59369516 14.50263923 13.953125 16.62890625 C14.63439453 17.70285645 15.31566406 18.77680664 16.01757812 19.88330078 C18.85258925 24.3404131 21.73830017 28.76377236 24.625 33.1875 C25.69049317 34.82657011 26.75559783 36.46589284 27.8203125 38.10546875 C31.04592646 43.07092925 34.27287244 48.03552312 37.5 53 C38.58333905 54.66666295 39.66667239 56.33332961 40.75 58 C41.28625 58.825 41.8225 59.65 42.375 60.5 C47.25 68 47.25 68 48.87402344 70.49853516 C49.96056624 72.17011437 51.047155 73.84166371 52.13378906 75.51318359 C54.79338962 79.60444825 57.45226724 83.69617836 60.109375 87.7890625 C65.96165414 96.80184649 71.82585752 105.80680798 77.70373535 114.80291748 C78.77384162 116.44082923 79.8434727 118.0790514 80.91308594 119.71728516 C81.58758789 120.74901855 82.26208984 121.78075195 82.95703125 122.84375 C83.61525879 123.854375 84.27348633 124.865 84.95166016 125.90625 C86.38651156 128.07340579 87.83736317 130.21433191 89.32568359 132.34375 C90.0677002 133.41625 90.8097168 134.48875 91.57421875 135.59375 C92.25444092 136.55990234 92.93466309 137.52605469 93.63549805 138.52148438 C94.08578369 139.33939453 94.53606934 140.15730469 95 141 C94 144 94 144 92.3203125 144.97973633 C91.59585938 145.26099365 90.87140625 145.54225098 90.125 145.83203125 C89.31305176 146.15260498 88.50110352 146.47317871 87.66455078 146.8034668 C86.78524902 147.13644775 85.90594727 147.46942871 85 147.8125 C84.09878418 148.1628833 83.19756836 148.5132666 82.26904297 148.87426758 C75.22557577 151.59096273 68.13440106 154.16459082 60.98828125 156.59765625 C58.29841432 157.52047644 55.66824576 158.52826259 53.04296875 159.62109375 C52.41310059 159.87415283 51.78323242 160.12721191 51.13427734 160.38793945 C49.43236092 161.07650628 47.74108256 161.79120572 46.05078125 162.5078125 C43 163 43 163 39.9453125 161.4453125 C12.99800748 139.07261629 -5.91807511 107.61627833 -20 76 C-20.50684326 74.88383301 -20.50684326 74.88383301 -21.02392578 73.74511719 C-21.96803089 71.63487527 -22.86618152 69.51108629 -23.75 67.375 C-24.51570313 65.56128906 -24.51570313 65.56128906 -25.296875 63.7109375 C-26.26656589 58.59312446 -25.04900108 55.69636075 -23 51 C-22.49388184 49.83919922 -21.98776367 48.67839844 -21.46630859 47.48242188 C-19.62378591 43.3229549 -17.71865235 39.19308499 -15.8125 35.0625 C-14.79688075 32.84827832 -13.7829086 30.6333073 -12.76902771 28.41828918 C-12.10350384 26.96458927 -11.43746299 25.51112593 -10.77088928 24.0579071 C-8.16229286 18.36836381 -5.59467426 12.66150067 -3.0625 6.9375 C-2.73934814 6.20732666 -2.41619629 5.47715332 -2.08325195 4.72485352 C-1.3875406 3.15047353 -0.69350909 1.57535131 0 0 Z " fill="#0F355C" transform="translate(421,806)"/>
<path d="M0 0 C1.51400391 0.2165625 1.51400391 0.2165625 3.05859375 0.4375 C12.38809164 1.6718339 21.587229 2.19310326 31 2.1875 C32.03697021 2.18814453 33.07394043 2.18878906 34.14233398 2.18945312 C39.86658725 2.14906715 45.45645137 1.83642589 51.13671875 1.11450195 C52.05904297 1.05782349 52.05904297 1.05782349 53 1 C53.495 1.495 53.495 1.495 54 2 C53.95781305 4.94492143 53.84528883 7.85755456 53.68359375 10.796875 C53.63561142 11.72747742 53.58762909 12.65807983 53.53819275 13.61688232 C52.86571471 26.17091899 51.952639 38.70995561 51.0625 51.25 C50.69990464 56.39439803 50.33935406 61.53893559 49.98046875 66.68359375 C49.89343689 67.93113937 49.80640503 69.178685 49.71673584 70.46403503 C49.22804738 77.52747145 48.76762536 84.59138739 48.36328125 91.66015625 C48.31915604 92.42707794 48.27503082 93.19399963 48.22956848 93.98416138 C48.03799749 97.3455066 47.85493329 100.70686343 47.68383789 104.06933594 C46.41832671 127.05811236 46.41832671 127.05811236 42 133 C36.80713339 137.1984879 32.4035241 137.5714735 25.8046875 137.31640625 C20.61868714 136.73135607 17.99007133 134.96704642 14.3125 131.375 C8.98623968 124.41034434 8.44565904 115.81694299 7.9375 107.36328125 C7.86107269 106.25809647 7.78464539 105.15291168 7.7059021 104.01423645 C7.54413458 101.66162243 7.38746869 99.30865284 7.23553467 96.9553833 C6.83994883 90.83707785 6.40655309 84.72143625 5.9765625 78.60546875 C5.85192123 76.81302734 5.85192123 76.81302734 5.72476196 74.984375 C5.09356883 66.0122541 4.31932698 57.06958709 3.375 48.125 C3.19457153 46.40796875 3.19457153 46.40796875 3.01049805 44.65625 C2.78236928 42.49164982 2.55379511 40.32709652 2.32470703 38.16259766 C1.7656315 32.71728609 1.28002057 27.26634303 0.8125 21.8125 C0.68657471 20.40411865 0.68657471 20.40411865 0.55810547 18.96728516 C0.02729258 12.63307094 -0.08959197 6.35490374 0 0 Z " fill="#0F355C" transform="translate(593,1035)"/>
<path d="M0 0 C-0.59567863 3.53029484 -1.52791465 6.48127703 -3.046875 9.71875 C-3.68568604 11.09389771 -3.68568604 11.09389771 -4.33740234 12.49682617 C-5.03663818 13.98339722 -5.03663818 13.98339722 -5.75 15.5 C-6.75895985 17.67264463 -7.76672156 19.84584597 -8.7734375 22.01953125 C-9.56766113 23.73197021 -9.56766113 23.73197021 -10.37792969 25.47900391 C-13.08809493 31.36190624 -15.7317562 37.27429685 -18.375 43.1875 C-18.92125609 44.40830654 -19.46756172 45.62909092 -20.01391602 46.84985352 C-21.11961132 49.32091608 -22.22480263 51.79220319 -23.32958984 54.26367188 C-25.00644826 58.01478808 -26.68454594 61.76534842 -28.36328125 65.515625 C-28.63950821 66.13288956 -28.91573517 66.75015411 -29.20033264 67.38612366 C-30.56903252 70.44363249 -31.94061383 73.49978542 -33.31567383 76.55444336 C-35.87806793 82.24713042 -38.41821618 87.94675938 -40.8984375 93.67578125 C-41.35001221 94.70517822 -41.80158691 95.7345752 -42.2668457 96.79516602 C-43.1080671 98.71363267 -43.93802437 100.63709269 -44.75463867 102.56616211 C-45.12564697 103.40542236 -45.49665527 104.24468262 -45.87890625 105.109375 C-46.1941626 105.84124023 -46.50941895 106.57310547 -46.83422852 107.32714844 C-48 109 -48 109 -50.00976562 109.69824219 C-50.66654297 109.79782227 -51.32332031 109.89740234 -52 110 C-53.98274478 110.72529829 -55.94058128 111.50122516 -57.90234375 112.28125 C-58.59457031 112.5184375 -59.28679687 112.755625 -60 113 C-60.69125977 113.25450928 -61.38251953 113.50901855 -62.09472656 113.77124023 C-66.50759294 114.11870711 -69.65992394 112.26614455 -73.58203125 110.37890625 C-74.39621017 110.00015854 -75.2103891 109.62141083 -76.04924011 109.23118591 C-78.64315266 108.02096114 -81.22771497 106.79208039 -83.8125 105.5625 C-85.57168194 104.73768624 -87.33144166 103.9141036 -89.09179688 103.09179688 C-93.4013609 101.07541153 -97.70263714 99.04225156 -102 97 C-101.4481125 93.48580876 -100.64015517 91.01937248 -98.6640625 88.06640625 C-97.94150269 86.97972656 -97.94150269 86.97972656 -97.2043457 85.87109375 C-96.68316162 85.10925781 -96.16197754 84.34742188 -95.625 83.5625 C-95.08770264 82.7684375 -94.55040527 81.974375 -93.99682617 81.15625 C-78.69471217 58.78765162 -60.03458738 37.89837317 -38 22 C-37.4539209 21.60377441 -36.9078418 21.20754883 -36.34521484 20.79931641 C-7.47963411 0 -7.47963411 0 0 0 Z " fill="#0F355C" transform="translate(517,583)"/>
<path d="M0 0 C0 9.57 0 19.14 0 29 C-2.536875 29.70125 -5.07375 30.4025 -7.6875 31.125 C-11.125805 32.08045481 -14.5629296 33.04011448 -18 34 C-18.84449707 34.23525391 -19.68899414 34.47050781 -20.55908203 34.71289062 C-39.39608962 39.97377445 -57.96425318 45.96841805 -76.51553345 52.1512146 C-78.08504434 52.67424956 -79.65468498 53.19689537 -81.22445679 53.71914673 C-88.97740747 56.29874261 -96.72358877 58.89155439 -104.4375 61.5859375 C-106.08903076 62.15646851 -106.08903076 62.15646851 -107.77392578 62.73852539 C-109.77629912 63.43199416 -111.77501203 64.13616722 -113.76904297 64.85327148 C-122.12918767 67.73229727 -122.12918767 67.73229727 -127 66 C-129.45340261 64.58911257 -131.687478 62.96288804 -133.9375 61.25 C-134.51951172 60.81945312 -135.10152344 60.38890625 -135.70117188 59.9453125 C-136.87378915 59.0778614 -138.04229552 58.20482456 -139.20654297 57.32617188 C-141.08766493 55.93517617 -143.01165604 54.61930005 -144.94140625 53.296875 C-145.95074219 52.53890625 -146.96007812 51.7809375 -148 51 C-148 50.34 -148 49.68 -148 49 C-140.72989848 46.08047563 -133.45609444 43.17036966 -126.17871094 40.26904297 C-123.56786174 39.22670855 -120.95939674 38.1787448 -118.3515625 37.12890625 C-104.42104401 31.5685016 -90.19966074 26.818083 -76 22 C-74.4205258 21.45977316 -72.84109113 20.91943071 -71.26171875 20.37890625 C-51.9430157 13.8104107 -32.43373851 7.5304926 -12.6875 2.375 C-11.73979736 2.1275 -10.79209473 1.88 -9.81567383 1.625 C-3.41305434 0 -3.41305434 0 0 0 Z " fill="#0F355C" transform="translate(911,544)"/>
<path d="M0 0 C2.4375 1.9375 2.4375 1.9375 4 5 C1.85681478 13.11408257 -1.88469098 20.64414157 -5.375 28.25 C-6.31185985 30.30441443 -7.24717761 32.3595267 -8.1824646 34.41465759 C-8.82355299 35.8229918 -9.46517883 37.23108148 -10.10733032 38.63893127 C-12.31580391 43.4833889 -14.50170156 48.33749096 -16.671875 53.19921875 C-16.96474396 53.85501923 -17.25761292 54.5108197 -17.55935669 55.18649292 C-18.95342237 58.30935798 -20.34551871 61.4330822 -21.73583984 64.55761719 C-24.36488719 70.44324195 -27.05808431 76.26396822 -30 82 C-34.27861344 80.57379552 -35.48862194 77.38792772 -37.6875 73.6875 C-38.58710247 72.21006022 -39.48815648 70.73350335 -40.390625 69.2578125 C-40.83470703 68.52852539 -41.27878906 67.79923828 -41.73632812 67.04785156 C-43.40611786 64.34186309 -45.16028263 61.69895056 -46.9375 59.0625 C-47.5665625 58.12148438 -48.195625 57.18046875 -48.84375 56.2109375 C-50.02421501 54.45307113 -51.20665931 52.69650521 -52.3984375 50.94628906 C-53.92347103 48.70121055 -55.43117503 46.44516264 -56.9375 44.1875 C-57.42275146 43.48181885 -57.90800293 42.7761377 -58.40795898 42.04907227 C-61.64009833 37.16657687 -63.59385687 33.0375413 -62.70385742 26.98657227 C-62.25209874 24.85982 -61.71096171 22.78105193 -61.125 20.6875 C-60.93808594 19.97271484 -60.75117188 19.25792969 -60.55859375 18.52148438 C-59.19438506 13.38877012 -59.19438506 13.38877012 -58 11 C-55.51342773 10.30151367 -55.51342773 10.30151367 -52.18359375 9.66796875 C-50.34063721 9.30952881 -50.34063721 9.30952881 -48.46044922 8.94384766 C-47.11949041 8.69160274 -45.7785068 8.43948966 -44.4375 8.1875 C-42.39039687 7.79360161 -40.3438702 7.39679999 -38.29736328 6.99981689 C-36.90823357 6.73054837 -35.51890829 6.46228696 -34.12939453 6.19500732 C-26.51900245 4.72723148 -18.94000847 3.11323973 -11.36499023 1.47338867 C-10.44790283 1.27849854 -9.53081543 1.0836084 -8.5859375 0.8828125 C-7.39556885 0.62588623 -7.39556885 0.62588623 -6.18115234 0.36376953 C-4 0 -4 0 0 0 Z " fill="#0F355C" transform="translate(453,712)"/>
<path d="M0 0 C5.16318536 1.50998817 9.61635 3.70174038 14.25 6.375 C14.96929688 6.74238281 15.68859375 7.10976563 16.4296875 7.48828125 C19.66803867 9.38641593 21.59176482 10.84993533 22.87060547 14.45263672 C23.43798811 17.63787638 23.74623373 20.77437874 24 24 C24.21123338 25.96580921 24.42251647 27.93161352 24.63537598 29.89724731 C24.92672996 32.67847689 25.18135895 35.4624577 25.43261719 38.24755859 C25.62666832 40.39344887 25.82848823 42.53851071 26.03125 44.68359375 C26.56647677 50.46843965 27.08346101 56.18332394 27 62 C25.81035645 62.23187012 24.62071289 62.46374023 23.39501953 62.70263672 C18.94070745 63.57088143 14.48645804 64.43944731 10.03222656 65.30810547 C8.111996 65.68254075 6.19174892 66.05689134 4.27148438 66.43115234 C1.4960492 66.97210255 -1.27932452 67.51336708 -4.0546875 68.0546875 C-4.8998996 68.21935516 -5.74511169 68.38402283 -6.61593628 68.55368042 C-7.4360318 68.71369537 -8.25612732 68.87371033 -9.10107422 69.03857422 C-9.90397888 69.19436951 -10.70688354 69.35016479 -11.53411865 69.51068115 C-13.24763187 69.85070332 -14.95865886 70.20340107 -16.6675415 70.565979 C-17.97510406 70.8410025 -17.97510406 70.8410025 -19.30908203 71.12158203 C-20.08945831 71.28965363 -20.86983459 71.45772522 -21.67385864 71.63088989 C-24.19546454 72.03101614 -26.45220394 72.20305912 -29 72 C-31.375 69.875 -31.375 69.875 -33 67 C-32.67169574 62.0657412 -30.81817678 58.16119394 -28.53515625 53.86328125 C-28.18603683 53.19016403 -27.83691742 52.51704681 -27.47721863 51.8235321 C-26.34688393 49.64896007 -25.20493966 47.48073312 -24.0625 45.3125 C-23.28218466 43.81741875 -22.50256463 42.3219744 -21.72363281 40.82617188 C-19.82821012 37.19093752 -17.92352005 33.56066598 -16.01519775 29.93218994 C-14.61302465 27.26348352 -13.21857975 24.59076342 -11.82421875 21.91796875 C-7.97530647 14.55776807 -4.05626849 7.24843015 0 0 Z " fill="#0F355C" transform="translate(735,585)"/>
<path d="M0 0 C4.37469786 3.99566267 7.3058508 8.33024014 10.375 13.375 C13.84635799 19.04523881 17.38970626 24.61215995 21.22265625 30.046875 C22.27283936 31.564021 22.27283936 31.564021 23.34423828 33.11181641 C24.7181236 35.08948058 26.11568661 37.05094616 27.53857422 38.99365234 C32.04308087 45.56412701 32.04308087 45.56412701 31.93261719 49.24584961 C31.18222566 51.66659957 30.17437092 53.75377714 29 56 C28.1305199 57.95340824 27.26350404 59.90791447 26.3984375 61.86328125 C25.39515683 64.01513957 24.3871541 66.16480114 23.375 68.3125 C22.30257394 70.61029852 21.23096901 72.90848046 20.16015625 75.20703125 C19.62922363 76.34479004 19.09829102 77.48254883 18.55126953 78.65478516 C15.87579961 84.4242672 13.27689187 90.2276741 10.67919922 96.0324707 C10.16703857 97.17655396 10.16703857 97.17655396 9.64453125 98.34375 C9.34909424 99.00568359 9.05365723 99.66761719 8.74926758 100.34960938 C8.19148825 101.57821422 7.60342152 102.79315696 7 104 C6.34 104 5.68 104 5 104 C-4.03260236 76.77407089 -5.78626569 47.11083624 -3.125 18.6875 C-3.04660889 17.84695068 -2.96821777 17.00640137 -2.88745117 16.14038086 C-2.31517509 10.65410234 -1.30931809 5.35695848 0 0 Z " fill="#0F355C" transform="translate(388,753)"/>
<path d="M0 0 C0.99 0 1.98 0 3 0 C2.5382161 4.88311907 2.06018196 9.763059 1.54296875 14.640625 C1.20517911 17.83859327 0.92312563 21.02416628 0.73828125 24.234375 C0.63902344 25.43578125 0.53976562 26.6371875 0.4375 27.875 C0.37433594 28.92429687 0.31117188 29.97359375 0.24609375 31.0546875 C-1.76061393 35.79781475 -5.64283777 37.51142548 -10 40 C-10.94222412 40.5460791 -11.88444824 41.0921582 -12.85522461 41.65478516 C-15.95155598 43.4220297 -19.06596704 45.15269318 -22.1875 46.875 C-24.40136995 48.10357529 -26.61491366 49.33273865 -28.828125 50.5625 C-30.41657227 51.44421875 -30.41657227 51.44421875 -32.03710938 52.34375 C-36.93450006 55.08138171 -41.78158266 57.9037994 -46.62109375 60.7421875 C-49 62 -49 62 -51 62 C-53.85937318 34.23220197 -53.85937318 34.23220197 -48 26.28857422 C-42.52456289 21.73521593 -36.07972445 19.13194278 -29.51904297 16.50097656 C-23.41864385 13.89897478 -17.79937943 10.50413342 -12.0625 7.1875 C-9.95090721 6.01128659 -7.83776946 4.83783977 -5.72265625 3.66796875 C-2.6700837 2.09395958 -2.6700837 2.09395958 0 0 Z " fill="#0F355C" transform="translate(379,748)"/>
<path d="M0 0 C4.63656844 0.47844515 8.55889774 2.54180583 12.6875 4.5625 C19.10216364 7.64550565 25.55263937 10.62315614 32.0625 13.5 C32.85422607 13.85006104 33.64595215 14.20012207 34.46166992 14.56079102 C36.30709977 15.3754033 38.15344267 16.18794672 40 17 C40 19.31 40 21.62 40 24 C34.66508257 25.95237863 29.26440377 27.07956685 23.7109375 28.19921875 C22.23966904 28.49817802 22.23966904 28.49817802 20.73867798 28.80317688 C18.67320539 29.2211816 16.60730763 29.63709026 14.54101562 30.05102539 C11.37700033 30.68709787 8.21589396 31.3364591 5.0546875 31.98632812 C3.04443553 32.39144313 1.034024 32.79576733 -0.9765625 33.19921875 C-2.3938414 33.49284554 -2.3938414 33.49284554 -3.8397522 33.79240417 C-4.72101776 33.96621109 -5.60228333 34.14001801 -6.51025391 34.3190918 C-7.2826944 34.47516403 -8.05513489 34.63123627 -8.85098267 34.79203796 C-11.15852795 35.01534087 -12.80228175 34.6934938 -15 34 C-11.92350029 25.34151785 -8.61610947 16.87432026 -4.6875 8.5625 C-4.33816406 7.82330322 -3.98882812 7.08410645 -3.62890625 6.32250977 C-1.14607461 1.14607461 -1.14607461 1.14607461 0 0 Z " fill="#0F355C" transform="translate(412,683)"/>
<path d="M0 0 C3.06384779 0.5938791 4.94835179 1.48601282 7.36328125 3.44921875 C8.31219238 4.21697632 8.31219238 4.21697632 9.28027344 5.00024414 C10.28622559 5.83543579 10.28622559 5.83543579 11.3125 6.6875 C12.01020508 7.26040771 12.70791016 7.83331543 13.42675781 8.42358398 C20.90743042 14.63644579 28.00135973 21.25329229 35 28 C36.19882812 29.12728516 36.19882812 29.12728516 37.421875 30.27734375 C39 32 39 32 39 34 C39.66 34 40.32 34 41 34 C41 34.99 41 35.98 41 37 C36.69640431 37.86178873 32.39139707 38.71602528 28.08496094 39.56347656 C26.62199103 39.85245029 25.15941725 40.14343744 23.69726562 40.43652344 C21.58826513 40.8588982 19.47791788 41.27386804 17.3671875 41.6875 C16.09987793 41.93886719 14.83256836 42.19023438 13.52685547 42.44921875 C10.27733598 42.95668905 7.28077155 43.10597378 4 43 C2.7064857 34.16557252 1.69082339 25.3286424 0.875 16.4375 C0.78750488 15.49825684 0.70000977 14.55901367 0.60986328 13.59130859 C0.20423844 9.04455605 -0.10646748 4.57049685 0 0 Z " fill="#0F355C" transform="translate(762,602)"/>
<path d="M0 0 C2.31 0 4.62 0 7 0 C7 0.33 7 0.66 7 1 C4.69 1 2.38 1 0 1 C0 0.67 0 0.34 0 0 Z " fill="#12365C" transform="translate(433,1345)"/>
</svg>
