<svg width="54" height="50" viewBox="0 0 54 50" fill="none" xmlns="http://www.w3.org/2000/svg">
<path d="M6.90502 23.8855L0.0107422 11.9442L6.51628 0.676739L19.9157 23.8852L6.90502 23.8855Z" fill="#22242C"/>
<path d="M21.0879 23.2085L14.5785 11.9339L21.0925 0.681085L27.5934 11.941L21.0879 23.2085Z" fill="#22242C"/>
<path d="M13.8002 10.5859L7.68843 0L19.9185 0.00115283L13.8002 10.5859Z" fill="#22242C"/>
<path d="M29.4798 13.0123L43.2683 13.0123L49.7735 24.28L22.9746 24.28L29.4798 13.0123Z" fill="#22242C"/>
<path d="M22.9746 25.6334L35.9934 25.6334L42.4816 36.9011L29.4798 36.9011L22.9746 25.6334Z" fill="#22242C"/>
<path d="M37.5499 25.6334L49.7735 25.6334L43.6574 36.2244L37.5499 25.6334Z" fill="#22242C"/>
<path d="M20.6887 49.9987L27.583 38.0575L21.0775 26.79L7.67804 49.9985L20.6887 49.9987Z" fill="#22242C"/>
<path d="M6.50589 49.3218L13.0153 38.0472L6.50128 26.7944L0.000357538 38.0543L6.50589 49.3218Z" fill="#22242C"/>
<path d="M13.7935 36.6992L19.9053 26.1133L7.67527 26.1144L13.7935 36.6992Z" fill="#22242C"/>
</svg>
