<svg xmlns="http://www.w3.org/2000/svg" width="500" height="500" style="shape-rendering:geometricPrecision;text-rendering:geometricPrecision;image-rendering:optimizeQuality;fill-rule:evenodd;clip-rule:evenodd"><path fill="#fed826" d="M239.5-.5h24c1.777 1.1 3.777 1.934 6 2.5a824.861 824.861 0 0 1 43 5.5h2c1.742 1.457 3.742 2.624 6 3.5a933.155 933.155 0 0 1 23 6.5 109.753 109.753 0 0 1 18 8c.221 1.235.888 2.235 2 3 4.016 1.676 8.016 3.343 12 5 18.66 9.987 35.327 22.654 50 38a54.855 54.855 0 0 0 2 7c1.198.44 2.365.773 3.5 1 .054 3.361 1.054 6.361 3 9l2-4a38.44 38.44 0 0 0 5.5 5 24.307 24.307 0 0 1 2 5.5 6.29 6.29 0 0 1-1 3 37.52 37.52 0 0 0 8.5 4.5l-1 6 1-2a19.841 19.841 0 0 1 5.5 3c12.54 17.412 22.207 36.412 29 57 .088 4.83 1.422 9.163 4 13 1.086 4.556 1.086 9.056 0 13.5.753 1.487 1.586 1.654 2.5.5a108.394 108.394 0 0 0 2 9c.383.556.883.889 1.5 1v1a582.058 582.058 0 0 0 2.5 31c.383-.556.883-.889 1.5-1v32c-1.645 4.734-2.311 9.734-2 15v3c-1.675 3.007-2.341 6.34-2 10v1a81.316 81.316 0 0 0-2.5 3 159.776 159.776 0 0 0-6.5 31c-3.322 11.635-7.988 22.635-14 33-.958.453-1.792 1.119-2.5 2l-1-1-1 4c-2.752-1.358-3.252-.691-1.5 2a24.348 24.348 0 0 0-3 9 111.99 111.99 0 0 1-14 21 57.959 57.959 0 0 1-6.5 3 133.729 133.729 0 0 0-4 9c-1.337-1.265-2.837-1.765-4.5-1.5.923 2.041 1.256 4.208 1 6.5-.333 1-1 1.667-2 2-1.92.779-3.753 1.113-5.5 1a10.756 10.756 0 0 1-2.5 3c1.035 1.628 1.035 3.295 0 5a24.935 24.935 0 0 0-7 .5l1 1a22.981 22.981 0 0 1-5 2c.457.414.791.914 1 1.5l-4 2a9.108 9.108 0 0 1 1 5 19.22 19.22 0 0 1-6 1v3c-4.523-.473-6.857 1.527-7 6-2.775 3.105-6.108 5.438-10 7-4.054-.684-8.054-.684-12 0a4.457 4.457 0 0 0 2 1.5c-3.245.636-5.578 2.47-7 5.5-1.196-.346-1.196-.846 0-1.5-1-.667-2-.667-3 0a74.063 74.063 0 0 1-6 6.5c-.825.886-1.825 1.219-3 1v3a185.615 185.615 0 0 0-20 8c-1.758-.946-3.425-.946-5 0a4.457 4.457 0 0 0 2 1.5c-3.767-.241-6.434 1.259-8 4.5a634.554 634.554 0 0 1-23 2.5c2.391.691 2.391 1.691 0 3a29.927 29.927 0 0 0-9 2 587.107 587.107 0 0 1-37 4c-.916.278-1.582.778-2 1.5h-24c-.763-.768-1.763-1.268-3-1.5a370 370 0 0 0-27-2.5h-1c-1.98-1.605-4.313-2.772-7-3.5a198.553 198.553 0 0 0-17-2.5 250.27 250.27 0 0 1-30.5-13 27.716 27.716 0 0 0-8.5-2c-11.16-4.741-21.494-10.741-31-18a18.67 18.67 0 0 1-3-5 4.457 4.457 0 0 1 2-1.5c-1.679-.395-3.345-.228-5 .5l-2-1a66.678 66.678 0 0 0-2-5.5c-3.202-.376-6.535-1.21-10-2.5a46.117 46.117 0 0 0-5.5-6 4.932 4.932 0 0 1-.5-3 8.43 8.43 0 0 1-4-.5c-1.614-2.127-3.614-3.627-6-4.5-10.496-9.489-19.496-20.155-27-32a36.903 36.903 0 0 0-2-5.5A109.203 109.203 0 0 1 32 371.5a20.507 20.507 0 0 1-3-8 14.696 14.696 0 0 0-3.5-3c-.545-7.078-3.211-13.078-8-18a199.188 199.188 0 0 1-10-38c-.599-3.417-1.932-6.417-4-9v-1c-.61-9.321-1.11-18.655-1.5-28-.608-1.566-1.442-2.9-2.5-4v-30c.617-.111 1.117-.444 1.5-1l3.5-32v-1c1.998-3.626 2.998-7.626 3-12 1.088-7.035 3.088-13.701 6-20 4.269-5.893 6.935-12.559 8-20 .826-2.985 2.159-5.651 4-8 3.256-2.836 5.256-6.503 6-11 3.135-.048 4.802-1.715 5-5a4.451 4.451 0 0 1 1.5 2 9.457 9.457 0 0 1 2.5-1.5c-1.367-2.301-2.034-4.801-2-7.5a46.2 46.2 0 0 1 9-13 4.934 4.934 0 0 0 3-.5 60.761 60.761 0 0 0 3-5.5 6.845 6.845 0 0 1 4-1 4.932 4.932 0 0 1 .5-3c1.666.84 1.833.34.5-1.5a11.362 11.362 0 0 0 1.5-3.5c2.454-1.941 4.287-4.275 5.5-7 4-6 9-11 15-15 3.646-1.982 6.646-4.648 9-8 1.085-2.087 2.751-3.42 5-4 4.154-3.105 8.821-5.438 14-7a50.39 50.39 0 0 0 7-8c8.186-6.264 17.186-11.264 27-15a445.63 445.63 0 0 1 16-5.5c.881-.708 1.547-1.542 2-2.5a78.815 78.815 0 0 1 19-6 445.726 445.726 0 0 1 57-8c1.53-.14 2.53-.807 3-2Z" style="opacity:1"/><path fill="#f8dc59" d="M226.5-.5h13c-.47 1.193-1.47 1.86-3 2a445.726 445.726 0 0 0-57 8 245.906 245.906 0 0 1 47-10Z" style="opacity:1"/><path fill="#f9e168" d="M263.5-.5h9a253.498 253.498 0 0 1 40 8 824.861 824.861 0 0 0-43-5.5c-2.223-.566-4.223-1.4-6-2.5Z" style="opacity:1"/><path fill="#fce991" d="M314.5 7.5a185.853 185.853 0 0 1 29 10 933.155 933.155 0 0 0-23-6.5c-2.258-.876-4.258-2.043-6-3.5Z" style="opacity:.725"/><path fill="#f6e172" d="M160.5 15.5c-.453.958-1.119 1.792-2 2.5a445.63 445.63 0 0 0-16 5.5 99.913 99.913 0 0 1 18-8Z" style="opacity:1"/><path fill="#f9e882" d="M361.5 25.5a71.857 71.857 0 0 1 14 8c-3.984-1.657-7.984-3.324-12-5-1.112-.765-1.779-1.765-2-3Z" style="opacity:.659"/><path fill="#f9dd52" d="M115.5 38.5a50.39 50.39 0 0 1-7 8c-5.179 1.562-9.846 3.895-14 7a78.15 78.15 0 0 1 21-15Z" style="opacity:1"/><path fill="#f8e175" d="M89.5 57.5c-2.354 3.352-5.354 6.018-9 8 2.38-3.38 5.38-6.047 9-8Z" style="opacity:1"/><path fill="#fcdd51" d="M425.5 71.5c6.271 5.239 11.604 11.239 16 18a38.44 38.44 0 0 1-5.5-5l-2 4c-1.946-2.639-2.946-5.639-3-9a23.625 23.625 0 0 1-3.5-1 54.855 54.855 0 0 1-2-7Z" style="opacity:1"/><path fill="#fade53" d="M65.5 80.5c-1.213 2.725-3.046 5.059-5.5 7a11.362 11.362 0 0 1-1.5 3.5c1.333 1.84 1.166 2.34-.5 1.5a4.932 4.932 0 0 0-.5 3 6.845 6.845 0 0 0-4 1 60.761 60.761 0 0 1-3 5.5 4.934 4.934 0 0 1-3 .5c4.872-8.21 10.872-15.544 18-22Z" style="opacity:1"/><path fill="#fcdc57" d="M441.5 89.5a86.446 86.446 0 0 1 15 20 19.841 19.841 0 0 0-5.5-3l-1 2 1-6a37.52 37.52 0 0 1-8.5-4.5 6.29 6.29 0 0 0 1-3 24.307 24.307 0 0 0-2-5.5Z" style="opacity:1"/><path fill="#f9dc4d" d="M38.5 115.5c-.034 2.699.633 5.199 2 7.5a9.457 9.457 0 0 0-2.5 1.5 4.451 4.451 0 0 0-1.5-2c-.198 3.285-1.865 4.952-5 5-.744 4.497-2.744 8.164-6 11 3.14-8.441 7.474-16.108 13-23Z" style="opacity:1"/><path fill="#0a0501" d="M429.5 134.5v63h-72v-63h72Z" style="opacity:1"/><path fill="#f8de65" d="M21.5 146.5c-1.065 7.441-3.731 14.107-8 20a120.47 120.47 0 0 1 8-20Z" style="opacity:1"/><path fill="#bdab3d" d="M374.5 161.5h13v7h-13c3.798-.983 7.798-1.317 12-1v-5c-4.202.317-8.202-.017-12-1Z" style="opacity:1"/><path fill="#fcd82b" d="M374.5 153.5v8c3.798.983 7.798 1.317 12 1v5c-4.202-.317-8.202.017-12 1-.315 3.871.018 7.538 1 11 4.134.985 8.468 1.318 13 1v4h-20v-37h19v4c-4.794-.597-9.127.07-13 2Z" style="opacity:1"/><path fill="#f7e276" d="M485.5 166.5c2.11 4.002 3.443 8.335 4 13-2.578-3.837-3.912-8.17-4-13Z" style="opacity:1"/><path fill="#cbb33c" d="M374.5 153.5c3.873-1.93 8.206-2.597 13-2v-4h-19v37h20v-4c-4.532.318-8.866-.015-13-1h14v7h-22v-40h21v7h-14Z" style="opacity:1"/><path fill="#f1d131" d="M403.5 145.5c9.484-1.279 14.817 2.721 16 12h-8c-.839-5.168-3.339-6.168-7.5-3-.667 1.333-.667 2.667 0 4a163.431 163.431 0 0 1 14 10c3.41 13.262-1.756 19.095-15.5 17.5-5.327-2.487-7.66-6.653-7-12.5h7c.062 5.523 2.729 7.356 8 5.5 2.854-3.6 2.187-6.6-2-9-10.142-2.55-13.975-8.716-11.5-18.5a53.864 53.864 0 0 1 6.5-6Z" style="opacity:1"/><path fill="#f8e178" d="M7.5 186.5c-.002 4.374-1.002 8.374-3 12 .398-4.261 1.398-8.261 3-12Z" style="opacity:1"/><path fill="#564707" d="M96.5 197.5h40v12h-1v-11h-38v72a1332.867 1332.867 0 0 1-1-73Z" style="opacity:1"/><path fill="#f9e065" d="M489.5 179.5c2.915 7.66 4.915 15.66 6 24-.617-.111-1.117-.444-1.5-1a108.394 108.394 0 0 1-2-9c-.914 1.154-1.747.987-2.5-.5 1.086-4.444 1.086-8.944 0-13.5Z" style="opacity:1"/><path fill="#d1b833" d="M429.5 134.5h-72v63h72c-1.449 1.664-3.449 2.498-6 2.5a1121.94 1121.94 0 0 1-67 0l-2-65a363.002 363.002 0 0 1 38-1.5c12.505 0 24.838.333 37 1Z" style="opacity:1"/><path fill="#19150a" d="M277.5 196.5a72.367 72.367 0 0 1 12 .5c3.61.472 6.61 1.972 9 4.5a6.846 6.846 0 0 0-4 1 507.778 507.778 0 0 0-7-4c-5.616 3.44-4.949 5.106 2 5 .193 2.808.86 5.475 2 8 .996-.086 1.829.248 2.5 1a926.125 926.125 0 0 0 1.5 43 3.647 3.647 0 0 0 1.5-1c1.716 6.243 4.049 6.91 7 2a462.27 462.27 0 0 0 0-43 60.577 60.577 0 0 1-3.5-10c2.794 2.319 4.628 5.319 5.5 9 .5 14.329.667 28.663.5 43-3.276 8.941-9.609 14.274-19 16-9.367 1.144-17.033-1.856-23-9 .172-.992-.162-1.658-1-2a42.47 42.47 0 0 0-1.5-5 924.222 924.222 0 0 1-.5-43c3.066-7.733 8.4-13.066 16-16Z" style="opacity:1"/><path fill="#eacc45" d="M334.5 197.5c1.988 19.305 2.654 38.972 2 59a106.21 106.21 0 0 0 20-1c.886.825 1.219 1.825 1 3h-23v-61Z" style="opacity:1"/><path fill="#f0d545" d="M136.5 197.5c1.3 1.723 1.967 3.89 2 6.5l-.5 6.5c-.956 1.394-2.289 2.061-4 2a84.969 84.969 0 0 0-21.5-.5c-.964 4.066-1.297 8.233-1 12.5 7.743-.63 15.076.037 22 2h-23v-16c8.849.326 17.516-.007 26-1v-12Z" style="opacity:1"/><path fill="#eed241" d="M277.5 196.5c6.532-1.16 13.199-.993 20 .5l-1 1c2.376 2.68 5.376 4.013 9 4a3.647 3.647 0 0 0-1 1.5c1.515 2.047 2.349 4.381 2.5 7 .828 15.172.661 30.172-.5 45 .167-14.337 0-28.671-.5-43-.872-3.681-2.706-6.681-5.5-9-.333-1-1-1.667-2-2-2.39-2.528-5.39-4.028-9-4.5a72.367 72.367 0 0 0-12-.5Z" style="opacity:1"/><path fill="#0e0e0e" d="M190.5 209.5h-26c-.891.761-1.558 1.761-2 3a61.234 61.234 0 0 1 1 15c7.67.278 15.336.611 23 1v8a4.934 4.934 0 0 1-3-.5c1.655-1.444 2.322-3.278 2-5.5-1.808-.009-3.475.491-5 1.5a455.529 455.529 0 0 1-3 4 99.101 99.101 0 0 0-13.5 1.5 158.137 158.137 0 0 0-1.5 30h-10v-69h38v11Z" style="opacity:1"/><path fill="#382d0a" d="M190.5 209.5v-11h-38v72h12c-4.134.985-8.468 1.318-13 1v-74h40c.317 4.202-.017 8.202-1 12Z" style="opacity:1"/><path fill="#0f0e0f" d="M278.5 209.5c-1.89-.203-3.39.463-4.5 2-.667 15-.667 30 0 45 .383-.556.883-.889 1.5-1a10.165 10.165 0 0 0 3 3c.321 1.548 1.321 2.215 3 2-.028 2.082.639 3.916 2 5.5-1.333.667-2.667.667-4 0-2.545-7.339-4.878-7.172-7 .5a10.756 10.756 0 0 1-3-2.5c1.43-1.88 1.096-3.38-1-4.5-.694 3.097-1.694 3.431-3 1a25.936 25.936 0 0 1 4-4.5c-1.207-1.3-1.874-2.8-2-4.5h-4c-1.149-10.296-1.316-22.63-.5-37a16.086 16.086 0 0 1 2.5 5c.825.886 1.825 1.219 3 1v-6h-3a269.46 269.46 0 0 0 3-10.5c2.637-.455 5.137.045 7.5 1.5l5-2a66.525 66.525 0 0 1 5.5 2.5 32.462 32.462 0 0 1-8 .5v3Z" style="opacity:1"/><path fill="#fed827" d="M287.5 209.5c.992-.172 1.658.162 2 1-.039 1.256.461 2.256 1.5 3a233.481 233.481 0 0 1-1 42l-1-1c-1.632 3.712-4.465 4.879-8.5 3.5a20.499 20.499 0 0 0-3.5-2.5c-.667-14-.667-28 0-42 2.89-2.771 6.39-4.104 10.5-4Z" style="opacity:1"/><path fill="#211401" d="M278.5 209.5c-.815 1.337-1.982 2.337-3.5 3a314.129 314.129 0 0 0 .5 43c-.617.111-1.117.444-1.5 1-.667-15-.667-30 0-45 1.11-1.537 2.61-2.203 4.5-2Z" style="opacity:1"/><path fill="#f8e271" d="m4.5 199.5-3.5 32c-.383.556-.883.889-1.5 1v-5a238.694 238.694 0 0 1 5-28Z" style="opacity:.902"/><path fill="#d4bc3d" d="M261.5 212.5c-.167 14.337 0 28.671.5 43a42.47 42.47 0 0 1 1.5 5c-.958-.453-1.792-1.119-2.5-2-.828-15.506-.661-30.839.5-46Z" style="opacity:1"/><path fill="#74650a" d="M135.5 209.5h1c-8.484.993-17.151 1.326-26 1v16c-.989-5.475-1.322-11.142-1-17h26Z" style="opacity:1"/><path fill="#9f8b2e" d="M164.5 209.5h26c-8.15.993-16.483 1.326-25 1v15c7.852-.325 15.518.008 23 1h-24v-17Z" style="opacity:1"/><path fill="#f6d430" d="M243.5 208.5c.958.453 1.792 1.119 2.5 2 .498 3.317.665 6.65.5 10-4.721-.768-8.721.399-12 3.5l2 1c-5.199 4.806-4.532 5.472 2 2a54.628 54.628 0 0 1 2-4.5c.988 3.653 3.155 6.32 6.5 8 .667 1 .667 2 0 3-1.131-1.104-1.965-.771-2.5 1 1.664 3.397 2.497 7.064 2.5 11a119.222 119.222 0 0 1 3 9 15.855 15.855 0 0 1 5.5 6c-.056 1.237-.556 2.237-1.5 3l-4-4c-1.759 3.108-2.592 6.441-2.5 10-2.273-1.235-4.106-.902-5.5 1l-2-2a14.748 14.748 0 0 1-4.5 3c-4.81.712-9.476 1.712-14 3-3.364.274-5.697-1.059-7-4 23.231 4.597 33.397-4.737 30.5-28l-3-5a153.446 153.446 0 0 0-24-16c-3.698-4.328-3.198-7.995 1.5-11a32.462 32.462 0 0 1 8 .5 79.562 79.562 0 0 1 5 6.5c4.134.985 8.468 1.318 13 1 .284-1.915-.049-3.581-1-5a20.69 20.69 0 0 0-1-5Z" style="opacity:1"/><path fill="#4b3e01" d="M244.5 213.5c.951 1.419 1.284 3.085 1 5-4.532.318-8.866-.015-13-1h12v-4Z" style="opacity:1"/><path fill="#0f0f0f" d="M298.5 201.5c1 .333 1.667 1 2 2a60.577 60.577 0 0 0 3.5 10 462.27 462.27 0 0 1 0 43c-2.951 4.91-5.284 4.243-7-2a3.647 3.647 0 0 1-1.5 1 926.125 926.125 0 0 1-1.5-43c-.671-.752-1.504-1.086-2.5-1a23.142 23.142 0 0 1-2-8c-6.949.106-7.616-1.56-2-5a507.778 507.778 0 0 1 7 4 6.846 6.846 0 0 1 4-1Z" style="opacity:1"/><path fill="#f8df67" d="M495.5 204.5a295.133 295.133 0 0 1 4 22v8c-.617.111-1.117.444-1.5 1a582.058 582.058 0 0 1-2.5-31Z" style="opacity:1"/><path fill="#cfb93c" d="M287.5 209.5c-4.11-.104-7.61 1.229-10.5 4-.667 14-.667 28 0 42a20.499 20.499 0 0 1 3.5 2.5c4.035 1.379 6.868.212 8.5-3.5l1 1a233.481 233.481 0 0 0 1-42c-1.039-.744-1.539-1.744-1.5-3l2 1 1.5 3c.667 13 .667 26 0 39-3.366 5.782-8.199 7.449-14.5 5a10.165 10.165 0 0 1-3-3 314.129 314.129 0 0 1-.5-43c1.518-.663 2.685-1.663 3.5-3 3.104-1.275 6.104-1.275 9 0Z" style="opacity:1"/><path fill="#0f0e0d" d="M135.5 209.5h-26c-.322 5.858.011 11.525 1 17 7.482.992 15.148 1.325 23 1v11h-24c-.324 6.854.009 13.521 1 20 8.484.993 17.151 1.326 26 1v11h-39v-72h38v11Z" style="opacity:1"/><path fill="#423402" d="M110.5 226.5h23c1.333 4 1.333 8 0 12v-11c-7.852.325-15.518-.008-23-1Z" style="opacity:1"/><path fill="#171002" d="M164.5 209.5v17h24v12h-24v32h-12v-3h10a158.137 158.137 0 0 1 1.5-30 99.101 99.101 0 0 1 13.5-1.5c.864-1.137 1.864-2.47 3-4 1.525-1.009 3.192-1.509 5-1.5.322 2.222-.345 4.056-2 5.5a4.934 4.934 0 0 0 3 .5v-8a1589.38 1589.38 0 0 0-23-1 61.234 61.234 0 0 0-1-15c.442-1.239 1.109-2.239 2-3Z" style="opacity:1"/><path fill="#f7dc49" d="M96.5 197.5c-.331 24.506.002 48.839 1 73a400.456 400.456 0 0 0 40 1c-13.735 1.33-27.569 1.33-41.5 0a915.153 915.153 0 0 1 .5-74Z" style="opacity:1"/><path fill="#f2d74f" d="M133.5 239.5c-7.148.992-14.481 1.325-22 1v17c8.849-.326 17.516.007 26 1h-27v-19h23Z" style="opacity:1"/><path fill="#a89338" d="M188.5 238.5c-7.482.992-15.148 1.325-23 1 .328 10.514-.006 20.847-1 31v-32h24Z" style="opacity:1"/><path fill="#796918" d="M133.5 238.5v1h-23v19c-.991-6.479-1.324-13.146-1-20h24Z" style="opacity:1"/><path fill="#f1d133" d="M202.5 213.5c-.077 9.679 3.923 17.179 12 22.5 7.751 2.447 13.918 6.947 18.5 13.5-.083 8.826-4.583 11.993-13.5 9.5-1.556-.72-2.556-1.887-3-3.5.996-.086 1.829.248 2.5 1a6.802 6.802 0 0 1 1.5-3c4.964 3.211 6.797 1.878 5.5-4-1.716-1.052-2.716-.386-3 2-.279-3.106-.112-5.939.5-8.5-.949-.617-1.782-.451-2.5.5-1.398-3.954-4.232-5.788-8.5-5.5-.837-1.011-1.17-2.178-1-3.5-2.624-1.95-5.624-3.45-9-4.5a50.866 50.866 0 0 1 0-16.5Z" style="opacity:1"/><path fill="#13110c" d="M243.5 208.5a20.69 20.69 0 0 1 1 5v4h-12c-.549-5.052-3.382-8.052-8.5-9-1.876.025-3.376.691-4.5 2-4.698 3.005-5.198 6.672-1.5 11a153.446 153.446 0 0 1 24 16l3 5c2.897 23.263-7.269 32.597-30.5 28-8.963-4.592-13.296-11.925-13-22h13a18.453 18.453 0 0 0 .5 6c.383.556.883.889 1.5 1 .444 1.613 1.444 2.78 3 3.5 8.917 2.493 13.417-.674 13.5-9.5-4.582-6.553-10.749-11.053-18.5-13.5-8.077-5.321-12.077-12.821-12-22.5 6.957-16.834 18.624-21.001 35-12.5 2.594 2.086 4.594 4.586 6 7.5Z" style="opacity:1"/><path fill="#c9b442" d="M232.5 217.5a79.562 79.562 0 0 0-5-6.5 32.462 32.462 0 0 0-8-.5c1.124-1.309 2.624-1.975 4.5-2 5.118.948 7.951 3.948 8.5 9Z" style="opacity:1"/><path fill="#665710" d="M110.5 258.5h27v13a400.456 400.456 0 0 1-40-1h39v-11c-8.849.326-17.516-.007-26-1Z" style="opacity:1"/><path fill="#e0c640" d="M264.5 262.5c5.967 7.144 13.633 10.144 23 9-8.509 2.666-15.842.666-22-6a5.576 5.576 0 0 1-1-3Z" style="opacity:1"/><path fill="#1b1401" d="M334.5 197.5v61h23v12h-36v-73h13Z" style="opacity:1"/><path fill="#0f0e0f" d="M322.5 199.5h10c-.167 20.003 0 40.003.5 60a242.191 242.191 0 0 0 21.5 1.5c1.791 2.106 2.458 4.606 2 7.5h-34v-69Z" style="opacity:1"/><path fill="#f9e064" d="M-.5 262.5c1.058 1.1 1.892 2.434 2.5 4 .39 9.345.89 18.679 1.5 28a366.48 366.48 0 0 1-4-23v-9Z" style="opacity:1"/><path fill="#fbec93" d="M499.5 266.5v6l-2 9c-.311-5.266.355-10.266 2-15Z" style="opacity:.553"/><path fill="#f9ee98" d="M497.5 284.5c-.253 3.54-.919 6.873-2 10-.341-3.66.325-6.993 2-10Z" style="opacity:.451"/><path fill="#fade5e" d="M495.5 295.5c-1.774 11.767-4.774 23.1-9 34a159.776 159.776 0 0 1 6.5-31 81.316 81.316 0 0 1 2.5-3Z" style="opacity:1"/><path fill="#d7bd33" d="M170.5 332.5c-9.333-.667-13.667 3.667-13 13-.66-1.464-.993-3.131-1-5a107.015 107.015 0 0 1 2-9 71.838 71.838 0 0 1 12 1Z" style="opacity:1"/><path fill="#fae06f" d="M3.5 295.5c2.068 2.583 3.401 5.583 4 9a199.188 199.188 0 0 0 10 38c-6.662-14.962-11.329-30.629-14-47Z" style="opacity:1"/><path fill="#090502" d="M170.5 332.5c14.639 6.991 29.973 11.991 46 15 3.764 1.332 7.764 2.165 12 2.5 12.84.827 25.507.66 38-.5a41.541 41.541 0 0 0 8-1c8.331-1.128 16.331-3.128 24-6a197.289 197.289 0 0 0 25-9.5c10.842-1.817 16.009 2.683 15.5 13.5-10.179 33.344-31.679 55.677-64.5 67a170.676 170.676 0 0 1-41 3c-8.479-1.906-16.813-4.573-25-8-2.918-1.753-4.918-4.253-6-7.5.565-3.399 2.565-5.232 6-5.5a141.235 141.235 0 0 0 27 8.5c8 .667 16 .667 24 0 1.882-.198 3.548-.698 5-1.5 8.673-1.443 16.673-4.443 24-9 18.702-10.697 31.035-26.363 37-47a688.835 688.835 0 0 0-28 10 33.691 33.691 0 0 0-9 2c-5.196.639-10.196 1.639-15 3-18.729 2.917-37.395 2.584-56-1a189.317 189.317 0 0 1-45.5-14l-1.5 1c4.721 13.785 12.221 25.785 22.5 36 .494 6.824-2.672 9.324-9.5 7.5-12.918-12.662-21.585-27.829-26-45.5-.667-9.333 3.667-13.667 13-13Z" style="opacity:1"/><path fill="#ddc342" d="M298.5 342.5c-7.669 2.872-15.669 4.872-24 6a56.239 56.239 0 0 1 8-3.5 54.286 54.286 0 0 1 16-2.5Z" style="opacity:1"/><path fill="#cbb443" d="M216.5 347.5a422.07 422.07 0 0 0 50 2c-12.493 1.16-25.16 1.327-38 .5-4.236-.335-8.236-1.168-12-2.5Z" style="opacity:1"/><path fill="#f9de5e" d="M17.5 342.5c4.789 4.922 7.455 10.922 8 18-3.733-5.47-6.4-11.47-8-18Z" style="opacity:1"/><path fill="#bfa93d" d="M288.5 358.5c-.111.617-.444 1.117-1 1.5a66.755 66.755 0 0 1-14 1.5c4.804-1.361 9.804-2.361 15-3Z" style="opacity:1"/><path fill="#f2d131" d="M288.5 393.5c.962-1.953 1.295-3.786 1-5.5 1.049-.492 2.049-.326 3 .5l2-3a3.647 3.647 0 0 1 1.5 1c.71-1.473 1.876-2.14 3.5-2a8.43 8.43 0 0 1 .5-4 4.457 4.457 0 0 0 1.5 2c.054-1.187.387-2.52 1-4l2 1a9.86 9.86 0 0 0 1-6h5c-1.235-2.273-.902-4.106 1-5.5-.95-2.91-2.95-4.077-6-3.5v-3a9.108 9.108 0 0 1 5 1c2.145-1.182 2.145-2.682 0-4.5.837-1.011 1.17-2.178 1-3.5a254.587 254.587 0 0 0-14 2 688.835 688.835 0 0 1 28-10c-5.965 20.637-18.298 36.303-37 47Z" style="opacity:1"/><path fill="#eacf45" d="M217.5 360.5c18.605 3.584 37.271 3.917 56 1-9.371 2.433-19.038 3.433-29 3l-17-.5c-3.663-.572-6.997-1.738-10-3.5Z" style="opacity:1"/><path fill="#fbdf60" d="M472.5 362.5c-1.991 5.989-4.991 11.323-9 16a24.348 24.348 0 0 1 3-9c-1.752-2.691-1.252-3.358 1.5-2l1-4 1 1c.708-.881 1.542-1.547 2.5-2Z" style="opacity:1"/><path fill="#f8e373" d="M25.5 360.5c1.294.79 2.46 1.79 3.5 3a20.507 20.507 0 0 0 3 8A109.203 109.203 0 0 0 44.5 390c.82 1.8 1.486 3.634 2 5.5-8.254-10.83-15.254-22.497-21-35Z" style="opacity:1"/><path fill="#e1c639" d="M264.5 402.5c-1.452.802-3.118 1.302-5 1.5-8 .667-16 .667-24 0a141.235 141.235 0 0 1-27-8.5c-3.435.268-5.435 2.101-6 5.5 1.082 3.247 3.082 5.747 6 7.5a54.75 54.75 0 0 1-9-3.5l3-11.5c4.267.297 8.434-.036 12.5-1a20.532 20.532 0 0 1 2.5 4.5c2.677.249 5.01 1.249 7 3a220.015 220.015 0 0 0 40 2.5Z" style="opacity:1"/><path fill="#fbdf55" d="M449.5 399.5a85.33 85.33 0 0 1-14 17c.256-2.292-.077-4.459-1-6.5 1.663-.265 3.163.235 4.5 1.5a133.729 133.729 0 0 1 4-9 57.959 57.959 0 0 0 6.5-3Z" style="opacity:1"/><path fill="#dbc03b" d="M274.5 413.5c-3.968 2.251-8.301 3.751-13 4.5-8.667.667-17.333.667-26 0-.916-.278-1.582-.778-2-1.5 13.814.65 27.48-.35 41-3Z" style="opacity:1"/><path fill="#fde166" d="M433.5 418.5c-1.93 3.6-4.597 6.6-8 9 1.035-1.705 1.035-3.372 0-5a10.756 10.756 0 0 0 2.5-3c1.747.113 3.58-.221 5.5-1Z" style="opacity:1"/><path fill="#fcdd51" d="M425.5 427.5a162.692 162.692 0 0 1-13 12 9.108 9.108 0 0 0-1-5l4-2a3.647 3.647 0 0 0-1-1.5 22.981 22.981 0 0 0 5-2l-1-1a24.935 24.935 0 0 1 7-.5Z" style="opacity:1"/><path fill="#f9e270" d="M73.5 427.5c2.386.873 4.386 2.373 6 4.5a8.43 8.43 0 0 0 4 .5 4.932 4.932 0 0 0 .5 3 46.117 46.117 0 0 1 5.5 6 159.037 159.037 0 0 1-16-14Z" style="opacity:1"/><path fill="#fae05f" d="M412.5 439.5a49.668 49.668 0 0 1-13 10c.143-4.473 2.477-6.473 7-6v-3a19.22 19.22 0 0 0 6-1Z" style="opacity:1"/><path fill="#fcdb55" d="M89.5 441.5c3.465 1.29 6.798 2.124 10 2.5a66.678 66.678 0 0 1 2 5.5l2 1c1.655-.728 3.321-.895 5-.5a4.457 4.457 0 0 0-2 1.5 18.67 18.67 0 0 0 3 5 86.446 86.446 0 0 1-20-15Z" style="opacity:1"/><path fill="#fae480" d="M383.5 460.5c-2.129 2.45-4.796 4.117-8 5 1.899-2.9 4.566-4.566 8-5Z" style="opacity:1"/><path fill="#fbdb49" d="M389.5 456.5c-1.647 1.826-3.647 3.16-6 4-3.434.434-6.101 2.1-8 5-14.291 9.143-29.624 16.143-46 21 1.566-3.241 4.233-4.741 8-4.5a4.457 4.457 0 0 1-2-1.5c1.575-.946 3.242-.946 5 0a185.615 185.615 0 0 1 20-8v-3c1.175.219 2.175-.114 3-1a74.063 74.063 0 0 0 6-6.5c1-.667 2-.667 3 0-1.196.654-1.196 1.154 0 1.5 1.422-3.03 3.755-4.864 7-5.5a4.457 4.457 0 0 1-2-1.5c3.946-.684 7.946-.684 12 0Z" style="opacity:1"/><path fill="#f8e170" d="M140.5 474.5c2.935.217 5.769.883 8.5 2a250.27 250.27 0 0 0 30.5 13c-13.752-3.247-26.752-8.247-39-15Z" style="opacity:1"/><path fill="#f8e166" d="M179.5 489.5c5.695.587 11.361 1.42 17 2.5 2.687.728 5.02 1.895 7 3.5-8.34-1.085-16.34-3.085-24-6Z" style="opacity:1"/><path fill="#fbdf62" d="M329.5 486.5a257.132 257.132 0 0 1-57 13h-14c.418-.722 1.084-1.222 2-1.5a587.107 587.107 0 0 0 37-4 29.927 29.927 0 0 1 9-2c2.391-1.309 2.391-2.309 0-3a634.554 634.554 0 0 0 23-2.5Z" style="opacity:1"/><path fill="#fbe471" d="M204.5 495.5a370 370 0 0 1 27 2.5c1.237.232 2.237.732 3 1.5h-8a295.133 295.133 0 0 1-22-4Z" style="opacity:.561"/></svg>