<svg xmlns="http://www.w3.org/2000/svg" width="1200" height="424">
    <path fill="#454447"
          d="M888 11c5.54 4.664 9.815 9.493 13 16l3.125-2.438c23.253-17.347 46.477-25.708 75.691-22.09 12.642 2.753 23.695 10.042 30.934 20.715 6.82 11.306 8.404 22.563 8.37 35.506l.003 3.592c.001 3.281-.002 6.563-.007 9.844-.004 3.542-.003 7.084-.002 10.626 0 6.134-.003 12.267-.008 18.401-.008 8.868-.011 17.737-.012 26.605-.002 14.389-.01 28.777-.019 43.166-.009 13.976-.016 27.952-.02 41.928v2.612l-.005 12.968c-.01 35.855-.028 71.71-.05 107.565h-47l-.018-10.183a92499.78 92499.78 0 0 0-.244-104.624l-.007-2.439c-.035-13.023-.06-26.047-.081-39.07-.022-13.368-.055-26.736-.099-40.104-.026-8.246-.044-16.491-.05-24.737-.006-5.658-.022-11.316-.047-16.974a1970.26 1970.26 0 0 1-.019-9.786c.002-3.543-.015-7.087-.036-10.63l.014-3.095c-.075-7.645-1.206-14.653-5.163-21.296-6.146-5.633-13.174-5.66-21.125-5.406C933.882 48.384 923.688 53.593 914 59l-3.152 1.434c-3.176 2.862-3.293 3.291-3.602 7.322a209.85 209.85 0 0 0-.005 6.09l-.028 3.388c-.024 3.76-.005 7.52.014 11.28-.008 2.69-.019 5.381-.032 8.071-.025 5.8-.027 11.598-.015 17.396.018 8.384.003 16.768-.02 25.152-.037 13.603-.047 27.205-.04 40.807.007 13.214 0 26.428-.022 39.642l-.005 2.467-.022 12.257c-.062 33.898-.079 67.796-.071 101.694h-46l-.018-10.183a92499.78 92499.78 0 0 0-.244-104.624l-.007-2.439c-.035-13.023-.06-26.047-.081-39.07-.022-13.368-.055-26.736-.099-40.104-.026-8.246-.044-16.491-.05-24.737-.006-5.658-.022-11.316-.047-16.974a1970.26 1970.26 0 0 1-.019-9.786c.002-3.543-.015-7.087-.036-10.63l.014-3.095c-.075-7.645-1.206-14.653-5.163-21.296-6.146-5.633-13.174-5.66-21.125-5.406C822.882 48.384 812.688 53.593 803 59l-3.152 1.434c-3.176 2.862-3.293 3.291-3.602 7.322a209.85 209.85 0 0 0-.005 6.09l-.028 3.388c-.024 3.76-.005 7.52.014 11.28-.008 2.69-.019 5.381-.032 8.071-.025 5.8-.027 11.598-.015 17.396.018 8.384.003 16.768-.02 25.152-.037 13.603-.047 27.205-.04 40.807.007 13.214 0 26.428-.022 39.642l-.005 2.467-.022 12.257c-.062 33.898-.079 67.796-.071 101.694h-47V5h47l1 20 4-3.938C823.522.866 861.973-6.962 888 11Z"/>
    <path fill="#464446"
          d="M510 11c14.206 10.655 21.058 25.372 23.724 42.692.98 8.199.69 16.536.664 24.778.004 2.233.01 4.465.016 6.698.014 6.022.009 12.045-.001 18.068-.008 6.328 0 12.656.004 18.983.006 11.304-.003 22.607-.019 33.91-.013 10.216-.01 20.432.003 30.649.016 11.906.022 23.812.013 35.718-.004 6.287-.005 12.574.005 18.86.009 5.915.002 11.829-.015 17.743-.004 2.159-.003 4.318.004 6.477.057 20.368-1.122 41-15.148 57.178-12.274 12.253-27.608 17.07-44.688 17.496-14.114-.328-26.748-3.57-39.25-10l-1.798-.905c-5.825-3.132-9.243-6.66-14.514-11.345l-1 104h-48V5h48l1 19 3.625-3.5C445.908-.054 483.138-5.662 510 11Zm-84 46-1.978 1.173c-4.206 2.67-4.206 2.67-6.767 6.784-.284 2.328-.317 4.542-.264 6.886l-.036 2.664c-.03 2.94-.002 5.876.026 8.815-.01 2.11-.022 4.219-.038 6.328-.032 5.726-.014 11.45.015 17.176.024 5.99.008 11.981-.001 17.972-.01 10.061.013 20.122.055 30.183.048 11.633.043 23.264.01 34.897a6593.97 6593.97 0 0 0 .002 33.567c.01 4.763.007 9.525-.009 14.287-.016 5.608.002 11.215.047 16.823.01 2.058.01 4.117-.004 6.175-.017 2.81.01 5.617.046 8.427l-.045 2.47c.084 3.372.236 5.52 2.43 8.173 3.938 3.456 8.326 6.073 13.011 8.387l2.082 1.034c11.76 5.558 25.876 8.2 38.418 3.779 5.855-2.861 9.692-5.968 12.344-11.973 1.658-5.122 1.802-10.08 1.796-15.426l.01-2.555c.008-2.825.01-5.649.011-8.473l.015-6.076c.013-5.503.02-11.005.024-16.507l.012-10.316c.013-10.761.023-21.523.027-32.284.004-12.417.022-24.834.05-37.251.023-9.602.033-19.204.034-28.806.001-5.733.007-11.466.025-17.199.016-5.394.018-10.788.01-16.182-.001-1.977.003-3.953.013-5.93.013-2.705.007-5.41-.004-8.115l.025-2.35C487.328 66.421 485.55 58.646 481 53c-16.032-12.058-39.422-6.16-55 4Z"/>
    <path fill="#454446"
          d="M701.438 18.027c12.424 11.607 18.071 27.265 19.685 43.853l.252 2.597c1.022 11.627.888 23.275.852 34.936v7.782a7442.7 7442.7 0 0 1-.016 16.626c-.016 8.012-.021 16.025-.024 24.037-.004 13.006-.017 26.011-.036 39.017-.019 12.619-.033 25.238-.041 37.858l-.002 2.365-.007 11.746c-.021 32.385-.058 64.77-.101 97.156h-48l-1-19-3.688 3.5c-15.003 13.246-33.552 20.244-53.628 19.684-16.413-1.123-29.824-4.729-41.371-16.872-12.312-14.779-12.433-34.793-12.7-53.035l-.077-4.89c-.053-3.41-.102-6.82-.149-10.23-.06-4.325-.134-8.649-.212-12.973-.058-3.367-.106-6.735-.152-10.103-.023-1.591-.05-3.183-.08-4.775-.402-21.447 1.465-42.754 16.78-59.181 11.875-11.081 28.717-16.577 43.89-21.621l4.294-1.45c2.96-.999 5.922-1.993 8.886-2.981 3.801-1.269 7.599-2.548 11.395-3.83 2.937-.992 5.876-1.98 8.814-2.968 1.403-.47 2.805-.942 4.207-1.415 1.944-.653 3.89-1.303 5.835-1.952l3.349-1.12C671 130 671 130 673 130c-.085-7.668-.18-15.335-.288-23.003-.05-3.56-.096-7.122-.134-10.683-.044-4.104-.104-8.207-.164-12.31l-.035-3.836c-.19-11.48-1.359-20.98-9.629-29.48-6.974-4.28-14.064-5.217-22.125-5.126l-2.791.021c-8.35.197-15.04 1.51-21.771 6.667-4.75 6.333-7.141 12.334-7.268 20.253l-.06 3.336-.051 3.583-.063 3.682c-.066 3.882-.125 7.764-.183 11.646l-.131 7.895c-.108 6.451-.207 12.903-.307 19.355h-46a5464.85 5464.85 0 0 1-.155-22.671c-.016-3.521-.037-7.042-.071-10.563-.04-4.058-.054-8.117-.067-12.176-.015-1.235-.03-2.47-.047-3.743-.004-19.357 5.152-38.937 18.465-53.534 29.3-27.33 91.134-26.386 121.313-1.286ZM655.011 178.08c-1.905.69-3.812 1.377-5.72 2.06-21.759 6.854-21.759 6.854-37.57 22.177-4.174 9.493-3.88 19.69-3.89 29.903l-.01 3.45c-.005 2.393-.007 4.787-.007 7.18-.002 3.64-.02 7.28-.04 10.92-.003 2.338-.005 4.675-.005 7.012l-.022 3.262c.025 8.544.07 19.302 6.252 25.957 7.314 5.65 15.081 5.98 24 5 12.83-2.097 24.25-7.834 35-15 .446-1.999.446-1.999.36-4.34l.013-2.763-.032-3.038v-3.193c-.001-3.496-.025-6.99-.048-10.486a5624.362 5624.362 0 0 0-.087-26.382c-.03-6.502-.044-13.003-.06-19.505-.032-12.764-.082-25.529-.146-38.293-5.477 0-12.821 4.202-17.988 6.08ZM317.578 15.895c6.293 5.47 10.787 11.192 14.672 18.543l.962 1.748c8.128 16.388 7.342 34.905 7.194 52.688-.026 3.567-.028 7.135-.033 10.702-.012 6.725-.045 13.45-.085 20.175-.053 9.108-.075 18.217-.098 27.326-.037 14.308-.117 28.615-.19 42.923H228l.375 39.938.103 12.566.082 7.496c.018 1.657.032 3.314.043 4.971.017 2.524.046 5.048.078 7.572l.007 2.201c.139 8.647 1.735 16.461 7.312 23.256 7.673 6.339 15.786 6.364 25.313 6.375l3.263.074c7.745.028 15.062-.904 21.259-5.94 6.77-7.166 7.614-16.002 7.677-25.45l.05-2.713c.057-3.303.09-6.606.125-9.909L294 228h46c.07 7.131.129 14.261.165 21.393.015 2.42.035 4.84.061 7.259.264 25.016-1.59 46.934-19.476 66.098-4.728 4.551-9.83 7.493-15.75 10.25l-2.36 1.148c-12.682 5.66-26.535 6.35-40.203 6.243-2.436-.016-4.87 0-7.304.02-22.576.03-42.081-4.735-59.184-20.274-12.154-12.586-16.108-30.966-16.09-47.9l-.008-2.6c-.01-2.864-.01-5.727-.012-8.591l-.015-6.177c-.013-5.587-.02-11.175-.024-16.762l-.012-10.494c-.013-10.964-.023-21.929-.027-32.893-.004-12.618-.022-25.236-.05-37.854-.023-9.776-.033-19.552-.034-29.328-.001-5.827-.007-11.654-.025-17.482-.016-5.492-.018-10.985-.01-16.478.001-2.001-.003-4.002-.013-6.004-.114-24.292 2.314-49.613 19.621-68.324 27.843-25.863 88.57-26.819 118.328-3.355Zm-82.762 37.917c-7.28 8.77-6.345 20.386-6.207 31.106.008 1.71.014 3.421.018 5.132.015 4.467.054 8.933.098 13.4.049 5.378.067 10.756.09 16.135.039 8.138.115 16.276.185 24.415h65c.087-12.682.087-12.682.146-25.363.018-5.181.04-10.362.08-15.543.033-4.182.05-8.364.059-12.546.005-1.587.016-3.173.032-4.76.304-17.126.304-17.126-6.665-32.323-12.704-11.263-40.69-11.82-52.836.347Z"/>
    <path fill="#00B5D1"
          d="M122 36c.21 7.928.369 15.855.466 23.785.047 3.683.11 7.365.213 11.047.098 3.56.152 7.118.175 10.679.024 2.006.095 4.011.166 6.016.003 6.806-.446 10.719-5.34 15.672A125.92 125.92 0 0 1 113 107a552.472 552.472 0 0 0-3.75 3.25c-.645.552-1.29 1.103-1.953 1.672-3.043 2.753-5.913 5.66-8.797 8.578-4.01 4.055-8.059 7.94-12.41 11.629-3.365 3.013-6.495 6.257-9.668 9.469a163.75 163.75 0 0 1-10.29 9.488c-3.39 3.043-6.564 6.304-9.745 9.564C53.09 164.005 49.656 167.04 46 170c1.364 3.089 2.877 5.078 5.352 7.363l2.054 1.915 2.219 2.035 4.66 4.328 2.391 2.209c3.48 3.22 6.932 6.467 10.386 9.713l3.973 3.722a36262.855 36262.855 0 0 1 13.95 13.075 6177.177 6177.177 0 0 1 12.388 11.636 3468.93 3468.93 0 0 1 3.961 3.73l1.85 1.739 1.73 1.67c2.048 1.913 2.048 1.913 4.397 3.44 3.841 2.788 6.312 4.903 7.479 9.61.25 3.885.224 7.711.089 11.596-.017 1.424-.03 2.847-.039 4.27a631.48 631.48 0 0 1-.222 11.166c-.093 3.808-.133 7.615-.179 11.424-.096 7.454-.249 14.906-.439 22.359a528347622.546 528347622.546 0 0 1-5.902-4.355c-3.308-2.594-6.183-5.562-9.098-8.583-4.247-4.327-8.513-8.505-13.145-12.425-3.025-2.669-5.805-5.579-8.636-8.45A120.266 120.266 0 0 0 79 267.5c-3.794-3.252-7.274-6.757-10.781-10.313A120.266 120.266 0 0 0 62 251.5c-3.792-3.25-7.271-6.754-10.777-10.309-2.65-2.612-5.435-5.024-8.258-7.445-2.782-2.472-5.359-5.13-7.969-7.781-1.917-1.887-3.892-3.652-5.934-5.403-3.807-3.27-7.308-6.79-10.832-10.363-2.633-2.597-5.384-5.015-8.21-7.398L8 201l-3.052-2.469C.91 194.45.947 190.217.816 184.695l-.096-3.02c-.052-2.11-.087-4.22-.106-6.33-.05-3.183-.224-6.346-.401-9.525-.243-8.483-.379-15.917 5.392-22.614 3.485-3.477 7.245-6.498 11.179-9.447 3.048-2.42 5.716-5.14 8.413-7.937 1.777-1.796 3.624-3.441 5.553-5.072 3.595-3.086 6.923-6.382 10.25-9.75 3.83-3.877 7.72-7.562 11.875-11.094C55.694 97.377 58.339 94.694 61 92c3.83-3.877 7.72-7.562 11.875-11.094 3.374-3.026 6.517-6.278 9.7-9.501a166.108 166.108 0 0 1 10.366-9.565c3.127-2.794 6.039-5.799 8.982-8.782 3.303-3.33 6.72-6.451 10.292-9.488 1.812-1.594 3.484-3.271 5.16-5.008C120 36 120 36 122 36ZM1078 36c3.664 1.71 5.935 3.76 8.75 6.688 2.977 3.041 5.944 5.994 9.188 8.75 3.351 2.864 6.468 5.925 9.562 9.062 3.053 3.095 6.123 6.12 9.438 8.938 3.539 3.016 6.797 6.256 10.062 9.562 3.245 3.285 6.48 6.507 10 9.5 4.09 3.476 7.81 7.282 11.578 11.098 2.725 2.745 5.472 5.395 8.422 7.902 4.089 3.475 7.808 7.281 11.576 11.095a166.108 166.108 0 0 0 10.365 9.565c4.027 3.599 7.751 7.523 11.511 11.395 1.561 1.518 1.561 1.518 3.54 2.883 3.087 2.308 5.548 4.184 6.794 7.919.336 2.755.428 5.41.417 8.186l.052 3.045c.023 2.12.025 4.241.008 6.361-.013 3.216.08 6.417.182 9.631.204 16.819.204 16.819-5.623 23.155-2.484 2.309-5.065 4.285-7.822 6.265a252.839 252.839 0 0 0-4.188 3.688l-1.886 1.605c-3.044 2.698-5.852 5.625-8.707 8.52-2.627 2.589-5.389 4.975-8.188 7.375-3.07 2.74-5.919 5.691-8.808 8.62-2.65 2.613-5.435 5.025-8.258 7.446-2.073 1.842-4.02 3.77-5.965 5.746-2.56 2.6-5.168 5.063-7.938 7.438-2.99 2.569-5.793 5.255-8.562 8.062-3.361 3.407-6.837 6.575-10.469 9.688-2.267 2.023-4.397 4.149-6.531 6.312-3.36 3.405-6.83 6.573-10.465 9.68-3.041 2.72-5.847 5.66-8.664 8.61-1.956 1.823-3.844 3.315-6.02 4.848l-1.903 1.346L1078 307c-.28-8.154-.492-16.306-.622-24.464-.062-3.789-.146-7.575-.283-11.362a400.084 400.084 0 0 1-.234-10.99c-.022-1.39-.064-2.78-.13-4.168-.277-6.132-.4-11.527 3.868-16.255 2.94-2.854 6.135-5.293 9.401-7.761a190.129 190.129 0 0 0 4.328-4.047l1.957-1.846 1.965-1.857 4.387-4.137 2.2-2.075c3.403-3.206 6.814-6.404 10.226-9.6l1.985-1.86c1.32-1.239 2.642-2.477 3.964-3.715 2.007-1.88 4.013-3.762 6.02-5.644 8.976-8.42 17.967-16.825 26.968-25.219-1.581-4.123-4.587-6.588-7.813-9.438a335.057 335.057 0 0 1-15.52-14.933 141.413 141.413 0 0 0-8.554-8.016c-4.967-4.295-9.518-8.967-14.113-13.652l-2-2.023-1.75-1.786c-4.596-4.397-9.329-8.516-14.496-12.228-5.78-4.474-10.764-8.968-12.59-16.267-1.07-8.672-.71-17.33-.263-26.033.166-3.572.238-7.147.318-10.722.17-6.972.441-13.936.781-20.902Z"/>
</svg>
