<svg xmlns="http://www.w3.org/2000/svg" width="280" height="280"><path d="M0 97h125v2h2c4 6.75 4 6.75 4 9h2c1.121 1.406 1.121 1.406 2.438 3.5 2.977 4.625 6.06 9.163 9.187 13.688 1.373 1.989 2.745 3.978 4.108 5.974.823 1.194 1.66 2.377 2.515 3.549.987 1.382 1.879 2.832 2.752 4.289-.724 3.694-1.912 5.868-4 9h-2l-.875 2.25A81.918 81.918 0 0 1 144 157h-2l-.938 2.375C140 162 140 162 139 164h-2l-.75 2.113c-1.432 3.306-3.233 6.09-5.25 9.075l-2.125 3.167C127 181 127 181 125 183c-2.198.246-2.198.246-4.986.24l-3.196.009-3.52-.022h-3.695c-3.35 0-6.698-.01-10.047-.024-3.498-.013-6.996-.014-10.494-.016-6.626-.006-13.253-.023-19.879-.043-8.282-.024-16.565-.035-24.847-.046-14.779-.02-29.557-.06-44.336-.098V97Z"/><path fill="#FD6B00" d="M156 97h124v86H156V97Z"/><path fill="#F7F7F7" d="M105 122c5.216 3.025 9.056 6.169 11 12 .687 8.299.135 14.168-5.25 20.75-6.129 5.014-11.166 5.764-18.95 5.531-5.941-.596-9.412-3.56-13.503-7.586-4.062-5.31-3.909-11.307-3.297-17.695 1.25-3.375 1.25-3.375 3-6l1.563-2.625c6.957-6.78 16.621-8.126 25.437-4.375Z"/><path fill="#F5F5F5" d="M61.102 122.734C63 124 63 124 63.926 125.938 64 128 64 128 63.004 129.702L59 134l6 1c.217 3.066.375 6.117.5 9.188l.203 2.619c.08 2.616.041 4.679-.703 7.193-4.681 4.635-10.381 6.153-16.813 6.25-7.561-.091-11.617-2.367-16.89-7.555C27.086 147.19 27.159 140.617 28 134c2.324-5.944 6.374-9.866 11.832-13.078 6.942-2.952 14.59-.843 21.27 1.812Z"/><path fill="#FFFAF7" d="M213 121h33v11h-11v28h-11v-28h-11v-11Z"/><path fill="#FFFDFC" d="M193 121h11v39h-11v-39Z"/><path fill="#050505" d="M99 131c2.938 1.375 2.938 1.375 5 4 .72 3.47.69 6.526 0 10-2.063 3.125-2.063 3.125-5 5-4.377.782-6.218.516-9.938-1.938-2.408-3.576-2.804-5.667-2.542-9.902 1.478-6.645 6.356-8.144 12.48-7.16Z"/><path fill="#0C0C0C" d="M49.625 129.938c3.558 1.12 5.061 2.193 7.375 5.062H46v11h8v3c-3.139 1.57-5.539 1.352-9 1-2.938-1.875-2.938-1.875-5-5-.895-4.135-1.18-8.092 1.11-11.793 2.76-2.65 4.74-3.204 8.515-3.27Z"/></svg>