<svg xmlns="http://www.w3.org/2000/svg" width="1200" height="1346"><path fill="#0F355C" d="M1120.668 540.98c10.248 8.876 15.579 20.556 16.553 34.09.497 14.435.337 28.152-4.221 41.93l-1.098 3.352c-4.64 12.928-11.137 25.336-18.902 36.648l-1.1 1.615c-6.113 8.927-12.733 17.279-19.9 25.385l-1.89 2.156c-5.879 6.628-12.03 12.95-18.293 19.212-1.688 1.69-3.368 3.389-5.047 5.087-5.904 5.933-11.898 11.477-18.452 16.692-2.67 2.134-5.146 4.381-7.63 6.728-5.714 5.25-11.747 9.995-17.885 14.73-2.97 2.3-5.916 4.63-8.865 6.957a928.147 928.147 0 0 1-10.602 8.247l-1.793 1.37a2812.378 2812.378 0 0 1-4.898 3.727L994 771l-1.646 1.184c-2.136 2.864-1.697 5.437-1.663 8.96l.009 2.201c.008 1.583.023 3.166.044 4.749.034 2.542.05 5.084.06 7.627.028 5.448.08 10.894.134 16.341.065 7.075.12 14.149.152 21.223l.012 2.644c.12 35.075-2.656 70.422-8.102 105.071l-.557 3.598C968.274 1034.55 933.466 1123.025 870 1195l-2.48 2.816C855.31 1211.427 842.477 1224.8 828 1236c-1.837 1.559-3.67 3.121-5.5 4.688-14.94 12.424-30.95 23.165-47.5 33.312l-2.372 1.472c-14.26 8.802-29.348 15.719-44.628 22.528l-2.412 1.093c-22.333 10.084-46.663 16.885-70.588 21.907l-2.772.584c-77.901 16.062-159.62 8.589-233.254-20.804-2.854-1.128-5.727-2.2-8.599-3.28-28.475-10.999-53.969-26.255-78.375-44.5l-2.18-1.63c-14.706-11.039-29.008-22.42-42.39-35.041-2.078-1.931-4.227-3.78-6.368-5.641-11.248-10.117-20.991-21.62-30.062-33.688l-1.346-1.763c-7.276-9.54-13.773-19.481-20.077-29.685-1.63-2.639-3.27-5.271-4.909-7.904A3257.426 3257.426 0 0 1 215 1122l-1.35-2.19a1327.822 1327.822 0 0 1-3.588-5.872l-1.964-3.223c-2.975-5.09-5.5-10.427-8.098-15.715l-3.132-.028c-38.05-.401-75.43-3.143-111.868-14.972l-2.062-.643c-19.11-5.981-41.145-15.262-51.864-33.224-7.09-14.078-6.592-29.328-1.815-44.064C34.851 986.45 43.872 973.021 54 960c.675-.871 1.35-1.743 2.047-2.64 10.993-13.804 23.475-27.069 36.867-38.555 2.336-2.022 4.616-4.099 6.898-6.18 13.352-12.03 27.77-22.912 42.188-33.625l2.148-1.75C146 876 146 876 149 876c.056 4.237.056 8.47.012 12.706-.008 1.553-.001 3.106.019 4.658.158 13.61.158 13.61-2.386 17.945-2.09 1.857-4.261 3.227-6.645 4.691a463.78 463.78 0 0 0-6.625 5.188l-1.81 1.413c-9.754 7.615-19.013 15.809-28.124 24.176a258.454 258.454 0 0 1-6.379 5.598c-18.547 16.19-40.903 39.355-43.027 65.035-.09 6.71 1.526 12.468 5.965 17.59 10.725 9.42 26.306 11.988 40 14l2.01.316c39.035 5.904 81.37 1.618 119.99-5.316l3.439-.604c22.66-4.023 44.986-9.377 67.33-14.85 3.074-.752 6.149-1.496 9.223-2.241C349.986 1014.578 397.22 999.825 444 984l2.203-.744c14.604-4.934 29.186-9.894 43.557-15.482 5.683-2.206 11.409-4.24 17.178-6.212 8.178-2.806 16.164-5.985 24.147-9.303 5.128-2.128 10.263-4.167 15.477-6.072 11.31-4.151 22.387-8.9 33.5-13.543 3.265-1.364 6.533-2.723 9.802-4.08 23.64-9.816 47.028-20.153 70.277-30.869 3.837-1.768 7.68-3.524 11.53-5.265 11.858-5.375 23.617-10.935 35.329-16.617 1.02-.496 1.02-.496 2.062-1 7.476-3.63 14.93-7.3 22.356-11.028a598.435 598.435 0 0 1 16.894-8.16c7.921-3.716 15.667-7.702 23.387-11.816 5.157-2.746 10.35-5.42 15.544-8.095 9.364-4.823 18.657-9.694 27.75-15.01 3.098-1.755 6.244-3.333 9.444-4.891 9.404-4.629 18.445-9.9 27.543-15.096a1304.37 1304.37 0 0 1 8.805-4.955C874.39 788.156 887.765 780.23 901 772l2.616-1.625c12.296-7.672 24.387-15.651 36.447-23.688l2.111-1.406A1556.171 1556.171 0 0 0 969 727l2.595-1.804c48.587-33.621 48.587-33.621 93.694-71.673 2.635-2.452 5.321-4.833 8.024-7.21 4.27-3.843 8.03-7.891 11.687-12.313l2.148-2.488c13.505-15.925 22.41-32.329 20.852-53.512-1.965-8.469-5.446-14.823-12.793-19.742C1070.192 544 1038.156 548.263 1011 552l-2.5.338A785.403 785.403 0 0 0 997 554v-28c5.036-1.439 8.966-2.359 14.05-2.852l1.975-.194c2.095-.202 4.19-.392 6.288-.579l2.182-.197c33.034-2.949 71.813-2.65 99.173 18.802ZM912.563 828.062c-9.215 6.695-19.041 12.481-28.813 18.313l-3.302 1.976-6.483 3.877a7037.264 7037.264 0 0 0-11.715 7.022C856 863 856 863 853.223 864.379c-2.933 2.139-3.254 3.813-4.035 7.308l-.708 3.012L848 877l-2.266-.98-2.984-1.207-2.953-1.231c-2.833-.916-2.833-.916-5.156.805L833 876c1.622.838 3.248 1.67 4.875 2.5l2.742 1.406c2.249 1.233 2.249 1.233 4.383 1.094-2.496 7.326-5.377 14.225-9 21.063l-1.441 2.728c-23.52 43.69-23.52 43.69-38.559 51.209l-.61-8.182c-.178-2.399-.358-4.798-.538-7.197-.489-6.524-.95-13.048-1.36-19.578l-.25-3.858c-.16-2.473-.312-4.947-.456-7.42l-.223-3.394-.184-3.002c-.17-2.552-.17-2.552-2.379-4.369l-4 2 .19 1.958c.653 6.749 1.301 13.497 1.946 20.247.241 2.516.484 5.032.728 7.547.35 3.624.697 7.249 1.042 10.873l.332 3.388c1.484 15.727 1.484 15.727-.383 18.983l-1.668 1.442-1.968 1.738L784 969l-2.281 1.98c-16.729 14.173-34.757 26.04-54.714 35.084-1.99.93-3.94 1.92-5.892 2.928C699.242 1020 674.182 1025.352 650 1028l-2.539.288c-7.653.79-15.27.905-22.961.9l-1.993-.001c-14.974-.029-29.385-1.405-44.08-4.221-3.243-.62-6.104-.966-9.427-.966l-.364-1.777c-.656-2.291-1.494-3.818-2.816-5.79l-1.316-1.97-1.379-2.025-1.355-2.038c-2.075-3.08-4.074-5.827-6.77-8.4l-3 2c1.37 3.844 3.155 6.838 5.563 10.125 1.98 2.71 3.372 4.679 4.437 7.875l-2.551-.934a1358.976 1358.976 0 0 0-9.455-3.393c-1.36-.487-2.72-.978-4.076-1.476a515.878 515.878 0 0 0-5.89-2.107l-3.571-1.286c-5.773-1.343-10.585.047-16.035 2.06l-3.213 1.17-3.459 1.279c-2.516.913-5.033 1.825-7.55 2.734l-2 .723c-22.543 8.147-45.274 15.723-68.227 22.635a3213.93 3213.93 0 0 0-6.228 1.887c-23.13 7.022-46.376 13.526-69.745 19.708l-3.455.916A3393.678 3393.678 0 0 1 341 1070c1.286 6.495 3.11 12.383 5.625 18.5l1.075 2.635c15.704 38.071 39.796 73.06 71.3 99.865l2.832 2.492c13.447 11.74 27.991 22.132 43.168 31.508l3.188 2.008A670.129 670.129 0 0 0 478 1233l3.352 2.078c59.857 36.15 134.527 45.664 201.972 29.68 38.12-9.48 73.48-28.801 102.227-55.492a219.75 219.75 0 0 1 6.511-5.766c7.59-6.629 14.389-13.797 20.668-21.672 2.304-2.87 4.688-5.658 7.082-8.453 13.659-16.39 24.88-34.706 35.097-53.39a563.145 563.145 0 0 1 3.196-5.715c5.115-9.205 9.408-18.738 13.582-28.395.27-.625.54-1.25.82-1.893C898.901 1022.748 912.861 958.334 918 892l.297-3.547c.967-12.973.814-25.951.765-38.953-.005-2.384-.01-4.768-.013-7.152-.011-5.783-.028-11.565-.049-17.348-2.877 0-4.123 1.378-6.438 3.063Z"/><path fill="#0F355C" d="M57 299h338v42c-5.522 1.84-10.715 3.492-16.313 4.875-18.628 4.86-34.044 14.426-44.156 31.156-9.45 18.322-10.674 42.602-11.147 62.874l-.056 2.14c-.545 20.98-.478 41.971-.473 62.957 0 6.084-.006 12.167-.01 18.25-.009 11.868-.012 23.736-.012 35.604a103617.028 103617.028 0 0 1-.01 39.474c-.005 19.518-.01 39.036-.009 58.554v20.065c.001 23.2-.006 46.4-.02 69.6a125736.026 125736.026 0 0 0-.023 86.891v2.087c0 11.003-.006 22.006-.015 33.009-.008 11.08-.009 22.16-.003 33.239.004 5.983.004 11.965-.005 17.948-.032 23.653.126 47.162 1.986 70.75.49 6.505.873 13.016 1.266 19.527-44.062 12.88-87.577 24.398-133.125 30.75l-2.747.387-2.573.347-2.235.304c-2.782.254-5.529.245-8.32.212-19.357-53.299-23.452-105.615-23.506-161.915-.009-6.078-.031-12.156-.053-18.234a21944.58 21944.58 0 0 1-.098-39.26 29284.556 29284.556 0 0 0-.114-45.655 61932.216 61932.216 0 0 1-.248-190.914c.001-26.514.01-53.028.046-79.542.01-8.038.019-16.075.025-24.113.006-6.283.016-12.567.03-18.851.007-3.809.01-7.618.013-11.426.002-1.725.005-3.45.01-5.176.094-29.924-.56-60.8-22.128-84.14-3.937-3.533-8.4-6.16-12.977-8.774l-1.887-1.148C99.032 343.255 75.468 341.916 57 339v-40ZM831 299h245v45l-10.75 1.25c-8.464 1.077-16.4 2.255-24.25 5.75l-1.876.833c-8.982 4.053-16.707 8.602-24.124 15.167l-2.988 2.355C1000.02 379.34 993.609 395.86 992 411c-.47 8.609-.3 17.241-.213 25.858.032 3.49.046 6.982.06 10.473.025 5.255.056 10.51.093 15.766.072 10.322.107 20.643.129 30.965a183750.381 183750.381 0 0 0 .027 12.298c.02 9.28.045 18.561.074 27.842l.008 2.567c.045 13.75.133 27.5.235 41.25.104 14.146.15 28.291.145 42.438 0 8.712.045 17.421.15 26.133.067 5.966.08 11.931.05 17.898-.016 3.44-.007 6.876.067 10.315.368 20.123.368 20.123-3.292 25.253-3.462 3.304-7.31 5.36-11.71 7.159-2.647 1.14-4.952 2.713-7.327 4.332-1.685 1.07-3.371 2.137-5.058 3.203l-2.777 1.762a8275.84 8275.84 0 0 1-11.635 7.368 7502.061 7502.061 0 0 0-5.92 3.748c-1.84 1.165-3.68 2.329-5.522 3.49A265.52 265.52 0 0 0 924.12 741.7C922 743 922 743 919 743l-.002-2.137a110369.819 110369.819 0 0 0-.206-140.594l-.005-3.033c-.031-16.188-.048-32.377-.06-48.565-.013-16.622-.04-33.243-.082-49.865-.025-10.249-.038-20.498-.036-30.747 0-7.037-.015-14.073-.041-21.11-.015-4.054-.023-8.108-.014-12.163.009-3.722-.002-7.444-.026-11.166a568.85 568.85 0 0 1 .014-5.89c-.183-19.225-7.15-36.195-20.702-49.918-17.196-16.013-39.738-21.924-62.656-22.636C832 345 832 345 831 344v-45ZM802 0c-1.572 3.755-3.945 6.21-6.75 9.125-17.4 18.747-23.463 46.518-27.778 71.021-.812 4.586-1.67 9.164-2.53 13.74l-.506 2.691C759.094 124.733 750.47 148.467 730 169l-1.844 1.914c-14.638 14.04-40.394 27.317-60.781 28.774l-2.54.199L663 200c.497-5.513 2.584-9.186 5.375-13.813 6.53-11.217 8.802-20.92 8.813-33.937l.037-2.574.005-2.473.013-2.23c-.133-2.294-.133-2.294-2.243-4.973-4.65 1.812-4.65 1.812-8.918 4.36-13.379 9.455-32.486 10.064-48.222 12.196-13.14 1.82-24.132 5.09-35.86 11.444l-2.21.93c-2.336 1.397-2.766 2.56-3.79 5.07l-1.332 2.926c-3.737 8.55-6.853 17.18-9.668 26.074-14.57-.06-26.125-6.776-37-16l-2.207-1.863C516.518 176.593 510.08 164.815 506 153l-1.102-3.184c-3.02-12.827-2.287-27.205 4.102-38.816l1.352-2.465c10.621-17.356 28.839-25.311 47.148-32.16l2.336-.877c10.233-3.747 20.24-5.928 31.039-7.31C610.622 65.451 630.62 60.862 647 49c5.612-4 5.612-4 9-4 4.241 9.997 4.217 19.469.477 29.64-3.848 8.755-8.484 17.208-13.477 25.36 28.011-1.357 48.368-25.947 66.625-44.625C724.697 39.957 739.435 26.132 758 15l2.11-1.279C772.825 6.09 786.643-1.66 802 0ZM478 713c7.636 2.283 14.697 5.531 21.87 8.952 2.825 1.347 5.655 2.682 8.485 4.018l4.332 2.048c14.213 6.726 28.441 13.44 42.94 19.53 3.476 1.496 6.901 3.075 10.326 4.682l3.987 1.868 2.042.958c2.56 1.198 5.124 2.389 7.688 3.578 2.504 1.162 5.007 2.327 7.51 3.491l3.77 1.75c3.732 1.73 7.454 3.476 11.17 5.24 1.955.92 3.92 1.818 5.886 2.716 1.284.604 2.567 1.208 3.85 1.814l3.485 1.612C618 777 618 777 619.02 779.416c.23 2.271.23 2.271.058 4.47-.096 2.601.537 3.937 1.922 6.114l2 1c-.615 4.452-2.367 8.056-4.438 11.984l-1.065 2.06c-1.16 2.239-2.329 4.472-3.497 6.706a6765.73 6765.73 0 0 1-7.51 14.46c-3.397 6.528-6.76 13.074-10.125 19.619a14540.78 14540.78 0 0 1-18.68 36.175 7403.67 7403.67 0 0 0-10.224 19.824l-2.315 4.502a9457.496 9457.496 0 0 0-4.425 8.621 1450.932 1450.932 0 0 1-3.976 7.692c-1.07 2.059-2.13 4.124-3.17 6.199l-1.255 2.424-1.015 2.008c-3.89 5.143-11.661 7.068-17.43 9.413l-3.035 1.26-2.91 1.19-2.65 1.084C523 947 523 947 520 947c-1.502-2.074-2.781-4.104-4.063-6.313-4.377-7.28-9.008-14.366-13.745-21.414-5.581-8.303-11.121-16.615-16.363-25.137-3.933-6.37-8.037-12.626-12.142-18.886l-1.115-1.702-5.506-8.395c-2.95-4.502-5.885-9.014-8.816-13.528l-1.577-2.429-3.112-4.793c-2.142-3.298-4.286-6.596-6.43-9.893a4530.346 4530.346 0 0 1-3.23-4.979c-2.834-4.369-5.688-8.723-8.573-13.058l-1.814-2.744a816.722 816.722 0 0 0-3.465-5.196l-1.565-2.373-1.383-2.074c-1.333-2.525-1.932-4.217-2.101-7.086a64.615 64.615 0 0 1 2.98-7.195l.983-2.112c1.063-2.279 2.144-4.548 3.224-6.818.74-1.578 1.477-3.156 2.213-4.735 1.118-2.4 2.237-4.798 3.361-7.194 3.37-7.188 6.603-14.43 9.801-21.696C451.6 738.113 455.71 729.02 460 720l3.727.113c3.327-.002 5.68-.308 8.648-1.926l1.96-1.019c1.969-1.231 1.969-1.231 3.665-4.168ZM469 222a206120.398 206120.398 0 0 1 98.87-.055h2.12c11.17-.005 22.34-.013 33.51-.022 11.55-.01 23.1-.015 34.65-.017 6.45-.001 12.9-.004 19.35-.012 36.512-.04 72.996.37 109.5 1.106.92 3.415 1.129 6.432 1.133 9.98l.004 3.53-.012 3.678.012 3.619c-.019 16.957-.019 16.957-2.137 21.193-1.87.363-1.87.363-4.297.527l-2.656.213c-1.849.13-3.698.258-5.547.383-5.894.478-9.883 1.154-14.133 5.576-6.88 9.168-13.281 18.68-19.648 28.207-5.754 8.572-11.41 16.754-18.719 24.094l-1.555 1.688c-3.07 2.787-6.526 2.442-10.447 2.452l-3.802.018-4.18.003-4.395.015c-3.984.013-7.967.02-11.951.024l-7.47.012c-7.795.013-15.59.023-23.384.027-8.99.004-17.98.022-26.971.05-6.953.023-13.906.033-20.86.034-4.15.001-8.3.007-12.451.025-3.908.016-7.816.018-11.724.01-1.43-.001-2.86.003-4.29.013-16.72.11-16.72.11-22.142-4.857-1.614-1.749-2.99-3.58-4.378-5.514l-1.803-2.497a659.726 659.726 0 0 1-5.947-8.565c-1.423-2.06-2.846-4.118-4.27-6.176l-2.072-3.003C505.298 278.944 505.298 278.944 489 265a74.954 74.954 0 0 0-4.316-.281l-2.565-.114-5.375-.21-2.56-.114-2.358-.092C470 264 470 264 469 263c-.089-3.03-.115-6.037-.098-9.066l.005-2.754c.005-2.914.018-5.828.03-8.743A7441.975 7441.975 0 0 1 469 222ZM731 582c-.91 4.04-2.629 7.516-4.5 11.188l-1.072 2.125c-2.948 5.813-6 11.57-9.066 17.322a635.536 635.536 0 0 0-7.487 14.553l-1 1.97c-1.648 3.267-3.186 6.536-4.578 9.92-1.5 3.532-3.007 6.813-5.297 9.922-3.419 1.355-6.376 1.173-10 1-2.983.74-2.983.74-5 3-.409 1.633-.813 3.267-1.215 4.902-1.397 3.548-2.144 4.795-5.634 6.442-3.933.981-7.835 1.668-11.838 2.281-1.53.27-3.058.543-4.586.821-3.248.587-6.5 1.15-9.754 1.698-7.253 1.231-14.462 2.683-21.677 4.115-3.392.67-6.787 1.327-10.181 1.985-12.775 2.476-25.533 5.037-38.29 7.6-18.41 3.7-36.824 7.352-55.285 10.787a1123.587 1123.587 0 0 0-21.321 4.162l-2.139.44c-3.319.681-6.635 1.372-9.95 2.079l-3.478.72-3.031.642c-2.608.324-4.176.23-6.621-.674-1.773-1.418-1.773-1.418-3.375-3.188l-1.648-1.73C472 694 472 694 472.748 691.298c1.311-3.454 2.764-6.795 4.307-10.153l.9-1.97c.639-1.395 1.278-2.79 1.919-4.184 1.714-3.73 3.418-7.464 5.122-11.198l1.041-2.28a1784.168 1784.168 0 0 0 8.9-19.888c5.374-12.16 10.897-24.248 16.457-36.324l.98-2.132c.636-1.385 1.274-2.77 1.915-4.153 1.527-3.32 2.981-6.644 4.307-10.049l.772-1.94c.681-1.732 1.34-3.473 1.996-5.215 2.983-5.126 7.98-6.485 13.439-8.135 2.42-.746 4.796-1.585 7.181-2.439 62.333-22.021 129.5-17.3 189.016 10.762ZM563 349h113c0 18.167 0 18.167-.875 27-.855 9.23-1.49 18.462-2.04 27.715a2312.721 2312.721 0 0 1-2.304 33.976l-.158 2.099c-.371 4.924-.747 9.848-1.123 14.772a4808.984 4808.984 0 0 0-5.098 74.211l-.24 3.922a2239.78 2239.78 0 0 0-.342 5.688c-.114 1.943-.234 3.885-.355 5.828l-.2 3.322C663 550 663 550 662 551a149.206 149.206 0 0 1-7.043-.34l-2.182-.139c-2.321-.148-4.642-.302-6.962-.458-14.756-.989-29.239-1.498-44-.125l-2.999.263c-2.938.26-5.876.528-8.814.799a35937.113 35937.113 0 0 1-11 1c-2.516-19.633-4.026-39.326-5.466-59.062a1556.788 1556.788 0 0 0-2.96-35.04c-1.675-17.433-3.042-34.887-4.364-52.35-.334-4.413-.675-8.825-1.019-13.237-.268-3.467-.532-6.934-.795-10.401-.124-1.628-.25-3.256-.377-4.883-.176-2.269-.347-4.538-.516-6.807l-.295-3.873c-.276-5.776-.208-11.564-.208-17.347ZM763 651c2.178 20.443 4.205 40.89 5.938 61.375a2670.99 2670.99 0 0 0 4.562 48.5l.316 3.076c.928 9.005 1.863 18.01 2.812 27.013.497 4.715.987 9.43 1.473 14.147.18 1.741.364 3.482.551 5.223.256 2.383.502 4.766.746 7.15l.233 2.102c.366 3.667.564 6.896-.631 10.414-2.438 1.73-4.61 3.048-7.25 4.375l-2.027 1.113c-4.118 2.144-6.12 2.867-10.723 1.512a204.367 204.367 0 0 1-7.86-3.508l-2.328-1.082a1970.68 1970.68 0 0 1-4.967-2.32c-3.526-1.651-7.058-3.292-10.59-4.933l-5.419-2.52a2604.016 2604.016 0 0 0-24.461-11.2 4960.105 4960.105 0 0 1-26.477-12.078l-2.57-1.182a181106.09 181106.09 0 0 0-16.907-7.79l-2.056-.951c-3.421-1.575-6.852-3.076-10.365-4.436l-.078-1.758c-.316-4.346-.582-6.746-3.11-10.43L640 770c1.26-5.695 4.39-10.773 7.125-15.875 1.009-1.903 2.017-3.807 3.023-5.71l1.492-2.82a461.89 461.89 0 0 0 5.11-10.095 1330.91 1330.91 0 0 1 13.47-26.394c.326-.62.65-1.24.985-1.88l1.964-3.745c2.105-4.034 4.112-8.105 6.081-12.208l3-6.023 1.278-2.813c1.309-2.563 2.372-4.465 4.472-6.437 2.932-.786 5.466-.967 8.497-.93 2.737.126 2.737.126 5.566-1.883 3.474-3.923 4.126-7.053 4.937-12.187l2.452-.487a19027.928 19027.928 0 0 0 13.427-2.674c6.708-1.334 13.415-2.669 20.098-4.128l2.586-.564c1.53-.336 3.06-.679 4.587-1.029 4.37-.96 8.388-1.175 12.85-1.118ZM808 642c1.76 1.32 1.76 1.32 3.191 3.2l1.654 2.131 1.717 2.356 1.832 2.445C827.896 667.755 837.175 684.272 845 702l.893 1.972C857.063 728.804 863.352 757.758 863 785c-3.97 2.277-7.944 4.549-11.92 6.815l-4.12 2.35c-7.46 4.258-14.932 8.398-22.648 12.183-4.24 2.115-8.432 4.317-12.625 6.527l-2.454 1.29c-3.9 2.055-7.786 4.13-11.647 6.257l-2.065 1.13c-1.271.696-2.539 1.4-3.802 2.112C788.433 825.46 786.865 826 783 826l-2.125-22.063-.334-3.473a28247.908 28247.908 0 0 1-5.163-54.105l-.756-7.975c-1.327-14.03-2.677-28.057-4.114-42.075l-.358-3.502a4916.672 4916.672 0 0 0-1.677-16.179c-.96-9.24-1.847-18.326-1.473-27.628 4.873-1.004 9.748-2.001 14.624-2.99 1.657-.338 3.314-.678 4.97-1.02 2.387-.491 4.775-.976 7.164-1.459l2.226-.464c4.054-.811 7.889-1.522 12.016-1.067ZM642 789c4.709.574 8.37 1.906 12.637 3.957.628.3 1.257.598 1.905.906 1.35.643 2.698 1.289 4.045 1.938 3.58 1.724 7.173 3.424 10.765 5.125l2.202 1.045c7.988 3.779 16.058 7.357 24.15 10.907a822.672 822.672 0 0 1 18.37 8.355c7.758 3.635 15.562 7.167 23.364 10.705 1.521.69 3.043 1.38 4.564 2.072L755 839c-.244 1.85-.244 1.85-1 4-1.768 1.29-1.768 1.29-4.102 2.41l-2.636 1.292-2.887 1.36-3.006 1.459A1449.608 1449.608 0 0 1 732 854c-1.83.878-3.66 1.757-5.488 2.637a3078.392 3078.392 0 0 1-11.176 5.336 1803.503 1803.503 0 0 0-14.047 6.773c-13.052 6.353-26.108 12.627-39.417 18.427-3.02 1.334-6.008 2.737-8.997 4.14l-3.738 1.75c-2.15 1.006-4.299 2.013-6.447 3.023-19.32 9.058-38.944 17.415-58.587 25.744a1409.107 1409.107 0 0 0-10.483 4.5l-5.163 2.22-2.403 1.054c-.737.315-1.475.63-2.234.956l-1.95.845C560 932 560 932 556 932c1.557-5.357 3.985-9.996 6.625-14.875 3.53-6.561 6.919-13.18 10.239-19.85 3.665-7.356 7.427-14.66 11.198-21.962l2.22-4.303a23434.22 23434.22 0 0 1 8.767-16.978 8676.09 8676.09 0 0 1 21-40.437c3.392-6.496 6.725-13.015 9.951-19.595l3.625.188c4.13.021 6.772-1.13 10.375-3.188h2v-2ZM680 667c2.313 2.688 2.313 2.688 4 6-.377 3.44-1.392 6.118-3.02 9.148-.434.82-.87 1.64-1.317 2.486l-1.476 2.741c-1.094 2.064-2.186 4.13-3.277 6.195l-1.863 3.525c-3.599 6.843-7.103 13.736-10.623 20.62-1.3 2.535-2.605 5.068-3.913 7.6-3.617 7.01-7.23 14.016-10.604 21.148a661.037 661.037 0 0 1-2.806 5.837 276.9 276.9 0 0 0-3.26 6.994c-1.424 2.908-2.66 5.313-4.841 7.706-2.718.902-4.841 1.083-7.695.977-3.698.037-5.48 1.762-8.305 4.023l-2 1a109.137 109.137 0 0 1-7.188-3l-1.904-.848c-5.26-2.357-10.475-4.81-15.697-7.251A6969.7 6969.7 0 0 0 569 750.188l-2.584-1.196c-10.996-5.083-22.004-10.11-33.164-14.823a210.535 210.535 0 0 1-12.932-6.017c-7.61-3.85-15.41-7.262-23.212-10.701-1.9-.84-3.8-1.682-5.698-2.525l-3.37-1.487c-2.834-1.341-5.49-2.612-8.04-4.439v-3c7.94-1.593 15.879-3.184 23.819-4.774 3.69-.74 7.381-1.479 11.071-2.22 15.287-3.066 30.577-6.11 45.887-9.06 18.81-3.625 37.59-7.406 56.368-11.192a34687.44 34687.44 0 0 1 18.489-3.722c3.935-.792 7.87-1.584 11.805-2.38a7343.27 7343.27 0 0 1 11.697-2.355c1.465-.295 2.93-.59 4.394-.888 2.022-.41 4.044-.815 6.066-1.22l3.467-.698C676 667 676 667 680 667ZM421 806h3c1.511 1.794 1.511 1.794 3.117 4.328l1.819 2.833 1.939 3.089 4.078 6.379 2.065 3.254c2.835 4.457 5.72 8.88 8.607 13.304l3.195 4.918A58267.911 58267.911 0 0 0 461.75 864l1.625 2.5a1326338.545 1326338.545 0 0 1 9.759 15.013c2.66 4.091 5.318 8.183 7.975 12.276 5.853 9.013 11.717 18.018 17.595 27.014l3.21 4.914 2.043 3.127 1.995 3.062a308.581 308.581 0 0 0 4.374 6.438l2.248 3.25 2.061 2.927L516 947c-1 3-1 3-2.68 3.98l-2.195.852-2.46.971-2.665 1.01-2.731 1.061a566.44 566.44 0 0 1-21.28 7.724c-2.69.922-5.32 1.93-7.946 3.023l-1.909.767a333.179 333.179 0 0 0-5.083 2.12C464 969 464 969 460.945 967.445 433.998 945.073 415.082 913.616 401 882l-1.024-2.255a243.992 243.992 0 0 1-2.726-6.37l-1.547-3.664c-.97-5.118.248-8.015 2.297-12.711l1.534-3.518c1.842-4.159 3.747-8.289 5.654-12.42 1.015-2.214 2.03-4.429 3.043-6.644l1.998-4.36c2.609-5.69 5.176-11.396 7.709-17.12l.979-2.213c.695-1.575 1.39-3.15 2.083-4.725ZM593 1035l3.059.438c9.33 1.234 18.528 1.755 27.941 1.75l3.142.001c5.725-.04 11.314-.353 16.995-1.074L646 1036l1 1a215.92 215.92 0 0 1-.316 8.797l-.146 2.82c-.672 12.554-1.585 25.093-2.476 37.633-.362 5.144-.723 10.289-1.082 15.434l-.263 3.78c-.489 7.063-.95 14.127-1.354 21.196l-.133 2.324c-.192 3.362-.375 6.723-.546 10.085-1.266 22.99-1.266 22.99-5.684 28.931-5.193 4.198-9.596 4.571-16.195 4.316-5.186-.585-7.815-2.349-11.492-5.941-5.327-6.965-5.867-15.558-6.375-24.012l-.232-3.349a1692.78 1692.78 0 0 1-.47-7.059c-.396-6.118-.83-12.234-1.26-18.35l-.251-3.62a770.926 770.926 0 0 0-2.35-26.86l-.365-3.469-.685-6.493c-.56-5.446-1.045-10.897-1.513-16.35l-.254-2.846c-.53-6.334-.648-12.612-.558-18.967ZM517 583c-.596 3.53-1.528 6.481-3.047 9.719l-1.29 2.778-1.413 3.003a6959.903 6959.903 0 0 0-3.023 6.52l-1.605 3.459c-2.71 5.883-5.354 11.795-7.997 17.708l-1.639 3.663c-1.106 2.47-2.21 4.942-3.316 7.414-1.676 3.75-3.355 7.501-5.033 11.252l-.837 1.87c-1.369 3.058-2.74 6.114-4.116 9.168a1300.882 1300.882 0 0 0-7.582 17.122l-1.369 3.12a491.325 491.325 0 0 0-2.488 5.77c-.37.84-.742 1.679-1.124 2.543l-.955 2.218C469 692 469 692 466.99 692.698L465 693c-1.983.725-3.94 1.501-5.902 2.281L457 696l-2.095.771c-4.413.348-7.565-1.505-11.487-3.392l-2.467-1.148c-2.594-1.21-5.179-2.439-7.764-3.668-1.759-.825-3.518-1.649-5.279-2.471-4.31-2.017-8.61-4.05-12.908-6.092.552-3.514 1.36-5.98 3.336-8.934l1.46-2.195c.52-.762 1.042-1.524 1.579-2.308l1.628-2.407C438.305 641.788 456.965 620.898 479 605l1.655-1.2C509.52 583 509.52 583 517 583Z"/><path fill="#0F355C" d="M911 544v29l-7.688 2.125c-3.438.955-6.875 1.915-10.312 2.875l-2.56.713c-18.836 5.26-37.404 11.255-55.956 17.438l-4.708 1.568c-7.753 2.58-15.5 5.173-23.213 7.867l-3.337 1.153a537.465 537.465 0 0 0-5.995 2.114c-8.36 2.88-8.36 2.88-13.231 1.147-2.453-1.41-4.687-3.037-6.938-4.75l-1.763-1.305a456.444 456.444 0 0 1-3.506-2.619c-1.88-1.39-3.805-2.707-5.734-4.03L763 595v-2c7.27-2.92 14.544-5.83 21.821-8.731 2.611-1.042 5.22-2.09 7.827-3.14C806.58 575.569 820.8 570.819 835 566l4.738-1.621c19.319-6.569 38.828-12.849 58.574-18.004l2.872-.75C907.587 544 907.587 544 911 544ZM453 712c2.438 1.938 2.438 1.938 4 5-2.143 8.114-5.885 15.644-9.375 23.25a8849.44 8849.44 0 0 0-2.807 6.165l-1.925 4.224a2023.908 2023.908 0 0 0-6.565 14.56l-.887 1.987a8557.723 8557.723 0 0 0-4.177 9.372c-2.629 5.885-5.322 11.706-8.264 17.442-4.279-1.426-5.489-4.612-7.688-8.313-.9-1.477-1.8-2.953-2.703-4.43l-1.345-2.21c-1.67-2.705-3.424-5.348-5.202-7.985l-1.906-2.851a984.902 984.902 0 0 0-3.554-5.265 979.944 979.944 0 0 1-4.54-6.759l-1.47-2.138c-3.232-4.882-5.186-9.011-4.296-15.062.452-2.127.993-4.206 1.579-6.3l.566-2.166c1.365-5.132 1.365-5.132 2.559-7.521 2.487-.698 2.487-.698 5.816-1.332l3.724-.724c1.34-.252 2.681-.505 4.022-.756 2.048-.394 4.094-.791 6.14-1.188 1.39-.27 2.78-.538 4.169-.805 7.61-1.468 15.189-3.082 22.764-4.722l2.78-.59 2.404-.52C449 712 449 712 453 712ZM735 585c5.163 1.51 9.616 3.702 14.25 6.375l2.18 1.113c3.238 1.898 5.162 3.362 6.44 6.965.568 3.185.876 6.321 1.13 9.547l.635 5.897c.292 2.781.546 5.565.798 8.35.194 2.146.395 4.292.598 6.437.535 5.784 1.052 11.5.969 17.316l-3.605.703a146674.716 146674.716 0 0 0-27.45 5.352l-2.56.499-2.486.485-2.433.472c-1.714.34-3.425.692-5.134 1.055l-2.641.556-2.365.509c-2.521.4-4.778.572-7.326.369-2.375-2.125-2.375-2.125-4-5 .328-4.934 2.182-8.839 4.465-13.137l1.058-2.04c1.13-2.174 2.272-4.342 3.414-6.51l2.34-4.487c1.895-3.635 3.8-7.265 5.708-10.894 1.402-2.669 2.796-5.341 4.19-8.014 3.85-7.36 7.769-14.67 11.825-21.918ZM388 753c4.375 3.996 7.306 8.33 10.375 13.375 3.471 5.67 7.015 11.237 10.848 16.672l2.121 3.065a289.014 289.014 0 0 0 4.195 5.882c4.504 6.57 4.504 6.57 4.394 10.252-.75 2.42-1.759 4.508-2.933 6.754a2840.45 2840.45 0 0 0-2.602 5.863 1725.645 1725.645 0 0 1-3.023 6.45c-1.072 2.297-2.144 4.595-3.215 6.894l-1.609 3.448c-2.675 5.77-5.274 11.573-7.872 17.377l-1.034 2.312-.896 2.006A108.025 108.025 0 0 1 395 857h-2c-9.033-27.226-10.786-56.89-8.125-85.313l.238-2.547c.572-5.486 1.578-10.783 2.887-16.14ZM379 748h3c-.462 4.883-.94 9.763-1.457 14.64-.338 3.199-.62 6.384-.805 9.594l-.3 3.641-.192 3.18c-2.007 4.743-5.889 6.456-10.246 8.945l-2.855 1.655a739.771 739.771 0 0 1-9.332 5.22l-6.641 3.688-3.21 1.78c-4.897 2.738-9.744 5.56-14.583 8.4C330 810 330 810 328 810c-2.86-27.768-2.86-27.768 3-35.711 5.475-4.554 11.92-7.157 18.481-9.788 6.1-2.602 11.72-5.997 17.457-9.313 2.111-1.177 4.224-2.35 6.34-3.52 3.052-1.574 3.052-1.574 5.722-3.668ZM412 683c4.637.478 8.559 2.542 12.688 4.563a668.34 668.34 0 0 0 19.375 8.937l2.399 1.06c1.845.815 3.691 1.628 5.538 2.44v7c-5.335 1.952-10.736 3.08-16.29 4.2l-2.971.603c-2.066.418-4.132.834-6.198 1.248-3.164.636-6.325 1.285-9.486 1.935-2.01.405-4.021.81-6.032 1.213l-2.863.593-2.67.527-2.341.473c-2.308.223-3.951-.099-6.149-.792 3.076-8.658 6.384-17.126 10.313-25.438l1.058-2.24c2.483-5.176 2.483-5.176 3.629-6.322ZM762 602c3.064.594 4.948 1.486 7.363 3.45l1.917 1.55 2.033 1.688 2.114 1.736C782.907 616.636 790 623.254 797 630l2.422 2.277C801 634 801 634 801 636h2v3c-4.304.862-8.609 1.716-12.915 2.563-1.463.29-2.926.58-4.388.874-2.109.422-4.22.837-6.33 1.25l-3.84.762c-3.25.508-6.246.657-9.527.551-1.294-8.834-2.31-17.671-3.125-26.563l-.265-2.846c-.406-4.546-.716-9.02-.61-13.591Z"/><path fill="#12365C" d="M433 1345h7v1h-7v-1Z"/></svg>