<svg xmlns="http://www.w3.org/2000/svg" width="54" height="50" fill="none"><path fill="#22242C" d="M6.905 23.886.011 11.944 6.516.677l13.4 23.208H6.905ZM21.088 23.209l-6.51-11.275L21.093.68l6.5 11.26-6.505 11.268ZM13.8 10.586 7.688 0l12.23.001L13.8 10.586ZM29.48 13.012h13.788l6.505 11.268H22.976l6.505-11.268ZM22.975 25.633h13.018l6.489 11.268H29.48l-6.505-11.268ZM37.55 25.633h12.224l-6.117 10.591-6.107-10.59ZM20.689 49.999l6.894-11.942-6.505-11.267-13.4 23.209h13.01ZM6.506 49.322l6.51-11.275L6.5 26.794l-6.5 11.26 6.505 11.268ZM13.793 36.7l6.112-10.587-12.23.001L13.794 36.7Z"/></svg>